<svg width="59" height="54" viewBox="0 0 59 54" fill="none" xmlns="http://www.w3.org/2000/svg">
    <path
        d="M20.8559 35.928C19.9947 35.928 19.1849 35.7503 18.4264 35.3949C17.6758 35.0395 17.0279 34.5459 16.4828 33.914C15.9376 33.2822 15.5465 32.5477 15.3095 31.7105L18.4145 30.8812C18.5172 31.284 18.699 31.6315 18.9597 31.9238C19.2283 32.216 19.5364 32.445 19.8841 32.6109C20.2396 32.7688 20.6031 32.8478 20.9744 32.8478C21.4642 32.8478 21.9106 32.7293 22.3136 32.4924C22.7244 32.2555 23.0484 31.9356 23.2854 31.5328C23.5303 31.13 23.6528 30.6838 23.6528 30.1941C23.6528 29.7045 23.5303 29.2582 23.2854 28.8554C23.0484 28.4527 22.7244 28.1328 22.3136 27.8959C21.9106 27.6589 21.4642 27.5405 20.9744 27.5405C20.3739 27.5405 19.8841 27.6431 19.5048 27.8485C19.1256 28.0459 18.8412 28.2355 18.6516 28.4171L15.9258 27.5878L16.4472 18.5132H25.7623V21.5223H18.2249L19.3626 20.4561L19.0071 26.3084L18.4619 25.645C18.8886 25.2975 19.3745 25.0447 19.9196 24.8868C20.4648 24.7288 20.9744 24.6498 21.4484 24.6498C22.523 24.6498 23.4671 24.8907 24.2809 25.3725C25.1026 25.8464 25.7425 26.5019 26.2008 27.3391C26.6669 28.1683 26.9 29.12 26.9 30.1941C26.9 31.2682 26.6195 32.2397 26.0586 33.1084C25.4976 33.9693 24.7589 34.6564 23.8424 35.1698C22.9259 35.6752 21.9304 35.928 20.8559 35.928Z"
        fill="currentColor" />
    <path
        d="M34.7424 35.928C33.1306 35.928 31.827 35.5647 30.8315 34.8381C29.8439 34.1036 29.2434 33.069 29.0301 31.7342L32.3247 31.2367C32.459 31.8369 32.7553 32.3068 33.2136 32.6464C33.6797 32.986 34.2683 33.1558 34.9794 33.1558C35.564 33.1558 36.0144 33.0453 36.3304 32.8241C36.6465 32.5951 36.8045 32.2792 36.8045 31.8764C36.8045 31.6236 36.7413 31.4222 36.6149 31.2722C36.4884 31.1142 36.204 30.9602 35.7616 30.8102C35.327 30.6601 34.6476 30.4627 33.7232 30.2178C32.6803 29.9493 31.8467 29.6492 31.2226 29.3175C30.5984 28.9858 30.148 28.5909 29.8715 28.1328C29.595 27.6668 29.4567 27.1061 29.4567 26.4506C29.4567 25.6292 29.6661 24.9184 30.0848 24.3181C30.5036 23.71 31.0922 23.244 31.8507 22.9202C32.617 22.5885 33.5177 22.4227 34.5527 22.4227C35.5561 22.4227 36.445 22.5767 37.2193 22.8847C37.9935 23.1927 38.6177 23.631 39.0918 24.1997C39.5737 24.7683 39.87 25.4396 39.9806 26.2136L36.686 26.806C36.6307 26.3321 36.4252 25.9569 36.0697 25.6805C35.7142 25.4041 35.2322 25.2422 34.6238 25.1948C34.0313 25.1553 33.5533 25.2343 33.1899 25.4317C32.8343 25.6292 32.6565 25.9135 32.6565 26.2847C32.6565 26.5058 32.7316 26.6914 32.8817 26.8415C33.0397 26.9916 33.3597 27.1456 33.8417 27.3035C34.3315 27.4615 35.0742 27.6668 36.0697 27.9196C37.0415 28.1723 37.8197 28.4685 38.4044 28.8081C38.997 29.1398 39.4275 29.5426 39.6962 30.0164C39.9648 30.4824 40.0991 31.0471 40.0991 31.7105C40.0991 33.0216 39.6251 34.0522 38.677 34.8025C37.7289 35.5528 36.4173 35.928 34.7424 35.928Z"
        fill="currentColor" />
    <path
        d="M47.9458 34.3433C48.6483 32.5313 49.1042 30.633 49.3011 28.6997C49.4244 27.4896 50.3989 26.501 51.6153 26.501C52.8316 26.501 53.8274 27.4888 53.7248 28.7009C53.5025 31.329 52.8829 33.9085 51.8873 36.351C51.4284 37.4771 50.0931 37.905 49.0096 37.3531C47.9256 36.801 47.506 35.4775 47.9458 34.3433Z"
        fill="#8892E7" />
    <path
        d="M28.7278 50.3244C28.4042 50.7405 28.2385 51.1412 28.2308 51.5265C28.2231 51.9118 28.3348 52.2393 28.566 52.5089C28.7972 52.7709 29.1015 52.9328 29.4791 52.9944C29.8644 53.0561 30.2728 52.9674 30.7043 52.7286L38.541 48.4172L47.2099 53.1909C47.7262 53.476 48.2116 53.6186 48.6663 53.6186C49.3675 53.6186 50.0032 53.2718 50.5734 52.5783L58.4448 42.7651C58.753 42.3875 58.9071 42.0099 58.9071 41.6324C58.9148 41.2471 58.807 40.9157 58.5835 40.6383C58.3677 40.3609 58.0711 40.1876 57.6935 40.1182C57.3236 40.0411 56.9114 40.1221 56.4567 40.3609L48.62 44.6838L39.9627 39.9217C39.4387 39.6289 38.9456 39.4825 38.4832 39.4825C37.7897 39.4825 37.1617 39.8331 36.5992 40.5343L28.7278 50.3244Z"
        fill="#0B69AF" />
    <path fill-rule="evenodd" clip-rule="evenodd"
        d="M43.0542 11.1557C41.1519 9.25412 38.9174 7.72716 36.4677 6.64658C35.3552 6.15584 34.7165 4.9241 35.0923 3.7677C35.4682 2.61129 36.7151 1.96972 37.8358 2.44137C40.9434 3.74914 43.7749 5.64903 46.1689 8.04211C48.5625 10.4348 50.4629 13.2648 51.7712 16.3707C52.2433 17.4916 51.6014 18.7389 50.4443 19.1147C49.2877 19.4904 48.0559 18.8517 47.5649 17.7395C46.4839 15.2908 44.9564 13.0572 43.0542 11.1557Z"
        fill="#90EB5B" />
    <path fill-rule="evenodd" clip-rule="evenodd"
        d="M17.847 7.16474C15.4503 8.38547 13.3073 10.0378 11.5223 12.0324C10.7113 12.9388 9.34175 13.1658 8.35769 12.4511C7.37362 11.7364 7.14876 10.3524 7.94418 9.43226C10.1486 6.88233 12.8309 4.77775 15.8473 3.24144C18.8637 1.70504 22.1439 0.772808 25.5035 0.488937C26.7154 0.386535 27.7031 1.38173 27.7031 2.59755C27.7031 3.81356 26.7144 4.78784 25.5042 4.911C22.8407 5.18207 20.2438 5.94401 17.847 7.16474Z"
        fill="#F7B94D" />
    <path fill-rule="evenodd" clip-rule="evenodd"
        d="M6.26059 29.8959C6.68138 32.5516 7.59115 35.0997 8.93731 37.413C9.549 38.4641 9.34175 39.8363 8.35768 40.551C7.37362 41.2657 5.98737 41.0517 5.35778 40.0112C3.61295 37.1275 2.43951 33.927 1.90994 30.5847C1.38033 27.2421 1.50701 23.8357 2.27511 20.5539C2.55219 19.3701 3.80423 18.7387 4.96098 19.1144C6.11791 19.4902 6.73933 20.7312 6.48254 21.9198C5.91737 24.5357 5.83979 27.2401 6.26059 29.8959Z"
        fill="#E67A81" />
    <path
        d="M21.4604 51.849C18.8982 51.2185 16.4461 50.2033 14.1882 48.8382C13.1471 48.2087 12.9331 46.8225 13.6482 45.8386C14.363 44.8551 15.7351 44.648 16.7864 45.2593C18.4674 46.2369 20.2724 46.9843 22.1526 47.4813C23.3285 47.7922 24.1526 48.9093 23.9623 50.1105C23.772 51.3112 22.6412 52.1396 21.4604 51.849Z"
        fill="#D39EDB" />
</svg>