<svg width="18" height="18" viewBox="0 0 18 18" fill="none" xmlns="http://www.w3.org/2000/svg">
<path d="M7.15554 17.185H7.13832C5.32354 16.8446 3.6747 15.9129 2.4524 14.5373C2.32923 14.3993 2.26628 14.2184 2.27738 14.0343C2.28848 13.8502 2.37273 13.678 2.51159 13.5556C2.65046 13.4333 2.83256 13.3707 3.01784 13.3817C3.20313 13.3928 3.37641 13.4765 3.49958 13.6145C4.5177 14.7606 5.89124 15.5368 7.40307 15.8205H7.42029C7.51257 15.8355 7.60086 15.8688 7.67997 15.9183C7.75908 15.9679 7.8274 16.0327 7.88087 16.1089C7.93435 16.1851 7.97191 16.2712 7.99133 16.3621C8.01075 16.4529 8.01163 16.5468 7.99393 16.638C7.97623 16.7292 7.9403 16.816 7.88827 16.8932C7.83624 16.9704 7.76916 17.0364 7.691 17.0874C7.61284 17.1384 7.52519 17.1733 7.43322 17.1901C7.34125 17.2068 7.24683 17.2051 7.15554 17.185V17.185Z" fill="currentColor"/>
<path d="M10.1551 17.1627C9.99607 17.1326 9.85251 17.0486 9.74885 16.9251C9.64519 16.8016 9.58784 16.6462 9.58657 16.4854C9.5853 16.3246 9.64019 16.1683 9.74189 16.0432C9.84359 15.9181 9.9858 15.8319 10.1443 15.7993C11.65 15.485 13.0108 14.6895 14.0188 13.5345C14.0788 13.4654 14.152 13.4087 14.2341 13.3677C14.3162 13.3267 14.4056 13.3022 14.4973 13.2955C14.5889 13.2889 14.681 13.3002 14.7682 13.3289C14.8554 13.3576 14.9361 13.4031 15.0057 13.4628C15.0752 13.5225 15.1322 13.5952 15.1735 13.6768C15.2147 13.7584 15.2394 13.8472 15.2461 13.9383C15.2528 14.0293 15.2414 14.1208 15.2125 14.2075C15.1836 14.2941 15.1378 14.3743 15.0778 14.4434C13.8695 15.828 12.2386 16.7819 10.4338 17.1595C10.342 17.1787 10.2473 17.1798 10.1551 17.1627V17.1627Z" fill="currentColor"/>
<path d="M1.32667 12.1851C1.20618 12.1622 1.0939 12.1081 1.00114 12.0283C0.90837 11.9485 0.83839 11.8459 0.798241 11.7307C0.315594 10.3473 0.208314 8.86209 0.487207 7.42446C0.556225 7.06936 0.647891 6.71899 0.761649 6.37544C0.790552 6.2888 0.836348 6.20866 0.896422 6.1396C0.956495 6.07054 1.02967 6.01392 1.11177 5.97296C1.19387 5.932 1.28328 5.90751 1.37491 5.90088C1.46653 5.89426 1.55857 5.90563 1.64578 5.93434C1.73298 5.96306 1.81363 6.00856 1.88314 6.06825C1.95264 6.12794 2.00963 6.20064 2.05086 6.28222C2.09208 6.36379 2.11673 6.45263 2.1234 6.54367C2.13007 6.63471 2.11863 6.72616 2.08972 6.8128C1.99468 7.0996 1.91811 7.39212 1.86048 7.68859C1.62821 8.88598 1.71767 10.123 2.11986 11.2751C2.15993 11.3905 2.1688 11.5142 2.14557 11.634C2.12233 11.7538 2.06782 11.8655 1.98748 11.9578C1.90715 12.05 1.80381 12.1197 1.68783 12.1598C1.57185 12.1999 1.44731 12.209 1.32667 12.1862V12.1851Z" fill="currentColor"/>
<path d="M15.8914 12.0789C15.8618 12.0734 15.8327 12.0659 15.8042 12.0564C15.7169 12.0279 15.6362 11.9825 15.5665 11.9229C15.4969 11.8633 15.4397 11.7907 15.3984 11.7092C15.357 11.6277 15.3322 11.5388 15.3254 11.4478C15.3186 11.3567 15.3299 11.2652 15.3587 11.1785C15.4523 10.8941 15.5277 10.6041 15.5847 10.3102C15.8182 9.11032 15.7283 7.87042 15.3242 6.71616C15.2922 6.62961 15.2778 6.5376 15.2819 6.44548C15.2861 6.35336 15.3086 6.26297 15.3482 6.17959C15.3878 6.0962 15.4437 6.02148 15.5127 5.95978C15.5817 5.89808 15.6623 5.85063 15.7499 5.8202C15.8375 5.78976 15.9303 5.77695 16.023 5.78251C16.1156 5.78808 16.2062 5.81189 16.2895 5.85259C16.3728 5.89328 16.4471 5.95002 16.5081 6.01953C16.5691 6.08903 16.6155 6.16989 16.6448 6.25741C17.1294 7.64358 17.2378 9.1322 16.959 10.5733C16.8902 10.9254 16.7993 11.2729 16.6867 11.6137C16.6338 11.7741 16.5238 11.9098 16.3774 11.9954C16.231 12.081 16.0582 12.1107 15.8914 12.0789Z" fill="currentColor"/>
<path d="M2.77427 4.68456C2.65471 4.6616 2.54335 4.60775 2.4514 4.52844C2.31149 4.40747 2.22556 4.23632 2.21245 4.05251C2.19934 3.8687 2.26011 3.68722 2.38144 3.54785C3.59123 2.16381 5.2238 1.21135 7.0297 0.836016C7.12018 0.816187 7.21372 0.814416 7.3049 0.830802C7.39607 0.847187 7.48306 0.881403 7.56082 0.931466C7.63857 0.98153 7.70555 1.04644 7.75784 1.12243C7.81014 1.19843 7.84672 1.28398 7.86547 1.37414C7.88422 1.4643 7.88475 1.55725 7.86704 1.64762C7.84934 1.73798 7.81374 1.82395 7.76231 1.90053C7.71089 1.97711 7.64467 2.04277 7.5675 2.09372C7.49032 2.14466 7.40373 2.17986 7.31275 2.19728C5.80726 2.51095 4.44649 3.30566 3.43831 4.46C3.35752 4.55246 3.25349 4.62197 3.13682 4.66142C3.02016 4.70088 2.89505 4.70886 2.77427 4.68456V4.68456Z" fill="currentColor"/>
<path d="M14.3309 4.60118C14.18 4.57266 14.043 4.49518 13.9413 4.3809C12.9236 3.23819 11.5522 2.46434 10.0432 2.18128C9.86056 2.14626 9.69929 2.04098 9.59446 1.88836C9.48964 1.73574 9.44976 1.54815 9.48351 1.36644C9.5003 1.27694 9.53473 1.19162 9.58482 1.11539C9.63492 1.03916 9.69968 0.973516 9.7754 0.922238C9.85111 0.870961 9.93627 0.835059 10.026 0.816597C10.1157 0.798136 10.2082 0.79748 10.2982 0.814665H10.3079C12.119 1.15515 13.7648 2.08431 14.9863 3.45592C15.0834 3.56452 15.1439 3.70062 15.1591 3.8451C15.1744 3.98959 15.1437 4.13519 15.0714 4.26145C14.999 4.3877 14.8887 4.48827 14.7559 4.54902C14.6231 4.60976 14.4744 4.62763 14.3309 4.60011V4.60118Z" fill="currentColor"/>
<path d="M6.77465 12.0089C6.44449 12.014 6.11922 11.9294 5.83402 11.764C5.55506 11.6008 5.32593 11.3653 5.17106 11.0829C5.00334 10.7764 4.91877 10.4318 4.92568 10.083V8.46725C4.91646 8.10211 5.00011 7.74057 5.1689 7.4161C5.32464 7.12526 5.56207 6.88564 5.85231 6.72637C6.16619 6.55868 6.51845 6.47468 6.87474 6.48256C7.13695 6.48118 7.39727 6.52682 7.64317 6.6173C7.88865 6.70865 8.10962 6.85502 8.28891 7.04504L7.64317 7.66846C7.54933 7.55729 7.43215 7.46787 7.29985 7.40647C7.16735 7.34271 7.02196 7.30979 6.87474 7.31023C6.68912 7.30623 6.50603 7.35349 6.34585 7.44676C6.18566 7.54002 6.05468 7.67563 5.96747 7.83848C5.8823 7.99317 5.83822 8.16689 5.8394 8.34321V9.22541L5.67581 9.0479C5.8281 8.87176 6.01677 8.73026 6.22899 8.633C6.44042 8.53419 6.67122 8.48307 6.90487 8.48329C7.21727 8.47696 7.52545 8.55572 7.79599 8.71106C8.05115 8.85955 8.26152 9.07338 8.40514 9.33021C8.55669 9.60414 8.63349 9.9127 8.62792 10.2252C8.63157 10.5438 8.54303 10.8567 8.37286 11.1267C8.20597 11.3933 7.97429 11.6139 7.69913 11.7683C7.41777 11.9282 7.09879 12.0112 6.77465 12.0089V12.0089ZM6.77465 11.1534C6.9414 11.1553 7.10563 11.1128 7.25034 11.0305C7.39173 10.9495 7.50992 10.8339 7.59366 10.6947C7.67897 10.5525 7.72328 10.3897 7.72173 10.2242C7.72334 10.0582 7.67984 9.89494 7.59581 9.75153C7.51328 9.6111 7.39627 9.49374 7.25572 9.41041C7.11265 9.32554 6.9488 9.28151 6.78218 9.28316C6.61492 9.28177 6.45044 9.32577 6.30648 9.41041C6.16522 9.49318 6.04774 9.61065 5.96532 9.75153C5.88129 9.89494 5.83779 10.0582 5.8394 10.2242C5.83797 10.3868 5.88073 10.5467 5.96316 10.6872C6.04475 10.8271 6.16111 10.9438 6.3011 11.0262C6.44362 11.1127 6.60764 11.1579 6.77465 11.1566V11.1534Z" fill="currentColor"/>
<path d="M11.0881 12.0087C10.5931 12.0087 10.1909 11.8983 9.88167 11.6773C9.72847 11.5681 9.59932 11.429 9.50216 11.2684C9.405 11.1079 9.34187 10.9294 9.31665 10.7437L10.2304 10.6036C10.2716 10.792 10.3831 10.9578 10.5425 11.0677C10.7224 11.1868 10.9356 11.2463 11.1516 11.2378C11.3274 11.2481 11.502 11.2036 11.651 11.1105C11.7072 11.0716 11.7527 11.0193 11.7834 10.9584C11.814 10.8975 11.8288 10.8299 11.8264 10.7619C11.8303 10.6837 11.8075 10.6065 11.7619 10.5427C11.6828 10.4655 11.5849 10.4102 11.4777 10.3823C11.3314 10.3299 11.1075 10.2657 10.8062 10.1866C10.5292 10.1196 10.2601 10.0239 10.0033 9.90109C9.82921 9.82101 9.68038 9.69531 9.57279 9.53751C9.48214 9.38336 9.43701 9.20696 9.44257 9.02851C9.43738 8.79655 9.50633 8.56893 9.63952 8.37835C9.77833 8.1873 9.96858 8.03905 10.1884 7.95062C10.4528 7.84567 10.7357 7.79476 11.0203 7.80091C11.3037 7.79579 11.5854 7.8448 11.8501 7.94527C12.0771 8.03009 12.2786 8.17106 12.4356 8.35483C12.5845 8.53267 12.6797 8.74884 12.71 8.97825L11.7963 9.14079C11.7882 9.06126 11.7634 8.9843 11.7236 8.91486C11.6837 8.84542 11.6297 8.78506 11.5649 8.73765C11.4085 8.63225 11.2244 8.57464 11.0354 8.5719C10.8601 8.55309 10.6831 8.58581 10.5263 8.66601C10.4679 8.69561 10.4189 8.74081 10.3849 8.79653C10.3509 8.85225 10.3331 8.91629 10.3337 8.98146C10.3325 9.05429 10.3604 9.12464 10.4112 9.17715C10.5032 9.25279 10.6103 9.30818 10.7254 9.33969C10.8826 9.39315 11.1172 9.46052 11.4293 9.53858C11.6952 9.60019 11.9526 9.69392 12.1956 9.81768C12.3671 9.89609 12.5108 10.0241 12.6079 10.1849C12.7051 10.3457 12.7512 10.5319 12.7401 10.7191C12.7478 10.9 12.7119 11.08 12.6353 11.2443C12.5587 11.4085 12.4438 11.5522 12.3 11.6634C12.0094 11.8936 11.6054 12.0087 11.0881 12.0087Z" fill="currentColor"/>
</svg>
