<svg width="59" height="53" viewBox="0 0 59 53" fill="none" xmlns="http://www.w3.org/2000/svg">
    <path
        d="M20.7824 50.3045H20.7306C15.2673 49.2703 10.3039 46.4466 6.62325 42.2788C6.42806 42.074 6.27613 41.832 6.17655 41.5672C6.07696 41.3023 6.03176 41.0202 6.04363 40.7375C6.05551 40.4548 6.12421 40.1774 6.24565 39.9219C6.3671 39.6663 6.53879 39.4379 6.75046 39.2502C6.96214 39.0624 7.20947 38.9193 7.47769 38.8293C7.74592 38.7392 8.02952 38.7042 8.31159 38.7262C8.59366 38.7482 8.86841 38.8268 9.11943 38.9573C9.37045 39.0878 9.5926 39.2676 9.77261 39.4859C12.84 42.9552 16.9743 45.3057 21.5244 46.1669H21.5795C22.1282 46.2726 22.6124 46.5919 22.9256 47.0547C23.2389 47.5174 23.3554 48.0856 23.2497 48.6343C23.144 49.1829 22.8247 49.6671 22.362 49.9804C21.8993 50.2936 21.3311 50.4102 20.7824 50.3045Z"
        fill="#CD94D6" />
    <path
        d="M3.23416 35.1539C2.87119 35.0839 2.53295 34.9199 2.25321 34.6782C1.97348 34.4366 1.76204 34.1258 1.64003 33.7768C-0.178243 28.5268 -0.215817 22.824 1.53311 17.5505C1.61318 17.2801 1.74674 17.0285 1.92587 16.8107C2.105 16.5928 2.32605 16.4132 2.57592 16.2824C2.82578 16.1517 3.09937 16.0724 3.38044 16.0494C3.66151 16.0263 3.94436 16.06 4.21219 16.1483C4.48001 16.2366 4.72736 16.3779 4.93957 16.5636C5.15179 16.7494 5.32454 16.9758 5.44758 17.2296C5.57061 17.4833 5.64142 17.7592 5.65582 18.0409C5.67021 18.3225 5.6279 18.6042 5.53138 18.8692C4.07774 23.265 4.10849 28.0167 5.61887 32.3933C5.74034 32.7425 5.76775 33.1175 5.69835 33.4807C5.62894 33.8438 5.46516 34.1823 5.22348 34.4621C4.98179 34.7418 4.67071 34.9531 4.32151 35.0745C3.97231 35.1959 3.59729 35.2233 3.23416 35.1539Z"
        fill="#E26F76" />
    <path
        d="M47.0822 34.8299C46.9923 34.8129 46.9035 34.7902 46.8165 34.7618C46.5538 34.6757 46.3108 34.5385 46.1012 34.3583C45.8915 34.1781 45.7195 33.9583 45.5949 33.7115C45.4703 33.4648 45.3956 33.1958 45.3751 32.9202C45.3545 32.6445 45.3885 32.3675 45.4751 32.105C45.7587 31.2434 45.9871 30.3646 46.1588 29.474C46.8593 25.838 46.5877 22.0815 45.3714 18.5841C45.1871 18.0565 45.2199 17.4772 45.4627 16.9738C45.7054 16.4704 46.1382 16.084 46.6659 15.8997C47.1935 15.7153 47.7727 15.7482 48.2761 15.9909C48.7796 16.2337 49.1659 16.6665 49.3503 17.1941C50.8096 21.3941 51.136 25.9047 50.2964 30.2711C50.0892 31.337 49.8154 32.3888 49.4766 33.4204C49.3172 33.9064 48.9861 34.3175 48.5454 34.5769C48.1046 34.8364 47.5844 34.9263 47.0822 34.8299Z"
        fill="#61D0E1" />
    <path
        d="M7.58884 12.4279C7.22416 12.36 6.88389 12.197 6.60243 11.9554C6.32098 11.7138 6.10835 11.4021 5.98603 11.0519C5.86371 10.7017 5.83605 10.3254 5.90585 9.96112C5.97565 9.59681 6.14043 9.25739 6.38352 8.97721C10.0284 4.78517 14.9438 1.89965 20.3807 0.760355C20.9281 0.647354 21.498 0.75643 21.9649 1.06359C22.4319 1.37075 22.7577 1.85083 22.8707 2.39822C22.9837 2.94561 22.8746 3.51546 22.5675 3.98243C22.2603 4.44939 21.7802 4.77522 21.2328 4.88822C16.7016 5.83581 12.605 8.24029 9.56853 11.7345C9.3277 12.0127 9.01828 12.2231 8.67099 12.3447C8.3237 12.4664 7.95063 12.495 7.58884 12.4279Z"
        fill="#F6B043" />
    <path
        d="M42.3841 12.1719C41.9297 12.0862 41.517 11.8513 41.2112 11.5044C38.146 8.04374 34.0179 5.69937 29.4756 4.83957C29.1997 4.79352 28.9357 4.69295 28.699 4.54373C28.4624 4.39452 28.2578 4.19966 28.0973 3.97052C27.9368 3.74138 27.8236 3.48255 27.7642 3.20916C27.7048 2.93578 27.7005 2.6533 27.7516 2.37823C27.8026 2.10316 27.9079 1.84101 28.0613 1.60709C28.2148 1.37317 28.4133 1.17216 28.6453 1.01581C28.8773 0.859454 29.1381 0.750886 29.4125 0.696446C29.6869 0.642007 29.9694 0.642789 30.2435 0.69874H30.2694C35.7232 1.7277 40.6795 4.54213 44.3573 8.69851C44.6497 9.02756 44.8317 9.43994 44.8776 9.87772C44.9235 10.3155 44.8311 10.7567 44.6134 11.1392C44.3957 11.5218 44.0635 11.8265 43.6637 12.0106C43.2638 12.1946 42.8163 12.2488 42.3841 12.1654V12.1719Z"
        fill="#85E851" />
    <path
        d="M19.2952 33.8741C18.3108 33.8931 17.34 33.6414 16.4887 33.1467C15.6374 32.6519 14.9383 31.9329 14.4675 31.0681C13.9626 30.1395 13.708 29.0955 13.7288 28.0386V23.1429C13.701 22.0365 13.9529 20.941 14.461 19.9579C14.929 19.076 15.644 18.3497 16.5185 17.868C17.4634 17.3599 18.5239 17.1054 19.5966 17.1293C20.387 17.1253 21.1717 17.2636 21.9132 17.5375C22.6521 17.8147 23.3172 18.2582 23.8573 18.8336L21.9132 20.7225C21.6288 20.3864 21.2751 20.1156 20.8764 19.9287C20.4726 19.7331 20.0291 19.6333 19.5804 19.6371C19.0212 19.6231 18.4693 19.7655 17.9867 20.0483C17.5041 20.3311 17.1101 20.743 16.849 21.2377C16.5941 21.707 16.4615 22.233 16.4634 22.767V25.4401L15.9709 24.9022C16.4301 24.3693 16.9979 23.9406 17.6363 23.6451C18.2729 23.346 18.9677 23.1911 19.6711 23.1915C20.6111 23.1729 21.5385 23.4104 22.3539 23.8784C23.1215 24.3304 23.7546 24.9792 24.1878 25.7576C24.644 26.5876 24.8752 27.5226 24.8585 28.4696C24.8691 29.4343 24.6038 30.382 24.0938 31.201C23.5905 32.0092 22.8919 32.6777 22.0623 33.145C21.2203 33.6276 20.2657 33.879 19.2952 33.8741ZM19.2952 31.282C19.7973 31.2875 20.2917 31.1589 20.7274 30.9094C21.1537 30.6649 21.5098 30.3144 21.7609 29.892C22.0178 29.4611 22.1512 28.9679 22.1465 28.4663C22.1519 27.9635 22.0209 27.4686 21.7674 27.0342C21.5196 26.6082 21.1672 26.2524 20.7436 26.0006C20.3103 25.7482 19.8178 25.6152 19.3163 25.6152C18.8148 25.6152 18.3223 25.7482 17.8891 26.0006C17.4621 26.2504 17.1071 26.6065 16.8587 27.0342C16.6053 27.4686 16.4743 27.9635 16.4796 28.4663C16.4758 28.9589 16.6045 29.4435 16.8522 29.8693C17.0978 30.2931 17.4481 30.6468 17.8696 30.8964C18.2995 31.1567 18.7927 31.2934 19.2952 31.2917V31.282Z"
        fill="currentColor" />
    <path
        d="M32.2847 33.874C30.7943 33.874 29.5836 33.5392 28.6526 32.8696C28.1919 32.5383 27.8035 32.1166 27.511 31.6303C27.2186 31.144 27.0282 30.6033 26.9516 30.041L29.7121 29.6166C29.8363 30.1872 30.1721 30.6896 30.6518 31.0228C31.1935 31.3835 31.8353 31.5638 32.4856 31.5379C33.0148 31.5698 33.5406 31.435 33.989 31.1524C34.1587 31.0346 34.2962 30.8763 34.389 30.6918C34.4818 30.5073 34.527 30.3025 34.5204 30.0961C34.5292 29.864 34.4596 29.6357 34.3228 29.4481C34.0849 29.2142 33.79 29.0467 33.4674 28.9621C33.03 28.8033 32.3528 28.6057 31.4456 28.3691C30.6122 28.1669 29.8029 27.8757 29.0317 27.5008C28.5076 27.2597 28.0594 26.8799 27.7357 26.4024C27.4626 25.9342 27.3268 25.3986 27.3436 24.8569C27.3287 24.1551 27.5362 23.4667 27.9365 22.8901C28.3551 22.3105 28.9291 21.8612 29.5922 21.5941C30.3869 21.2759 31.2377 21.1216 32.0936 21.1405C32.9476 21.1253 33.7967 21.2738 34.5949 21.5779C35.2771 21.8358 35.8825 22.2628 36.3543 22.8189C36.8028 23.3577 37.0893 24.0127 37.1805 24.7078L34.4329 25.1776C34.407 24.9372 34.3314 24.7047 34.2109 24.495C34.0904 24.2853 33.9277 24.1029 33.7331 23.9594C33.2627 23.6386 32.7082 23.4639 32.1389 23.4572C31.6122 23.3998 31.0803 23.499 30.6096 23.7423C30.4329 23.8312 30.2845 23.9679 30.1814 24.1369C30.0784 24.3058 30.0246 24.5002 30.0264 24.6981C30.0243 24.8077 30.0442 24.9166 30.0848 25.0184C30.1255 25.1203 30.186 25.213 30.2629 25.291C30.5382 25.5211 30.8598 25.6891 31.2058 25.7835C31.6788 25.9455 32.3852 26.1464 33.3248 26.3862C34.125 26.5729 34.8996 26.8557 35.6318 27.2286C36.1454 27.4866 36.579 27.8798 36.8857 28.3659C37.1548 28.8543 37.2879 29.4059 37.2712 29.9633C37.2952 30.5113 37.1873 31.0572 36.9567 31.555C36.7262 32.0528 36.3796 32.488 35.946 32.8242C35.0626 33.5241 33.8422 33.874 32.2847 33.874Z"
        fill="currentColor" />
    <path
        d="M27.9182 48.8266C27.5946 49.2427 27.4289 49.6434 27.4212 50.0287C27.4135 50.4139 27.5253 50.7414 27.7564 51.0111C27.9876 51.2731 28.292 51.4349 28.6695 51.4966C29.0548 51.5582 29.4632 51.4696 29.8948 51.2307L37.7314 46.9194L46.4003 51.6931C46.9166 51.9782 47.4021 52.1208 47.8567 52.1208C48.5579 52.1208 49.1936 51.774 49.7639 51.0805L57.6352 41.2673C57.9435 40.8897 58.0976 40.5121 58.0976 40.1346C58.1053 39.7493 57.9974 39.4179 57.7739 39.1405C57.5582 38.8631 57.2615 38.6897 56.8839 38.6204C56.5141 38.5433 56.1018 38.6242 55.6472 38.8631L47.8105 43.186L39.1531 38.4239C38.6292 38.1311 38.136 37.9847 37.6736 37.9847C36.9801 37.9847 36.3521 38.3353 35.7896 39.0365L27.9182 48.8266Z"
        fill="#0B69AF" />
</svg>