<svg width="51" height="51" viewBox="0 0 51 51" fill="none" xmlns="http://www.w3.org/2000/svg">
    <g clip-path="url(#clip0_1925_10273)">
        <path
            d="M20.8291 50.0589H20.7778C15.3686 49.0349 10.4543 46.2392 6.81015 42.1127C6.61689 41.9099 6.46647 41.6703 6.36787 41.4081C6.26927 41.1459 6.22452 40.8665 6.23627 40.5866C6.24803 40.3067 6.31606 40.0321 6.43629 39.7791C6.55653 39.5261 6.72652 39.2999 6.93611 39.114C7.14569 38.9282 7.39057 38.7864 7.65613 38.6973C7.9217 38.6081 8.2025 38.5734 8.48178 38.5952C8.76106 38.617 9.03308 38.6948 9.28162 38.8241C9.53015 38.9533 9.7501 39.1313 9.92833 39.3474C12.9653 42.7824 17.0587 45.1096 21.5638 45.9623H21.6183C22.1615 46.067 22.641 46.3831 22.9511 46.8412C23.2612 47.2994 23.3767 47.862 23.272 48.4052C23.1674 48.9484 22.8512 49.4279 22.3931 49.738C21.9349 50.0481 21.3724 50.1636 20.8291 50.0589V50.0589Z"
            fill="#CD94D6" />
        <path
            d="M29.7666 49.9884C29.2927 49.898 28.8648 49.6461 28.5558 49.2756C28.2469 48.9051 28.0759 48.4389 28.0721 47.9564C28.0683 47.474 28.2319 47.0052 28.5351 46.6298C28.8382 46.2545 29.2621 45.996 29.7346 45.8982C34.2235 44.9568 38.2801 42.5701 41.2834 39.1036C41.4624 38.8963 41.6806 38.7263 41.9253 38.6034C42.17 38.4804 42.4366 38.4068 42.7097 38.3869C42.9829 38.3669 43.2573 38.4009 43.5173 38.487C43.7774 38.5731 44.0179 38.7096 44.2251 38.8886C44.4324 39.0677 44.6024 39.2858 44.7253 39.5305C44.8483 39.7753 44.9219 40.0418 44.9419 40.315C44.9618 40.5882 44.9278 40.8626 44.8417 41.1226C44.7556 41.3826 44.6191 41.6231 44.4401 41.8304C40.8381 45.9875 35.9739 48.8506 30.5911 49.9819C30.3195 50.0395 30.0391 50.0416 29.7666 49.9884V49.9884Z"
            fill="#7D87E3" />
        <path
            d="M3.4546 35.0583C3.09522 34.989 2.76033 34.8266 2.48336 34.5874C2.2064 34.3481 1.99705 34.0404 1.87625 33.6949C0.0759806 28.4969 0.0387781 22.8505 1.77039 17.6292C1.84966 17.3614 1.9819 17.1124 2.15926 16.8967C2.33662 16.681 2.55548 16.5032 2.80287 16.3737C3.05026 16.2442 3.32114 16.1658 3.59943 16.1429C3.87772 16.1201 4.15777 16.1534 4.42294 16.2409C4.68811 16.3284 4.93301 16.4682 5.14313 16.6521C5.35324 16.836 5.52428 17.0602 5.6461 17.3115C5.76792 17.5627 5.83803 17.8359 5.85228 18.1147C5.86653 18.3936 5.82464 18.6725 5.72907 18.9348C4.28983 23.2871 4.32027 27.9918 5.81569 32.3251C5.93597 32.6708 5.9631 33.0421 5.89439 33.4016C5.82567 33.7612 5.66351 34.0963 5.42422 34.3733C5.18492 34.6503 4.87692 34.8595 4.53118 34.9797C4.18544 35.0999 3.81413 35.127 3.4546 35.0583V35.0583Z"
            fill="#E26F76" />
        <path
            d="M46.8418 34.2032C46.7528 34.1864 46.6649 34.1639 46.5787 34.1358C46.3187 34.0505 46.078 33.9147 45.8705 33.7363C45.6629 33.5579 45.4926 33.3403 45.3692 33.0959C45.2459 32.8516 45.1719 32.5853 45.1516 32.3124C45.1312 32.0395 45.1649 31.7652 45.2506 31.5053C45.5314 30.6522 45.7575 29.7822 45.9275 28.9004C46.6211 25.3004 46.3522 21.5811 45.148 18.1183C44.9655 17.5959 44.998 17.0224 45.2383 16.5239C45.4787 16.0255 45.9072 15.6429 46.4296 15.4604C46.952 15.2779 47.5255 15.3104 48.0239 15.5508C48.5224 15.7911 48.9049 16.2196 49.0874 16.742C50.5323 20.9005 50.8554 25.3664 50.0242 29.6895C49.8191 30.7449 49.548 31.7863 49.2125 32.8077C49.0546 33.2888 48.7268 33.6959 48.2905 33.9528C47.8541 34.2096 47.3391 34.2987 46.8418 34.2032V34.2032Z"
            fill="#61D0E1" />
        <path
            d="M7.76614 12.5573C7.40508 12.4901 7.06817 12.3287 6.7895 12.0895C6.51084 11.8503 6.30031 11.5417 6.1792 11.195C6.05809 10.8482 6.0307 10.4757 6.09981 10.115C6.16892 9.75426 6.33207 9.41821 6.57276 9.1408C10.1815 4.99026 15.0483 2.13332 20.4314 1.0053C20.9733 0.893419 21.5375 1.00141 21.9999 1.30553C22.4622 1.60965 22.7848 2.08498 22.8967 2.62695C23.0086 3.16892 22.9006 3.73313 22.5965 4.19547C22.2924 4.65781 21.817 4.98042 21.2751 5.0923C16.7887 6.0305 12.7326 8.41118 9.72623 11.8708C9.48778 12.1463 9.18142 12.3546 8.83757 12.475C8.49372 12.5954 8.12435 12.6238 7.76614 12.5573V12.5573Z"
            fill="#F6B043" />
        <path
            d="M42.2169 12.3038C41.7671 12.219 41.3584 11.9864 41.0556 11.643C38.0208 8.21658 33.9336 5.89542 29.4363 5.04414C29.163 4.99854 28.9016 4.89896 28.6673 4.75123C28.433 4.60349 28.2305 4.41056 28.0716 4.18369C27.9127 3.95682 27.8006 3.70056 27.7418 3.42987C27.683 3.15919 27.6788 2.87951 27.7293 2.60717C27.7798 2.33482 27.884 2.07527 28.036 1.84366C28.1879 1.61205 28.3844 1.41304 28.6141 1.25823C28.8438 1.10343 29.1021 0.995935 29.3738 0.942035C29.6454 0.888134 29.9252 0.888909 30.1966 0.944306H30.2222C35.6219 1.96308 40.5292 4.74964 44.1706 8.86487C44.4601 9.19066 44.6403 9.59896 44.6857 10.0324C44.7312 10.4659 44.6397 10.9027 44.4242 11.2814C44.2086 11.6602 43.8797 11.9619 43.4838 12.1441C43.0879 12.3264 42.6449 12.38 42.2169 12.2974V12.3038Z"
            fill="#85E851" />
        <path
            d="M19.3567 33.7911C18.382 33.81 17.4208 33.5608 16.578 33.071C15.7351 32.5811 15.0429 31.8692 14.5768 31.013C14.0768 30.0936 13.8248 29.0599 13.8453 28.0135V23.1662C13.8179 22.0708 14.0672 20.9862 14.5703 20.0127C15.0337 19.1396 15.7416 18.4205 16.6074 17.9436C17.543 17.4405 18.593 17.1885 19.655 17.2122C20.4377 17.2082 21.2146 17.3452 21.9488 17.6164C22.6803 17.8908 23.3388 18.3299 23.8736 18.8996L21.9488 20.7698C21.6671 20.437 21.317 20.1689 20.9222 19.9839C20.5224 19.7902 20.0832 19.6914 19.639 19.6951C19.0854 19.6813 18.5389 19.8223 18.0611 20.1023C17.5833 20.3823 17.1931 20.7901 16.9346 21.2799C16.6823 21.7446 16.551 22.2653 16.5529 22.7941V25.4407L16.0653 24.9082C16.5199 24.3805 17.0821 23.9561 17.7142 23.6635C18.3445 23.3673 19.0324 23.214 19.7288 23.2143C20.6595 23.196 21.5777 23.4311 22.385 23.8944C23.1451 24.342 23.7719 24.9844 24.2008 25.7551C24.6525 26.5769 24.8814 27.5026 24.8648 28.4402C24.8754 29.3954 24.6127 30.3337 24.1077 31.1445C23.6094 31.9448 22.9177 32.6067 22.0963 33.0693C21.2626 33.5471 20.3175 33.7961 19.3567 33.7911V33.7911ZM19.3567 31.2247C19.8538 31.2302 20.3433 31.1029 20.7746 30.8558C21.1968 30.6137 21.5493 30.2668 21.798 29.8485C22.0523 29.4219 22.1843 28.9336 22.1797 28.437C22.185 27.9391 22.0553 27.4491 21.8044 27.019C21.5591 26.5972 21.2101 26.245 20.7907 25.9957C20.3617 25.7457 19.874 25.614 19.3775 25.614C18.881 25.614 18.3934 25.7457 17.9644 25.9957C17.5417 26.243 17.1902 26.5956 16.9443 27.019C16.6934 27.4491 16.5637 27.9391 16.5689 28.437C16.5652 28.9247 16.6926 29.4045 16.9379 29.826C17.181 30.2457 17.5279 30.5958 17.9452 30.843C18.3708 31.1007 18.8592 31.2361 19.3567 31.2344V31.2247Z"
            fill="currentColor" />
        <path
            d="M32.2176 33.7911C30.7419 33.7911 29.5432 33.4596 28.6214 32.7966C28.1653 32.4686 27.7807 32.0511 27.4911 31.5696C27.2016 31.0882 27.0131 30.5528 26.9372 29.9961L29.6704 29.5758C29.7934 30.1408 30.1258 30.6383 30.6007 30.9681C31.1371 31.3252 31.7726 31.5037 32.4165 31.4782C32.9404 31.5097 33.461 31.3762 33.905 31.0964C34.073 30.9798 34.2091 30.823 34.301 30.6404C34.3929 30.4577 34.4376 30.255 34.4311 30.0506C34.4398 29.8208 34.3709 29.5948 34.2354 29.409C33.9999 29.1775 33.708 29.0116 33.3885 28.9278C32.9554 28.7706 32.2849 28.5749 31.3867 28.3407C30.5616 28.1405 29.7603 27.8522 28.9967 27.481C28.4778 27.2423 28.0341 26.8662 27.7135 26.3935C27.4432 25.9299 27.3087 25.3996 27.3254 24.8633C27.3106 24.1685 27.5161 23.4868 27.9124 22.916C28.3268 22.3421 28.8951 21.8972 29.5517 21.6328C30.3385 21.3177 31.1809 21.1649 32.0283 21.1837C32.8739 21.1686 33.7146 21.3156 34.5049 21.6167C35.1803 21.8721 35.7797 22.2949 36.2468 22.8454C36.6909 23.3789 36.9745 24.0274 37.0649 24.7157L34.3445 25.1808C34.3188 24.9428 34.2439 24.7126 34.1247 24.505C34.0054 24.2973 33.8443 24.1167 33.6515 23.9746C33.1859 23.6571 32.6368 23.4841 32.0732 23.4774C31.5517 23.4206 31.0251 23.5188 30.559 23.7597C30.384 23.8478 30.2371 23.9831 30.1351 24.1504C30.033 24.3176 29.9798 24.5101 29.9816 24.7061C29.9795 24.8146 29.9992 24.9224 30.0394 25.0232C30.0797 25.124 30.1396 25.2158 30.2158 25.2931C30.4883 25.5209 30.8067 25.6872 31.1493 25.7807C31.6177 25.9411 32.317 26.14 33.2473 26.3774C34.0396 26.5622 34.8065 26.8423 35.5314 27.2115C36.04 27.4669 36.4693 27.8562 36.7729 28.3375C37.0394 28.8211 37.1712 29.3672 37.1547 29.9191C37.1784 30.4617 37.0716 31.0022 36.8433 31.495C36.615 31.9879 36.2718 32.4188 35.8426 32.7517C34.9679 33.4447 33.7596 33.7911 32.2176 33.7911Z"
            fill="currentColor" />
    </g>
    <defs>
        <clipPath id="clip0_1925_10273">
            <rect width="50" height="49.1884" fill="white" transform="translate(0.5 0.905823)" />
        </clipPath>
    </defs>
</svg>