<svg width="103" height="104" viewBox="0 0 103 104" fill="none" xmlns="http://www.w3.org/2000/svg">
<path d="M42.6582 103.157H42.5555C31.7367 101.03 21.907 95.207 14.6202 86.6094C13.886 85.7471 13.5106 84.6163 13.5768 83.4657C13.643 82.3151 14.1453 81.239 14.9731 80.4741C15.801 79.7093 16.8866 79.3183 17.9911 79.3872C19.0957 79.4562 20.1287 79.9794 20.863 80.8417C26.9326 88.0049 35.121 92.8565 44.1339 94.6295H44.2365C44.7866 94.7235 45.313 94.9314 45.7846 95.241C46.2562 95.5506 46.6635 95.9555 46.9823 96.4318C47.3011 96.9081 47.525 97.4462 47.6408 98.0142C47.7565 98.5821 47.7618 99.1686 47.6563 99.7387C47.5508 100.309 47.3366 100.851 47.0264 101.334C46.7162 101.816 46.3163 102.229 45.8504 102.548C45.3844 102.866 44.8619 103.085 44.3136 103.189C43.7653 103.294 43.2024 103.283 42.6582 103.157V103.157Z" fill="#D39EDB"/>
<path d="M60.5396 103.017C59.5918 102.829 58.736 102.304 58.118 101.532C57.5 100.76 57.1581 99.7893 57.1505 98.7842C57.143 97.7791 57.4702 96.8024 58.0765 96.0205C58.6828 95.2386 59.5306 94.6999 60.4754 94.4961C69.452 92.5316 77.5644 87.56 83.5731 80.3408C83.9312 79.909 84.3674 79.5549 84.8569 79.2987C85.3464 79.0425 85.8795 78.8892 86.4258 78.8476C86.9722 78.806 87.521 78.877 88.041 79.0563C88.5611 79.2357 89.0421 79.52 89.4566 79.893C89.8712 80.266 90.2111 80.7204 90.457 81.2303C90.703 81.7402 90.8501 82.2955 90.8901 82.8646C90.93 83.4337 90.8619 84.0054 90.6897 84.5471C90.5175 85.0888 90.2446 85.5898 89.8865 86.0216C82.6835 94.6753 72.9607 100.637 62.2014 102.997C61.6541 103.118 61.0894 103.124 60.5396 103.017V103.017Z" fill="#8892E7"/>
<path d="M7.9091 71.9064C7.19077 71.7629 6.52142 71.4248 5.9684 70.9261C5.41537 70.4275 4.99818 69.7859 4.75883 69.066C1.88151 60.4202 1.24196 51.1373 2.9046 42.1521C3.31605 39.9328 3.86252 37.7429 4.54069 35.5958C4.713 35.0542 4.98601 34.5534 5.34414 34.1218C5.70227 33.6901 6.1385 33.3362 6.62793 33.0802C7.11737 32.8242 7.65043 32.6712 8.19665 32.6297C8.74288 32.5883 9.29158 32.6594 9.81144 32.8389C10.3313 33.0184 10.8121 33.3028 11.2265 33.6758C11.6408 34.0489 11.9806 34.5033 12.2264 35.0131C12.4721 35.5229 12.6191 36.0782 12.6588 36.6472C12.6986 37.2162 12.6304 37.7877 12.458 38.3293C11.8914 40.1217 11.435 41.95 11.0914 43.8029C9.70673 51.2866 10.2401 59.0183 12.6377 66.2189C12.8766 66.9397 12.9295 67.7132 12.791 68.462C12.6525 69.2108 12.3275 69.9086 11.8485 70.4853C11.3696 71.062 10.7536 71.4975 10.0622 71.7481C9.37076 71.9987 8.62827 72.0556 7.9091 71.9131V71.9064Z" fill="#E67A81"/>
<path d="M94.737 71.2445C94.5608 71.2104 94.3872 71.1635 94.2173 71.1041C93.6969 70.9257 93.2154 70.6421 92.8003 70.2697C92.3851 69.8974 92.0445 69.4434 91.7978 68.9339C91.5512 68.4243 91.4033 67.8691 91.3627 67.3C91.322 66.7309 91.3895 66.1591 91.5611 65.6171C92.1191 63.8394 92.5691 62.0268 92.9084 60.1902C94.3006 52.691 93.765 44.9416 91.3558 37.7275C91.1648 37.1866 91.0792 36.6115 91.1037 36.0357C91.1283 35.46 91.2626 34.8951 91.4987 34.3739C91.7349 33.8528 92.0683 33.3858 92.4795 33.0002C92.8906 32.6145 93.3713 32.318 93.8936 32.1278C94.4159 31.9375 94.9692 31.8575 95.5215 31.8922C96.0738 31.927 96.6139 32.0759 97.1103 32.3302C97.6068 32.5845 98.0498 32.9392 98.4134 33.3736C98.777 33.8079 99.0539 34.3134 99.2282 34.8603C102.118 43.5239 102.764 52.8278 101.102 61.8343C100.691 64.0352 100.149 66.207 99.4784 68.3372C99.1627 69.3395 98.507 70.1876 97.6343 70.7228C96.7616 71.2579 95.7315 71.4434 94.737 71.2445V71.2445Z" fill="#6CD6E5"/>
<path d="M16.5387 25.0293C15.826 24.8858 15.1621 24.5492 14.6139 24.0535C13.7798 23.2975 13.2676 22.2278 13.1894 21.0789C13.1112 19.9301 13.4735 18.7959 14.1969 17.9248C21.4091 9.27455 31.1417 3.32169 41.9076 0.975866C42.447 0.851931 43.0047 0.840864 43.5482 0.943273C44.0918 1.04568 44.6104 1.25953 45.0739 1.57243C45.5374 1.88533 45.9367 2.29103 46.2485 2.76598C46.5603 3.24093 46.7783 3.77567 46.8901 4.33914C47.0018 4.90261 47.005 5.4836 46.8995 6.04836C46.7939 6.61313 46.5817 7.15042 46.2751 7.62905C45.9686 8.10768 45.5738 8.5181 45.1137 8.83649C44.6536 9.15488 44.1374 9.37491 43.5951 9.48378C34.62 11.4442 26.5077 16.4111 20.4974 23.6257C20.0158 24.2037 19.3956 24.6381 18.7001 24.8847C18.0046 25.1312 17.2588 25.1811 16.5387 25.0293V25.0293Z" fill="#F7B94D"/>
<path d="M85.4339 24.5079C84.5346 24.3296 83.7177 23.8454 83.1113 23.1311C77.0443 15.9892 68.8687 11.1526 59.8724 9.38346C58.7839 9.16462 57.8225 8.5066 57.1976 7.55272C56.5727 6.59885 56.3349 5.4264 56.5361 4.29076C56.6362 3.73138 56.8415 3.19813 57.1401 2.72167C57.4387 2.24522 57.8248 1.83496 58.2762 1.51448C58.7276 1.19399 59.2353 0.969605 59.7702 0.85422C60.3051 0.738836 60.8566 0.734739 61.393 0.842146H61.4508C72.248 2.97019 82.0594 8.77741 89.3412 17.35C89.9202 18.0287 90.2805 18.8794 90.3715 19.7824C90.4624 20.6854 90.2795 21.5954 89.8483 22.3845C89.4171 23.1736 88.7594 23.8022 87.9676 24.1818C87.1758 24.5615 86.2897 24.6732 85.4339 24.5012V24.5079Z" fill="#90EB5B"/>
<path d="M40.3872 70.8063C38.4189 70.8385 36.4798 70.3092 34.7796 69.2759C33.1166 68.2555 31.7506 66.7841 30.8273 65.0186C29.8274 63.1031 29.3233 60.9496 29.3644 58.7696V48.6711C29.3095 46.389 29.8082 44.1293 30.8145 42.1014C31.7429 40.2836 33.1583 38.786 34.8886 37.7906C36.7598 36.7425 38.8598 36.2175 40.9838 36.2668C42.5471 36.2581 44.0989 36.5434 45.5649 37.1089C47.0283 37.6798 48.3457 38.5947 49.4145 39.7822L45.5649 43.6786C45.0055 42.9838 44.3069 42.425 43.5182 42.0412C42.7283 41.6427 41.8615 41.437 40.9838 41.4397C39.8773 41.4147 38.7858 41.7101 37.8309 42.293C36.8759 42.8759 36.095 43.7234 35.5751 44.7413C35.0674 45.7081 34.8046 46.7938 34.8116 47.8958V53.4096L33.8364 52.3002C34.7443 51.1993 35.869 50.3149 37.1342 49.707C38.3947 49.0894 39.7706 48.7699 41.1635 48.7714C43.0259 48.7317 44.8631 49.224 46.476 50.1949C47.9971 51.123 49.2512 52.4594 50.1074 54.0646C51.0109 55.7767 51.4687 57.7051 51.4355 59.6585C51.4573 61.6495 50.9295 63.6051 49.9149 65.2926C48.9201 66.9589 47.5389 68.3378 45.8985 69.3026C44.2211 70.3021 42.3195 70.821 40.3872 70.8063ZM40.3872 65.4597C41.3813 65.4711 42.3603 65.2058 43.223 64.6911C44.0659 64.1848 44.7705 63.4624 45.2697 62.5925C45.7783 61.7038 46.0425 60.6865 46.0332 59.6518C46.0429 58.6147 45.7835 57.5941 45.2826 56.6978C44.7905 55.8201 44.093 55.0866 43.2551 54.5658C42.4022 54.0354 41.4254 53.7602 40.4321 53.7705C39.4349 53.7618 38.4544 54.0368 37.5962 54.5658C36.754 55.0831 36.0537 55.8173 35.5623 56.6978C35.0614 57.5941 34.802 58.6147 34.8116 59.6518C34.8031 60.6681 35.058 61.6678 35.5495 62.5457C36.0358 63.4199 36.7295 64.1495 37.5641 64.6644C38.4137 65.2051 39.3916 65.4875 40.3872 65.4797V65.4597Z" fill="#031723"/>
<path d="M64.7274 71.6694C61.776 71.6694 59.3786 70.9788 57.535 69.5976C56.6217 68.9153 55.8518 68.0459 55.2726 67.0426C54.6933 66.0393 54.317 64.9233 54.1666 63.763L59.6138 62.8875C59.8598 64.0646 60.5246 65.101 61.4745 65.7881C62.5472 66.5321 63.8182 66.904 65.1059 66.8508C66.1536 66.9157 67.1946 66.6376 68.083 66.0554C68.4182 65.8122 68.6895 65.4854 68.8722 65.1048C69.0549 64.7242 69.1431 64.3019 69.1288 63.8767C69.1518 63.3879 69.0162 62.9053 68.7438 62.5066C68.2728 62.0242 67.6889 61.6786 67.05 61.5041C66.1774 61.1766 64.8429 60.7756 63.0464 60.281C61.3954 59.8623 59.7912 59.2642 58.26 58.4966C57.2223 57.9961 56.335 57.2105 55.6936 56.2242C55.1532 55.2608 54.8842 54.1583 54.9173 53.043C54.8864 51.5932 55.2974 50.1706 56.0914 48.9795C56.919 47.7854 58.0531 46.8588 59.3636 46.3062C60.9396 45.6502 62.6264 45.332 64.3232 45.3705C66.0124 45.3385 67.6917 45.6448 69.2699 46.2727C70.6234 46.8029 71.8247 47.6839 72.7602 48.8325C73.6484 49.9439 74.2157 51.295 74.3963 52.7288L68.9491 53.7447C68.9009 53.2477 68.7533 52.7666 68.5157 52.3326C68.2781 51.8987 67.9558 51.5214 67.5697 51.2251C66.637 50.5663 65.5397 50.2062 64.413 50.1892C63.368 50.0716 62.3128 50.2761 61.3782 50.7773C61.0298 50.9623 60.7378 51.2448 60.535 51.5931C60.3321 51.9413 60.2264 52.3416 60.2298 52.7489C60.2227 53.2041 60.3888 53.6438 60.6917 53.9719C61.2403 54.4447 61.8788 54.7909 62.5652 54.9878C63.5019 55.322 64.9006 55.743 66.7613 56.2309C68.3466 56.616 69.8808 57.2018 71.3295 57.9753C72.3518 58.4653 73.2085 59.2651 73.7877 60.2702C74.3669 61.2754 74.6416 62.439 74.576 63.6093C74.6217 64.7396 74.4074 65.865 73.951 66.8915C73.4945 67.9181 72.8091 68.8161 71.9518 69.5107C70.2195 70.9499 67.8113 71.6694 64.7274 71.6694Z" fill="#031723"/>
</svg>
