<svg width="43" height="42" viewBox="0 0 43 42" fill="none" xmlns="http://www.w3.org/2000/svg">
<path d="M17.9212 41.463H17.8781C13.3412 40.6119 9.21908 38.2828 6.16333 34.8438C5.85542 34.4988 5.69802 34.0465 5.72578 33.5863C5.75353 33.126 5.96416 32.6956 6.31132 32.3896C6.65848 32.0837 7.11373 31.9273 7.57694 31.9549C8.04015 31.9825 8.47336 32.1917 8.78128 32.5367C11.3266 35.402 14.7605 37.3426 18.54 38.0518H18.5831C18.8138 38.0894 19.0345 38.1726 19.2323 38.2964C19.43 38.4202 19.6008 38.5822 19.7345 38.7727C19.8682 38.9632 19.9621 39.1785 20.0107 39.4057C20.0592 39.6329 20.0614 39.8674 20.0172 40.0955C19.9729 40.3235 19.8831 40.5405 19.753 40.7335C19.623 40.9265 19.4552 41.0916 19.2598 41.2191C19.0644 41.3465 18.8453 41.4338 18.6154 41.4757C18.3855 41.5176 18.1494 41.5133 17.9212 41.463Z" fill="currentColor"/>
<path d="M25.4198 41.407C25.0224 41.3317 24.6635 41.1217 24.4043 40.813C24.1452 40.5042 24.0018 40.1157 23.9986 39.7137C23.9954 39.3117 24.1327 38.921 24.3869 38.6082C24.6412 38.2955 24.9967 38.08 25.3929 37.9985C29.1573 37.2127 32.5593 35.224 35.0791 32.3363C35.2292 32.1636 35.4122 32.022 35.6174 31.9195C35.8227 31.817 36.0462 31.7557 36.2753 31.7391C36.5045 31.7224 36.7346 31.7508 36.9527 31.8225C37.1708 31.8943 37.3725 32.008 37.5463 32.1572C37.7202 32.3064 37.8627 32.4882 37.9659 32.6921C38.069 32.8961 38.1307 33.1182 38.1474 33.3458C38.1642 33.5735 38.1356 33.8022 38.0634 34.0188C37.9912 34.2355 37.8768 34.4359 37.7266 34.6087C34.706 38.0701 30.6287 40.4548 26.1167 41.399C25.8872 41.4471 25.6504 41.4498 25.4198 41.407Z" fill="currentColor"/>
<path d="M3.349 28.9626C3.04777 28.9051 2.76707 28.7699 2.53516 28.5705C2.30324 28.371 2.12829 28.1144 2.02792 27.8264C0.821302 24.3681 0.553102 20.6549 1.25034 17.0609C1.42288 16.1731 1.65205 15.2972 1.93644 14.4383C2.0087 14.2217 2.12319 14.0213 2.27337 13.8487C2.42356 13.6761 2.60649 13.5345 2.81174 13.4321C3.01698 13.3297 3.24052 13.2685 3.46959 13.2519C3.69865 13.2353 3.92875 13.2638 4.14676 13.3356C4.36476 13.4073 4.5664 13.5211 4.74016 13.6703C4.91392 13.8195 5.0564 14.0013 5.15946 14.2052C5.26252 14.4092 5.32415 14.6313 5.34082 14.8589C5.35749 15.0865 5.32888 15.3151 5.25662 15.5317C5.01901 16.2487 4.82759 16.98 4.68353 17.7212C4.10284 20.7146 4.3265 23.8073 5.33196 26.6875C5.43215 26.9759 5.45432 27.2853 5.39623 27.5848C5.33815 27.8843 5.20186 28.1634 5.00102 28.3941C4.80018 28.6248 4.54184 28.799 4.2519 28.8992C3.96195 28.9995 3.65059 29.0222 3.349 28.9652V28.9626Z" fill="currentColor"/>
<path d="M39.7607 28.6978C39.6868 28.6841 39.614 28.6654 39.5427 28.6417C39.3245 28.5703 39.1226 28.4568 38.9485 28.3079C38.7744 28.1589 38.6316 27.9774 38.5281 27.7735C38.4247 27.5697 38.3627 27.3477 38.3456 27.12C38.3286 26.8924 38.3569 26.6636 38.4288 26.4468C38.6628 25.7358 38.8516 25.0107 38.9939 24.2761C39.5777 21.2764 39.3531 18.1767 38.3427 15.291C38.2627 15.0746 38.2267 14.8446 38.237 14.6143C38.2473 14.384 38.3037 14.158 38.4027 13.9496C38.5018 13.7411 38.6416 13.5543 38.814 13.4001C38.9864 13.2458 39.188 13.1272 39.407 13.0511C39.626 12.975 39.8581 12.943 40.0897 12.9569C40.3213 12.9708 40.5478 13.0303 40.756 13.1321C40.9642 13.2338 41.1499 13.3757 41.3024 13.5494C41.4549 13.7232 41.571 13.9253 41.6441 14.1441C42.8558 17.6096 43.1268 21.3311 42.4297 24.9337C42.2577 25.8141 42.0304 26.6828 41.749 27.5349C41.6166 27.9358 41.3417 28.2751 40.9757 28.4891C40.6097 28.7032 40.1777 28.7773 39.7607 28.6978Z" fill="currentColor"/>
<path d="M6.96785 10.2117C6.66895 10.1543 6.39055 10.0197 6.16067 9.82139C5.8109 9.51898 5.59608 9.09111 5.5633 8.63158C5.53052 8.17205 5.68245 7.71835 5.98578 7.36994C9.01025 3.90982 13.0917 1.52868 17.6064 0.590346C17.8326 0.540773 18.0665 0.536346 18.2944 0.577309C18.5223 0.618273 18.7398 0.703812 18.9342 0.828971C19.1286 0.95413 19.296 1.11641 19.4268 1.30639C19.5575 1.49637 19.649 1.71027 19.6958 1.93566C19.7427 2.16104 19.744 2.39344 19.6998 2.61934C19.6555 2.84525 19.5665 3.06017 19.438 3.25162C19.3094 3.44307 19.1439 3.60724 18.9509 3.7346C18.758 3.86195 18.5415 3.94996 18.3141 3.99351C14.5503 4.77769 11.1484 6.76445 8.62794 9.6503C8.42598 9.88146 8.16589 10.0552 7.87424 10.1539C7.58258 10.2525 7.2698 10.2725 6.96785 10.2117Z" fill="currentColor"/>
<path d="M35.8594 10.0031C35.4823 9.93184 35.1397 9.73813 34.8854 9.45244C32.3411 6.59565 28.9127 4.66104 25.1401 3.95337C24.6836 3.86584 24.2804 3.60263 24.0183 3.22108C23.7563 2.83953 23.6566 2.37055 23.7409 1.91629C23.7829 1.69254 23.869 1.47924 23.9942 1.28866C24.1195 1.09808 24.2814 0.933974 24.4707 0.805779C24.6599 0.677585 24.8729 0.58783 25.0972 0.541676C25.3215 0.495522 25.5528 0.493883 25.7777 0.536846H25.8019C30.3298 1.38806 34.4443 3.71095 37.4979 7.13999C37.7407 7.41148 37.8918 7.75174 37.93 8.11294C37.9681 8.47415 37.8914 8.83815 37.7106 9.1538C37.5298 9.46944 37.254 9.72086 36.9219 9.87272C36.5899 10.0246 36.2183 10.0693 35.8594 10.0005V10.0031Z" fill="currentColor"/>
<path d="M16.9688 28.5225C16.1434 28.5354 15.3302 28.3237 14.6172 27.9103C13.9198 27.5022 13.347 26.9136 12.9598 26.2074C12.5405 25.4412 12.3291 24.5798 12.3464 23.7079V19.6684C12.3233 18.7556 12.5325 17.8517 12.9544 17.0405C13.3438 16.3135 13.9373 15.7144 14.663 15.3162C15.4476 14.897 16.3283 14.687 17.219 14.7067C17.8746 14.7032 18.5253 14.8174 19.1401 15.0436C19.7538 15.2719 20.3062 15.6379 20.7544 16.1129L19.1401 17.6714C18.9055 17.3935 18.6126 17.17 18.2818 17.0165C17.9505 16.8571 17.5871 16.7748 17.219 16.7759C16.755 16.7659 16.2972 16.884 15.8968 17.1172C15.4963 17.3504 15.1689 17.6894 14.9508 18.0965C14.7379 18.4832 14.6277 18.9175 14.6307 19.3583V21.5638L14.2217 21.1201C14.6024 20.6797 15.0741 20.3259 15.6047 20.0828C16.1332 19.8358 16.7102 19.708 17.2943 19.7085C18.0753 19.6927 18.8458 19.8896 19.5222 20.278C20.1601 20.6492 20.686 21.1837 21.045 21.8258C21.4239 22.5107 21.6159 23.282 21.602 24.0634C21.6111 24.8598 21.3898 25.642 20.9643 26.317C20.5471 26.9836 19.9679 27.5351 19.28 27.921C18.5766 28.3208 17.7791 28.5284 16.9688 28.5225ZM16.9688 26.3839C17.3857 26.3884 17.7962 26.2823 18.158 26.0764C18.5115 25.8739 18.807 25.585 19.0163 25.237C19.2296 24.8815 19.3404 24.4746 19.3365 24.0607C19.3405 23.6459 19.2318 23.2377 19.0217 22.8791C18.8154 22.528 18.5229 22.2347 18.1715 22.0263C17.8138 21.8142 17.4042 21.7041 16.9876 21.7082C16.5695 21.7047 16.1583 21.8147 15.7984 22.0263C15.4452 22.2333 15.1515 22.5269 14.9455 22.8791C14.7354 23.2377 14.6266 23.6459 14.6307 24.0607C14.6271 24.4672 14.734 24.8671 14.9401 25.2183C15.144 25.568 15.4349 25.8598 15.7849 26.0657C16.1412 26.282 16.5513 26.395 16.9688 26.3919V26.3839Z" fill="currentColor"/>
<path d="M27.7526 28.5226C26.5149 28.5226 25.5095 28.2464 24.7364 27.6939C24.3534 27.421 24.0306 27.0732 23.7877 26.6719C23.5448 26.2705 23.3869 25.8241 23.3239 25.36L25.6082 25.0098C25.7113 25.4807 25.9901 25.8952 26.3885 26.1701C26.8383 26.4677 27.3713 26.6164 27.9113 26.5951C28.3507 26.6211 28.7872 26.5099 29.1598 26.277C29.3003 26.1797 29.4141 26.049 29.4907 25.8967C29.5673 25.7445 29.6043 25.5756 29.5983 25.4055C29.608 25.21 29.5511 25.0169 29.4369 24.8575C29.2394 24.6645 28.9945 24.5263 28.7266 24.4565C28.3607 24.3255 27.801 24.1651 27.0476 23.9672C26.3553 23.7998 25.6825 23.5605 25.0405 23.2535C24.6053 23.0532 24.2332 22.739 23.9642 22.3445C23.7376 21.9591 23.6248 21.5181 23.6387 21.072C23.6257 20.4921 23.7981 19.9231 24.1311 19.4466C24.4781 18.969 24.9537 18.5983 25.5033 18.3773C26.1642 18.1149 26.8715 17.9876 27.5831 18.003C28.2914 17.9902 28.9957 18.1127 29.6575 18.3639C30.2251 18.576 30.7289 18.9284 31.1212 19.3878C31.4936 19.8324 31.7315 20.3728 31.8073 20.9464L29.523 21.3527C29.5028 21.1539 29.4409 20.9615 29.3412 20.7879C29.2416 20.6143 29.1065 20.4634 28.9445 20.3449C28.5534 20.0814 28.0932 19.9373 27.6207 19.9305C27.1825 19.8835 26.74 19.9653 26.3481 20.1657C26.202 20.2398 26.0795 20.3527 25.9945 20.492C25.9094 20.6313 25.8651 20.7914 25.8665 20.9544C25.8635 21.1365 25.9332 21.3123 26.0602 21.4436C26.2902 21.6327 26.558 21.7712 26.8459 21.8499C27.2387 21.9836 27.8252 22.152 28.6055 22.3472C29.2703 22.5012 29.9137 22.7355 30.5212 23.0449C30.9499 23.2409 31.3092 23.5609 31.5521 23.9629C31.7949 24.365 31.9101 24.8304 31.8826 25.2986C31.9018 25.7507 31.812 26.2008 31.6205 26.6114C31.4291 27.0221 31.1417 27.3813 30.7822 27.6591C30.0557 28.2348 29.0459 28.5226 27.7526 28.5226Z" fill="currentColor"/>
</svg>
