<svg width="17" height="13" viewBox="0 0 17 13" fill="none" xmlns="http://www.w3.org/2000/svg">
<path d="M10.0723 4.32812H13.1895C13.3125 4.32812 13.415 4.28711 13.4971 4.20508C13.5791 4.11849 13.6201 4.01595 13.6201 3.89746C13.6201 3.77897 13.5791 3.68099 13.4971 3.60352C13.415 3.52148 13.3125 3.48047 13.1895 3.48047H10.0723C9.94922 3.48047 9.84668 3.52148 9.76465 3.60352C9.68262 3.68099 9.6416 3.77897 9.6416 3.89746C9.6416 4.01595 9.68262 4.11849 9.76465 4.20508C9.84668 4.28711 9.94922 4.32812 10.0723 4.32812ZM10.0723 6.76855H13.1895C13.3125 6.76855 13.415 6.72754 13.4971 6.64551C13.5791 6.55892 13.6201 6.4541 13.6201 6.33105C13.6201 6.21712 13.5791 6.12142 13.4971 6.04395C13.415 5.96191 13.3125 5.9209 13.1895 5.9209H10.0723C9.94922 5.9209 9.84668 5.96191 9.76465 6.04395C9.68262 6.12142 9.6416 6.21712 9.6416 6.33105C9.6416 6.4541 9.68262 6.55892 9.76465 6.64551C9.84668 6.72754 9.94922 6.76855 10.0723 6.76855ZM10.0723 9.20215H13.1895C13.3125 9.20215 13.415 9.16341 13.4971 9.08594C13.5791 9.00391 13.6201 8.90365 13.6201 8.78516C13.6201 8.66211 13.5791 8.55957 13.4971 8.47754C13.415 8.39551 13.3125 8.35449 13.1895 8.35449H10.0723C9.94922 8.35449 9.84668 8.39551 9.76465 8.47754C9.68262 8.55957 9.6416 8.66211 9.6416 8.78516C9.6416 8.90365 9.68262 9.00391 9.76465 9.08594C9.84668 9.16341 9.94922 9.20215 10.0723 9.20215ZM3.70117 9.20215H8.34277C8.47493 9.20215 8.57292 9.16113 8.63672 9.0791C8.70508 8.99251 8.73926 8.89225 8.73926 8.77832C8.73926 8.63249 8.68457 8.44564 8.5752 8.21777C8.47038 7.98535 8.30632 7.75521 8.08301 7.52734C7.8597 7.29492 7.57715 7.10124 7.23535 6.94629C6.89355 6.78678 6.49023 6.70703 6.02539 6.70703C5.55599 6.70703 5.15039 6.78678 4.80859 6.94629C4.4668 7.10124 4.18424 7.29492 3.96094 7.52734C3.74219 7.75521 3.57812 7.98535 3.46875 8.21777C3.36393 8.44564 3.31152 8.63249 3.31152 8.77832C3.31152 8.89225 3.34342 8.99251 3.40723 9.0791C3.47559 9.16113 3.57357 9.20215 3.70117 9.20215ZM6.02539 6.29688C6.39909 6.29688 6.72038 6.1556 6.98926 5.87305C7.25814 5.58594 7.39258 5.23047 7.39258 4.80664C7.39258 4.53776 7.33105 4.29395 7.20801 4.0752C7.08496 3.85189 6.91862 3.67415 6.70898 3.54199C6.50391 3.40983 6.27604 3.34375 6.02539 3.34375C5.77018 3.34375 5.54004 3.40983 5.33496 3.54199C5.12988 3.67415 4.96582 3.85189 4.84277 4.0752C4.71973 4.29395 4.6582 4.53776 4.6582 4.80664C4.6582 5.23047 4.79036 5.58594 5.05469 5.87305C5.32357 6.1556 5.64714 6.29688 6.02539 6.29688ZM3.04492 12.4902H13.9551C14.6888 12.4902 15.2471 12.2988 15.6299 11.916C16.0127 11.5332 16.2041 10.9795 16.2041 10.2549V2.4209C16.2041 1.69629 16.0127 1.14258 15.6299 0.759766C15.2471 0.376953 14.6888 0.185547 13.9551 0.185547H3.04492C2.31576 0.185547 1.75749 0.376953 1.37012 0.759766C0.987305 1.14258 0.795898 1.69629 0.795898 2.4209V10.2549C0.795898 10.9795 0.987305 11.5332 1.37012 11.916C1.75749 12.2988 2.31576 12.4902 3.04492 12.4902ZM3.20215 10.9043C2.93327 10.9043 2.72819 10.8382 2.58691 10.7061C2.44564 10.5693 2.375 10.3597 2.375 10.0771V2.59863C2.375 2.31608 2.44564 2.10645 2.58691 1.96973C2.72819 1.83301 2.93327 1.76465 3.20215 1.76465H13.8047C14.069 1.76465 14.2718 1.83301 14.4131 1.96973C14.5589 2.10645 14.6318 2.31608 14.6318 2.59863V10.0771C14.6318 10.3597 14.5589 10.5693 14.4131 10.7061C14.2718 10.8382 14.069 10.9043 13.8047 10.9043H3.20215Z" fill="currentColor"/>
</svg>
