<svg width="18" height="16" viewBox="0 0 18 16" fill="none" xmlns="http://www.w3.org/2000/svg">
<path d="M4.10938 6.625C4.69271 6.625 5.22656 6.47917 5.71094 6.1875C6.20052 5.89062 6.59115 5.5 6.88281 5.01562C7.17969 4.53125 7.32812 3.99479 7.32812 3.40625C7.32812 2.81771 7.18229 2.27865 6.89062 1.78906C6.59896 1.29948 6.20833 0.908854 5.71875 0.617188C5.22917 0.320312 4.69271 0.171875 4.10938 0.171875C3.52083 0.171875 2.98177 0.320312 2.49219 0.617188C2.0026 0.908854 1.61198 1.29948 1.32031 1.78906C1.02865 2.27865 0.882812 2.81771 0.882812 3.40625C0.882812 3.99479 1.02865 4.53125 1.32031 5.01562C1.61198 5.5 2.0026 5.89062 2.49219 6.1875C2.98177 6.47917 3.52083 6.625 4.10938 6.625ZM3.72656 5.14062C3.59115 5.14062 3.46354 5.06771 3.34375 4.92188L2.51562 3.92188C2.44792 3.84375 2.41406 3.7474 2.41406 3.63281C2.41406 3.52344 2.45052 3.42969 2.52344 3.35156C2.59635 3.27344 2.6875 3.23438 2.79688 3.23438C2.86458 3.23438 2.92448 3.25 2.97656 3.28125C3.03385 3.3125 3.08854 3.35938 3.14062 3.42188L3.70312 4.14062L5.02344 2.03125C5.11719 1.88542 5.23438 1.8125 5.375 1.8125C5.48438 1.8125 5.57812 1.84896 5.65625 1.92188C5.73438 1.99479 5.77344 2.08073 5.77344 2.17969C5.77344 2.27865 5.73958 2.38021 5.67188 2.48438L4.11719 4.92188C4.02344 5.06771 3.89323 5.14062 3.72656 5.14062ZM4.10938 15.1719C4.69271 15.1719 5.22917 15.026 5.71875 14.7344C6.20833 14.4427 6.59896 14.0521 6.89062 13.5625C7.18229 13.0729 7.32812 12.5339 7.32812 11.9453C7.32812 11.3568 7.18229 10.8203 6.89062 10.3359C6.59896 9.84635 6.20833 9.45573 5.71875 9.16406C5.22917 8.86719 4.69271 8.71875 4.10938 8.71875C3.51562 8.71875 2.97396 8.86719 2.48438 9.16406C2 9.45573 1.61198 9.84635 1.32031 10.3359C1.02865 10.8255 0.882812 11.362 0.882812 11.9453C0.882812 12.5339 1.02865 13.0729 1.32031 13.5625C1.61198 14.0521 2.0026 14.4427 2.49219 14.7344C2.98177 15.026 3.52083 15.1719 4.10938 15.1719ZM4.10938 14C3.73958 14 3.39844 13.9062 3.08594 13.7188C2.77344 13.5312 2.52344 13.2812 2.33594 12.9688C2.14844 12.6562 2.05469 12.3151 2.05469 11.9453C2.05469 11.5755 2.14844 11.2344 2.33594 10.9219C2.52344 10.6094 2.77344 10.3594 3.08594 10.1719C3.39844 9.98438 3.73958 9.89062 4.10938 9.89062C4.47917 9.89062 4.81771 9.98438 5.125 10.1719C5.4375 10.3594 5.6875 10.6094 5.875 10.9219C6.0625 11.2344 6.15625 11.5755 6.15625 11.9453C6.15625 12.3151 6.0625 12.6562 5.875 12.9688C5.6875 13.2812 5.4375 13.5312 5.125 13.7188C4.81771 13.9062 4.47917 14 4.10938 14ZM9.60938 4.01562H17.0391C17.2109 4.01562 17.3568 3.95573 17.4766 3.83594C17.5964 3.71615 17.6562 3.57292 17.6562 3.40625C17.6562 3.23438 17.5964 3.09115 17.4766 2.97656C17.3568 2.86198 17.2109 2.80469 17.0391 2.80469H9.60938C9.4375 2.80469 9.29427 2.86198 9.17969 2.97656C9.0651 3.09115 9.00781 3.23438 9.00781 3.40625C9.00781 3.57292 9.0651 3.71615 9.17969 3.83594C9.29427 3.95573 9.4375 4.01562 9.60938 4.01562ZM9.60938 12.5625H17.0391C17.2109 12.5625 17.3568 12.5052 17.4766 12.3906C17.5964 12.2708 17.6562 12.125 17.6562 11.9531C17.6562 11.7812 17.5964 11.638 17.4766 11.5234C17.3568 11.4089 17.2109 11.3516 17.0391 11.3516H9.60938C9.4375 11.3516 9.29427 11.4089 9.17969 11.5234C9.0651 11.638 9.00781 11.7812 9.00781 11.9531C9.00781 12.125 9.0651 12.2708 9.17969 12.3906C9.29427 12.5052 9.4375 12.5625 9.60938 12.5625Z" fill="#031723"/>
</svg>
