<svg width="17" height="20" viewBox="0 0 17 20" fill="none" xmlns="http://www.w3.org/2000/svg">
<path d="M8.61719 19.0273C8.70833 19.0273 8.81576 19.0078 8.93945 18.9688C9.06315 18.9362 9.18359 18.8874 9.30078 18.8223C10.6484 18.1191 11.7878 17.4779 12.7188 16.8984C13.6497 16.3255 14.3984 15.7624 14.9648 15.209C15.5312 14.6556 15.9447 14.0599 16.2051 13.4219C16.4655 12.7773 16.5957 12.0352 16.5957 11.1953V4.32031C16.5957 3.68229 16.4753 3.21029 16.2344 2.9043C16 2.5918 15.6061 2.31836 15.0527 2.08398C14.8184 1.98633 14.4603 1.85286 13.9785 1.68359C13.5033 1.50781 12.9889 1.32227 12.4355 1.12695C11.8822 0.931641 11.3646 0.755859 10.8828 0.599609C10.4076 0.436849 10.0592 0.319661 9.83789 0.248047C9.64909 0.182943 9.44401 0.134115 9.22266 0.101562C9.00781 0.0690104 8.80599 0.0527344 8.61719 0.0527344C8.42188 0.0527344 8.2168 0.0722656 8.00195 0.111328C7.78711 0.150391 7.58529 0.195964 7.39648 0.248047C7.16862 0.306641 6.81706 0.417318 6.3418 0.580078C5.87305 0.742839 5.35872 0.921875 4.79883 1.11719C4.24544 1.3125 3.72786 1.49805 3.24609 1.67383C2.77083 1.84961 2.41276 1.98633 2.17188 2.08398C1.63151 2.31836 1.24089 2.5918 1 2.9043C0.759115 3.21029 0.638672 3.68229 0.638672 4.32031V11.1953C0.638672 12.0352 0.765625 12.7741 1.01953 13.4121C1.27995 14.0501 1.69336 14.6491 2.25977 15.209C2.83268 15.7624 3.58464 16.3255 4.51562 16.8984C5.44661 17.4714 6.58268 18.1126 7.92383 18.8223C8.04753 18.8874 8.17122 18.9362 8.29492 18.9688C8.41862 19.0078 8.52604 19.0273 8.61719 19.0273ZM8.61719 16.7129C8.55859 16.7129 8.49349 16.6999 8.42188 16.6738C8.35677 16.6543 8.26237 16.6055 8.13867 16.5273C7.09701 15.8828 6.22786 15.3392 5.53125 14.8965C4.84115 14.4538 4.29102 14.0436 3.88086 13.666C3.4707 13.2884 3.17773 12.8815 3.00195 12.4453C2.82617 12.0026 2.73828 11.4688 2.73828 10.8438V4.62305C2.73828 4.45378 2.76107 4.32682 2.80664 4.24219C2.85872 4.15755 2.94987 4.08919 3.08008 4.03711C3.34049 3.92643 3.64323 3.80924 3.98828 3.68555C4.33333 3.55534 4.69466 3.42513 5.07227 3.29492C5.45638 3.1582 5.83073 3.02799 6.19531 2.9043C6.5599 2.77409 6.89844 2.6569 7.21094 2.55273C7.52344 2.44206 7.7806 2.34766 7.98242 2.26953C8.12565 2.21745 8.24609 2.18164 8.34375 2.16211C8.44141 2.14258 8.53255 2.13281 8.61719 2.13281C8.70182 2.13281 8.79297 2.14258 8.89062 2.16211C8.98828 2.18164 9.10872 2.21745 9.25195 2.26953C9.46029 2.34766 9.71745 2.44206 10.0234 2.55273C10.3294 2.66341 10.6647 2.78385 11.0293 2.91406C11.4004 3.04427 11.7715 3.17773 12.1426 3.31445C12.5202 3.44466 12.8815 3.57487 13.2266 3.70508C13.5781 3.82878 13.8874 3.93945 14.1543 4.03711C14.2845 4.08268 14.3724 4.15104 14.418 4.24219C14.4635 4.32682 14.4863 4.45378 14.4863 4.62305V10.8438C14.4863 11.4818 14.3952 12.0286 14.2129 12.4844C14.0306 12.9336 13.7311 13.3503 13.3145 13.7344C12.8978 14.1185 12.3411 14.5286 11.6445 14.9648C10.9544 15.3945 10.1048 15.9154 9.0957 16.5273C8.96549 16.599 8.86784 16.6478 8.80273 16.6738C8.73763 16.6999 8.67578 16.7129 8.61719 16.7129ZM7.65039 13.3926C8.03451 13.3926 8.33724 13.2168 8.55859 12.8652L12.5625 6.67383C12.6341 6.56966 12.6927 6.45898 12.7383 6.3418C12.7839 6.22461 12.8066 6.11068 12.8066 6C12.8066 5.74609 12.709 5.53776 12.5137 5.375C12.3184 5.20573 12.097 5.12109 11.8496 5.12109C11.5111 5.12109 11.2344 5.30013 11.0195 5.6582L7.62109 11.1074L6.04883 9.1543C5.93164 9.01107 5.8112 8.91016 5.6875 8.85156C5.5638 8.78646 5.42708 8.75391 5.27734 8.75391C5.01693 8.75391 4.79557 8.84505 4.61328 9.02734C4.43099 9.20312 4.33984 9.42122 4.33984 9.68164C4.33984 9.91602 4.43099 10.1471 4.61328 10.375L6.70312 12.8848C6.83984 13.054 6.98307 13.181 7.13281 13.2656C7.28255 13.3503 7.45508 13.3926 7.65039 13.3926Z" fill="currentColor"/>
</svg>
