<svg width="101" height="58" viewBox="0 0 101 58" fill="none" xmlns="http://www.w3.org/2000/svg">
<path d="M73.7446 42.762C71.4485 42.762 69.5808 40.8927 69.5808 38.5967C69.5808 36.3007 71.4485 34.433 73.7446 34.433C76.041 34.433 77.9087 36.3003 77.9087 38.5967C77.9087 40.8931 76.041 42.762 73.7446 42.762ZM27.7193 42.762C25.4233 42.762 23.5556 40.8927 23.5556 38.5967C23.5556 36.3007 25.4229 34.433 27.7193 34.433C30.0153 34.433 31.883 36.3003 31.883 38.5967C31.883 40.8931 30.0157 42.762 27.7193 42.762ZM75.2381 17.6789L83.5602 3.26546C83.7893 2.86768 83.8512 2.39527 83.7324 1.95189C83.6136 1.50851 83.3237 1.13037 82.9265 0.900438C82.5287 0.671461 82.0563 0.609589 81.6129 0.728393C81.1696 0.847196 80.7914 1.13697 80.5614 1.53418L72.1353 16.1298C65.6911 13.1893 58.4543 11.551 50.7319 11.551C43.0096 11.551 35.7728 13.1893 29.329 16.1298L20.9024 1.53418C20.6724 1.13697 20.2943 0.847196 19.8509 0.728393C19.4076 0.609589 18.9352 0.671461 18.5374 0.900438C18.1399 1.13015 17.8499 1.5083 17.731 1.95177C17.6122 2.39524 17.6743 2.86775 17.9037 3.26546L26.2258 17.6789C11.9355 25.4511 2.16177 39.9183 0.731934 57.0104H100.732C99.301 39.9187 89.5273 25.4511 75.2381 17.6785" fill="#3DDB85"/>
</svg>
