<svg width="16" height="15" viewBox="0 0 16 15" fill="none" xmlns="http://www.w3.org/2000/svg">
<path d="M3.95312 14.3203H12.0469C12.8906 14.3203 13.5443 14.0885 14.0078 13.625C14.4714 13.1667 14.7031 12.513 14.7031 11.6641V4.03125H12.5859V11.4375C12.5859 11.7083 12.5182 11.9089 12.3828 12.0391C12.2526 12.1641 12.0573 12.2266 11.7969 12.2266H4.20312C3.94271 12.2266 3.74479 12.1641 3.60938 12.0391C3.47917 11.9089 3.41406 11.7083 3.41406 11.4375V4.03125H1.28906V11.6641C1.28906 12.513 1.52083 13.1667 1.98438 13.625C2.44792 14.0885 3.10417 14.3203 3.95312 14.3203ZM5.75781 8.25781H10.25C10.4688 8.25781 10.6536 8.18229 10.8047 8.03125C10.9557 7.88021 11.0312 7.6901 11.0312 7.46094V7.21875C11.0312 6.99479 10.9557 6.8099 10.8047 6.66406C10.6589 6.51302 10.474 6.4375 10.25 6.4375H5.75781C5.53385 6.4375 5.34635 6.51302 5.19531 6.66406C5.04427 6.8099 4.96875 6.99479 4.96875 7.21875V7.46094C4.96875 7.6901 5.04427 7.88021 5.19531 8.03125C5.34635 8.18229 5.53385 8.25781 5.75781 8.25781ZM2.26562 5.14844H13.7344C14.3594 5.14844 14.8542 4.95833 15.2188 4.57812C15.5885 4.19271 15.7734 3.6901 15.7734 3.07031V2.10156C15.7734 1.48177 15.5885 0.981771 15.2188 0.601562C14.8542 0.221354 14.3594 0.03125 13.7344 0.03125H2.26562C1.65104 0.03125 1.15625 0.221354 0.78125 0.601562C0.40625 0.981771 0.21875 1.48177 0.21875 2.10156V3.07031C0.21875 3.6901 0.403646 4.19271 0.773438 4.57812C1.14844 4.95833 1.64583 5.14844 2.26562 5.14844ZM2.50781 3.24219C2.3724 3.24219 2.26823 3.20833 2.19531 3.14062C2.1276 3.06771 2.09375 2.96615 2.09375 2.83594V2.34375C2.09375 2.21354 2.1276 2.11198 2.19531 2.03906C2.26823 1.96615 2.3724 1.92969 2.50781 1.92969H13.4922C13.6276 1.92969 13.7292 1.96615 13.7969 2.03906C13.8646 2.11198 13.8984 2.21354 13.8984 2.34375V2.83594C13.8984 2.96615 13.8646 3.06771 13.7969 3.14062C13.7292 3.20833 13.6276 3.24219 13.4922 3.24219H2.50781Z" fill="currentColor"/>
</svg>
