<svg width="18" height="19" viewBox="0 0 18 19" fill="none" xmlns="http://www.w3.org/2000/svg">
<path d="M5.67188 4.17969C5.67188 4.67448 5.77083 5.13542 5.96875 5.5625C6.16667 5.98438 6.4375 6.35156 6.78125 6.66406C7.13021 6.97135 7.52865 7.19531 7.97656 7.33594V11.9297C7.97656 12.4557 8.03125 12.9427 8.14062 13.3906C8.25521 13.8333 8.39062 14.1927 8.54688 14.4688C8.70312 14.7448 8.84635 14.8828 8.97656 14.8828C9.10156 14.8828 9.24219 14.7474 9.39844 14.4766C9.55469 14.2005 9.6875 13.8385 9.79688 13.3906C9.91146 12.9427 9.96875 12.4557 9.96875 11.9297V7.33594C10.4167 7.19531 10.8125 6.97135 11.1562 6.66406C11.5052 6.35677 11.7786 5.98958 11.9766 5.5625C12.1797 5.13542 12.2812 4.67448 12.2812 4.17969C12.2812 3.57031 12.1328 3.01562 11.8359 2.51562C11.5391 2.01042 11.1406 1.60938 10.6406 1.3125C10.1458 1.01042 9.59115 0.859375 8.97656 0.859375C8.36198 0.859375 7.80469 1.01042 7.30469 1.3125C6.8099 1.60938 6.41406 2.01042 6.11719 2.51562C5.82031 3.01562 5.67188 3.57031 5.67188 4.17969ZM8.03906 4.36719C7.74219 4.36719 7.47917 4.25521 7.25 4.03125C7.02604 3.80208 6.91406 3.53646 6.91406 3.23438C6.91406 2.92708 7.02604 2.66406 7.25 2.44531C7.47917 2.22135 7.74219 2.10938 8.03906 2.10938C8.35156 2.10938 8.61719 2.22135 8.83594 2.44531C9.0599 2.66406 9.17188 2.92708 9.17188 3.23438C9.17188 3.53646 9.0599 3.80208 8.83594 4.03125C8.61719 4.25521 8.35156 4.36719 8.03906 4.36719ZM8.96094 18.2578C10.2786 18.2578 11.4661 18.1589 12.5234 17.9609C13.5859 17.7682 14.4948 17.4948 15.25 17.1406C16.0104 16.7865 16.5911 16.3698 16.9922 15.8906C17.3984 15.4115 17.6016 14.888 17.6016 14.3203C17.6016 13.7995 17.4323 13.3229 17.0938 12.8906C16.7604 12.4531 16.2995 12.0677 15.7109 11.7344C15.1276 11.3958 14.4583 11.1198 13.7031 10.9062C12.9531 10.6927 12.1641 10.5521 11.3359 10.4844V12.3438C11.8776 12.3906 12.3932 12.4714 12.8828 12.5859C13.3776 12.7005 13.8177 12.8411 14.2031 13.0078C14.5938 13.1693 14.901 13.3568 15.125 13.5703C15.349 13.7786 15.4609 14.0052 15.4609 14.25C15.4609 14.6719 15.1823 15.0391 14.625 15.3516C14.0729 15.6693 13.3073 15.9167 12.3281 16.0938C11.349 16.2708 10.2266 16.3594 8.96094 16.3594C7.69531 16.3594 6.57292 16.2708 5.59375 16.0938C4.61458 15.9219 3.84635 15.6771 3.28906 15.3594C2.73177 15.0417 2.45312 14.6719 2.45312 14.25C2.45312 14.0052 2.5651 13.7786 2.78906 13.5703C3.01823 13.3568 3.32552 13.1693 3.71094 13.0078C4.10156 12.8411 4.54427 12.7005 5.03906 12.5859C5.53385 12.4714 6.04688 12.3906 6.57812 12.3438V10.4844C5.75 10.5521 4.96094 10.6927 4.21094 10.9062C3.46094 11.1198 2.79427 11.3958 2.21094 11.7344C1.6276 12.0677 1.16667 12.4531 0.828125 12.8906C0.489583 13.3229 0.320312 13.7995 0.320312 14.3203C0.320312 14.888 0.520833 15.4115 0.921875 15.8906C1.32812 16.3698 1.90885 16.7865 2.66406 17.1406C3.42448 17.4948 4.33333 17.7682 5.39062 17.9609C6.45312 18.1589 7.64323 18.2578 8.96094 18.2578Z" fill="currentColor"/>
</svg>
