<svg width="13" height="11" viewBox="0 0 13 11" fill="none" xmlns="http://www.w3.org/2000/svg">
<path d="M0.245117 5.31055C0.245117 5.57031 0.336263 5.78906 0.518555 5.9668L4.74316 10.1846C4.93001 10.3669 5.13737 10.458 5.36523 10.458C5.625 10.458 5.83464 10.3783 5.99414 10.2188C6.1582 10.0592 6.24023 9.861 6.24023 9.62402C6.24023 9.49186 6.21289 9.37337 6.1582 9.26855C6.10807 9.15918 6.04427 9.06576 5.9668 8.98828L4.51758 7.53223L2.31641 5.51562L1.9541 6.0625L4.4082 6.19922H11.8389C12.1123 6.19922 12.3333 6.11719 12.502 5.95312C12.6706 5.78906 12.7549 5.57487 12.7549 5.31055C12.7549 5.05078 12.6706 4.84115 12.502 4.68164C12.3333 4.51758 12.1123 4.43555 11.8389 4.43555H4.4082L1.9541 4.56543L2.31641 5.1123L4.51758 3.0957L5.9668 1.63281C6.04427 1.55534 6.10807 1.46419 6.1582 1.35938C6.21289 1.25456 6.24023 1.13607 6.24023 1.00391C6.24023 0.76237 6.1582 0.561849 5.99414 0.402344C5.83464 0.242839 5.625 0.163086 5.36523 0.163086C5.25586 0.163086 5.14648 0.188151 5.03711 0.238281C4.93229 0.283854 4.83203 0.352214 4.73633 0.443359L0.518555 4.66113C0.336263 4.83887 0.245117 5.05534 0.245117 5.31055Z" fill="currentColor"/>
</svg>
