<svg width="12" height="13" viewBox="0 0 12 13" fill="none" xmlns="http://www.w3.org/2000/svg">
<path d="M11.7188 9.41406L11.7266 2.01562C11.7266 1.69792 11.6276 1.44271 11.4297 1.25C11.237 1.05208 10.9792 0.953125 10.6562 0.953125H3.25781C2.95573 0.953125 2.70573 1.05208 2.50781 1.25C2.3099 1.44271 2.21094 1.67448 2.21094 1.94531C2.21094 2.21615 2.3125 2.44531 2.51562 2.63281C2.71875 2.82031 2.96094 2.91406 3.24219 2.91406H5.96094L8.5625 2.82031L7.25781 3.97656L0.609375 10.625C0.385417 10.8542 0.273438 11.1042 0.273438 11.375C0.273438 11.5521 0.320312 11.7188 0.414062 11.875C0.513021 12.026 0.640625 12.151 0.796875 12.25C0.953125 12.349 1.1224 12.3984 1.30469 12.3984C1.57552 12.3984 1.82292 12.2891 2.04688 12.0703L8.69531 5.41406L9.86719 4.10938L9.75781 6.625V9.42969C9.75781 9.71615 9.84896 9.96094 10.0312 10.1641C10.2188 10.362 10.4505 10.4609 10.7266 10.4609C10.9974 10.4609 11.2292 10.362 11.4219 10.1641C11.6198 9.96094 11.7188 9.71094 11.7188 9.41406Z" fill="currentColor"/>
</svg>
