<svg width="16" height="13" viewBox="0 0 16 13" fill="currentColor" xmlns="http://www.w3.org/2000/svg">
<path d="M0.882812 6.13281C0.882812 6.48698 1.0026 6.77865 1.24219 7.00781L6.03125 11.7891C6.27604 12.0391 6.54948 12.1641 6.85156 12.1641C7.21094 12.1641 7.4974 12.0547 7.71094 11.8359C7.92969 11.6224 8.03906 11.3568 8.03906 11.0391C8.03906 10.8516 8 10.6875 7.92188 10.5469C7.84896 10.4062 7.76042 10.2839 7.65625 10.1797L6 8.52344L3.69531 6.40625L3.14844 7.17188L6.17188 7.32812H14.2266C14.6016 7.32812 14.901 7.21875 15.125 7C15.3542 6.78125 15.4688 6.49219 15.4688 6.13281C15.4688 5.77865 15.3542 5.49219 15.125 5.27344C14.901 5.05469 14.6016 4.94531 14.2266 4.94531H6.17188L3.14844 5.10156L3.69531 5.85938L6 3.74219L7.65625 2.08594C7.76042 1.97656 7.84896 1.85417 7.92188 1.71875C8 1.57812 8.03906 1.41667 8.03906 1.23438C8.03906 0.911458 7.92969 0.643229 7.71094 0.429688C7.4974 0.210938 7.21094 0.101562 6.85156 0.101562C6.71094 0.101562 6.56771 0.135417 6.42188 0.203125C6.28125 0.265625 6.14844 0.356771 6.02344 0.476562L1.24219 5.25781C1.0026 5.49219 0.882812 5.78385 0.882812 6.13281Z" fill="currentColor"/>
</svg>
