<svg width="32" height="46" viewBox="0 0 32 46" fill="none" xmlns="http://www.w3.org/2000/svg">
    <path d="M8.34375 20.3926H16.0664C16.418 20.3926 16.7109 20.2689 16.9453 20.0215C17.1927 19.7741 17.3164 19.4811 17.3164 19.1426C17.3164 18.8171 17.1927 18.5306 16.9453 18.2832C16.7109 18.0358 16.418 17.9121 16.0664 17.9121H8.34375C8.00521 17.9121 7.71224 18.0358 7.46484 18.2832C7.21745 18.5306 7.09375 18.8171 7.09375 19.1426C7.09375 19.4811 7.21745 19.7741 7.46484 20.0215C7.71224 20.2689 8.00521 20.3926 8.34375 20.3926ZM8.34375 26.9355H16.0664C16.418 26.9355 16.7109 26.8184 16.9453 26.584C17.1927 26.3366 17.3164 26.0371 17.3164 25.6855C17.3164 25.347 17.1927 25.0605 16.9453 24.8262C16.7109 24.5918 16.418 24.4746 16.0664 24.4746H8.34375C7.99219 24.4746 7.69271 24.5918 7.44531 24.8262C7.21094 25.0605 7.09375 25.347 7.09375 25.6855C7.09375 26.0371 7.21094 26.3366 7.44531 26.584C7.69271 26.8184 7.99219 26.9355 8.34375 26.9355ZM8.34375 33.8496H16.0664C16.418 33.8496 16.7109 33.7259 16.9453 33.4785C17.1927 33.2311 17.3164 32.9382 17.3164 32.5996C17.3164 32.2611 17.1927 31.9746 16.9453 31.7402C16.7109 31.4928 16.418 31.3691 16.0664 31.3691H8.34375C7.99219 31.3691 7.69271 31.4928 7.44531 31.7402C7.21094 31.9746 7.09375 32.2611 7.09375 32.5996C7.09375 32.9382 7.21745 33.2311 7.46484 33.4785C7.71224 33.7259 8.00521 33.8496 8.34375 33.8496ZM6.19531 45.4902H25.8047C27.7448 45.4902 29.2096 44.9824 30.1992 43.9668C31.1888 42.9642 31.6836 41.4863 31.6836 39.5332V11.5254C31.6836 9.61133 31.2018 8.14648 30.2383 7.13086C29.2878 6.11523 27.875 5.60742 26 5.60742H25.5703C25.5964 5.68555 25.6094 5.77669 25.6094 5.88086C25.6224 5.98503 25.6289 6.0957 25.6289 6.21289V7.91211C25.6289 8.27669 25.5898 8.5957 25.5117 8.86914H25.9219C26.7422 8.86914 27.3607 9.11654 27.7773 9.61133C28.194 10.1061 28.4023 10.7637 28.4023 11.584V39.4746C28.4023 40.347 28.168 41.0176 27.6992 41.4863C27.2435 41.9551 26.5599 42.1895 25.6484 42.1895H6.35156C5.45312 42.1895 4.76953 41.9551 4.30078 41.4863C3.84505 41.0176 3.61719 40.347 3.61719 39.4746V11.584C3.61719 10.7637 3.82552 10.1061 4.24219 9.61133C4.65885 9.11654 5.27083 8.86914 6.07812 8.86914H6.50781C6.42969 8.5957 6.39062 8.27669 6.39062 7.91211V6.21289C6.39062 6.0957 6.39062 5.98503 6.39062 5.88086C6.40365 5.77669 6.42318 5.68555 6.44922 5.60742H6.01953C4.13151 5.60742 2.70573 6.11523 1.74219 7.13086C0.791667 8.14648 0.316406 9.61133 0.316406 11.5254V39.5332C0.316406 41.4863 0.811198 42.9642 1.80078 43.9668C2.79036 44.9824 4.25521 45.4902 6.19531 45.4902ZM10.3164 10.002H21.7031C22.25 10.002 22.6797 9.83919 22.9922 9.51367C23.3047 9.18815 23.4609 8.73242 23.4609 8.14648V6.21289C23.4609 5.62695 23.3047 5.17122 22.9922 4.8457C22.6797 4.50716 22.25 4.33789 21.7031 4.33789H20.082C20.0039 3.2832 19.5742 2.38477 18.793 1.64258C18.0247 0.88737 17.0938 0.509766 16 0.509766C14.9193 0.509766 13.9883 0.88737 13.207 1.64258C12.4258 2.38477 11.9961 3.2832 11.918 4.33789H10.3164C9.75651 4.33789 9.32031 4.50716 9.00781 4.8457C8.69531 5.17122 8.53906 5.62695 8.53906 6.21289V8.14648C8.53906 8.73242 8.69531 9.18815 9.00781 9.51367C9.32031 9.83919 9.75651 10.002 10.3164 10.002ZM16 6.0957C15.5443 6.0957 15.1602 5.93945 14.8477 5.62695C14.5352 5.30143 14.3789 4.92383 14.3789 4.49414C14.3789 4.03841 14.5352 3.6543 14.8477 3.3418C15.1602 3.01628 15.5443 2.85352 16 2.85352C16.4557 2.85352 16.8398 3.01628 17.1523 3.3418C17.4648 3.6543 17.6211 4.03841 17.6211 4.49414C17.6211 4.92383 17.4648 5.30143 17.1523 5.62695C16.8398 5.93945 16.4557 6.0957 16 6.0957Z" fill="currentColor" />
    <path d="M24.563 19.1083L21.6378 22.0335C21.3985 22.2729 21.1038 22.3926 20.754 22.3926C20.4041 22.3926 20.1095 22.2729 19.8701 22.0335C19.6399 21.8033 19.5248 21.5133 19.5248 21.1634C19.5248 20.8136 19.6445 20.5189 19.8839 20.2795L22.8091 17.3543C23.0577 17.1057 23.3523 16.9861 23.693 16.9953C24.0428 16.9953 24.3329 17.1103 24.563 17.3405C24.8024 17.5799 24.9221 17.8745 24.9221 18.2244C24.9313 18.5651 24.8116 18.8597 24.563 19.1083Z" fill="currentColor" />
    <path d="M20.6126 19.3591L21.5378 20.2843C21.7771 20.5237 21.8968 20.8183 21.8968 21.1682C21.8968 21.5181 21.7771 21.8127 21.5378 22.0521C21.3076 22.2823 21.0176 22.3973 20.6677 22.3973C20.3178 22.3973 20.0232 22.2776 19.7838 22.0383L18.8586 21.1131C18.61 20.8645 18.4903 20.5698 18.4995 20.2292C18.4995 19.8793 18.6146 19.5893 18.8448 19.3591C19.0842 19.1197 19.3788 19 19.7287 19C20.0693 18.9908 20.364 19.1105 20.6126 19.3591Z" fill="currentColor" />
    <path d="M24.5635 26.211L21.6383 29.1362C21.3989 29.3755 21.1043 29.4952 20.7544 29.4952C20.4046 29.4952 20.1099 29.3755 19.8706 29.1362C19.6404 28.906 19.5253 28.616 19.5253 28.2661C19.5253 27.9162 19.645 27.6216 19.8844 27.3822L22.8096 24.457C23.0582 24.2084 23.3528 24.0887 23.6935 24.0979C24.0433 24.0979 24.3334 24.213 24.5635 24.4432C24.8029 24.6826 24.9226 24.9772 24.9226 25.3271C24.9318 25.6677 24.8121 25.9624 24.5635 26.211Z" fill="currentColor" />
    <path d="M20.613 26.4618L21.5382 27.387C21.7776 27.6264 21.8973 27.921 21.8973 28.2709C21.8973 28.6207 21.7776 28.9154 21.5382 29.1547C21.3081 29.3849 21.018 29.5 20.6682 29.5C20.3183 29.5 20.0237 29.3803 19.7843 29.1409L18.8591 28.2157C18.6105 27.9671 18.4908 27.6725 18.5 27.3318C18.5 26.982 18.6151 26.6919 18.8453 26.4618C19.0846 26.2224 19.3793 26.1027 19.7292 26.1027C20.0698 26.0935 20.3644 26.2132 20.613 26.4618Z" fill="currentColor" />
</svg>