<svg width="7" height="12" viewBox="0 0 7 12" fill="none" xmlns="http://www.w3.org/2000/svg">
<path d="M0.0625 6.33105C0.0625 6.40853 0.0761719 6.47917 0.103516 6.54297C0.130859 6.60677 0.174154 6.66602 0.233398 6.7207L5.37402 11.6973C5.47428 11.7975 5.59961 11.8477 5.75 11.8477C5.85026 11.8477 5.93913 11.8249 6.0166 11.7793C6.09863 11.7383 6.16243 11.6768 6.20801 11.5947C6.25814 11.5127 6.2832 11.4215 6.2832 11.3213C6.2832 11.1755 6.23307 11.0501 6.13281 10.9453L1.36133 6.33105L6.13281 1.72363C6.23307 1.61426 6.2832 1.48893 6.2832 1.34766C6.2832 1.24284 6.25814 1.15169 6.20801 1.07422C6.16243 0.992188 6.09863 0.928385 6.0166 0.882812C5.93913 0.83724 5.85026 0.814453 5.75 0.814453C5.59961 0.814453 5.47428 0.866862 5.37402 0.97168L0.233398 5.94824C0.174154 6.00293 0.130859 6.06217 0.103516 6.12598C0.0761719 6.18978 0.0625 6.25814 0.0625 6.33105Z" fill="#0B69AF"/>
</svg>
