<svg width="103" height="103" viewBox="0 0 103 103" fill="none" xmlns="http://www.w3.org/2000/svg">
<path d="M23.1641 90.0293H34.248C35.2897 90.0293 36.1686 90.3874 36.8848 91.1035L44.7461 98.916C47.1875 101.357 49.4987 102.578 51.6797 102.578C53.8607 102.578 56.1719 101.357 58.6133 98.916L66.5234 91.1035C67.2396 90.3874 68.1185 90.0293 69.1602 90.0293H80.1953C83.6784 90.0293 86.2012 89.248 87.7637 87.6855C89.3262 86.123 90.1074 83.6165 90.1074 80.166V69.082C90.1074 68.0729 90.4655 67.194 91.1816 66.4453L98.9941 58.5352C101.436 56.1263 102.64 53.8314 102.607 51.6504C102.607 49.4368 101.403 47.1094 98.9941 44.668L91.1816 36.8066C90.4655 36.0579 90.1074 35.179 90.1074 34.1699V23.0859C90.1074 19.6354 89.3262 17.1289 87.7637 15.5664C86.2012 14.0039 83.6784 13.2227 80.1953 13.2227H69.1602C68.1185 13.2227 67.2396 12.8646 66.5234 12.1484L58.6133 4.33594C56.1719 1.86198 53.8607 0.625 51.6797 0.625C49.4987 0.625 47.1875 1.86198 44.7461 4.33594L36.8848 12.1484C36.1686 12.8646 35.2897 13.2227 34.248 13.2227H23.1641C19.7135 13.2227 17.207 14.0039 15.6445 15.5664C14.082 17.0964 13.3008 19.6029 13.3008 23.0859V34.1699C13.3008 35.179 12.9427 36.0579 12.2266 36.8066L4.41406 44.668C1.97266 47.1094 0.751953 49.4368 0.751953 51.6504C0.751953 53.8314 1.97266 56.1263 4.41406 58.5352L12.2266 66.4453C12.9427 67.194 13.3008 68.0729 13.3008 69.082V80.166C13.3008 83.6165 14.082 86.123 15.6445 87.6855C17.207 89.248 19.7135 90.0293 23.1641 90.0293ZM23.1641 85.3906C21.0156 85.3906 19.5996 85.0651 18.916 84.4141C18.2324 83.7305 17.8906 82.3145 17.8906 80.166V67.4219C17.8906 66.1849 17.4674 65.1432 16.6211 64.2969L7.63672 55.3125C6.10677 53.7826 5.3418 52.5456 5.3418 51.6016C5.3418 50.6576 6.10677 49.4206 7.63672 47.8906L16.6211 38.9551C17.4674 38.1087 17.8906 37.0671 17.8906 35.8301V23.0859C17.8906 20.9049 18.2161 19.4889 18.8672 18.8379C19.5508 18.1543 20.9831 17.8125 23.1641 17.8125H35.9082C37.1452 17.8125 38.1868 17.3893 39.0332 16.543L48.0176 7.55859C49.5475 6.02865 50.7682 5.26367 51.6797 5.26367C52.6237 5.26367 53.8607 6.02865 55.3906 7.55859L64.3262 16.543C65.2051 17.3893 66.263 17.8125 67.5 17.8125H80.1953C82.3763 17.8125 83.8086 18.1543 84.4922 18.8379C85.1758 19.5215 85.5176 20.9375 85.5176 23.0859V35.8301C85.5176 37.0671 85.9408 38.1087 86.7871 38.9551L95.7227 47.8906C97.2852 49.4206 98.0664 50.6576 98.0664 51.6016C98.0664 52.5456 97.2852 53.7826 95.7227 55.3125L86.7871 64.2969C85.9408 65.1432 85.5176 66.1849 85.5176 67.4219V80.166C85.5176 82.3145 85.1758 83.7305 84.4922 84.4141C83.8086 85.0651 82.3763 85.3906 80.1953 85.3906H67.5C66.263 85.3906 65.2051 85.8301 64.3262 86.709L55.3906 95.6934C53.8607 97.1908 52.6237 97.9395 51.6797 97.9395C50.7682 97.9395 49.5475 97.1908 48.0176 95.6934L39.0332 86.709C38.1868 85.8301 37.1452 85.3906 35.9082 85.3906H23.1641ZM46.7969 73.4766C47.7083 73.4766 48.4733 73.0371 49.0918 72.1582L72.2852 36.0742C72.4479 35.7812 72.5944 35.4883 72.7246 35.1953C72.8548 34.8698 72.9199 34.5605 72.9199 34.2676C72.9199 33.6491 72.6758 33.1283 72.1875 32.7051C71.6992 32.2819 71.1621 32.0703 70.5762 32.0703C69.7949 32.0703 69.1113 32.5098 68.5254 33.3887L46.6504 67.7148L35.0781 53.7988C34.7526 53.3757 34.4108 53.0827 34.0527 52.9199C33.7272 52.7572 33.3529 52.6758 32.9297 52.6758C32.3112 52.6758 31.7741 52.9036 31.3184 53.3594C30.8952 53.7826 30.6836 54.3197 30.6836 54.9707C30.6836 55.5566 30.9277 56.1751 31.416 56.8262L44.3555 72.1582C44.7135 72.6139 45.0716 72.9557 45.4297 73.1836C45.8203 73.3789 46.276 73.4766 46.7969 73.4766Z" fill="currentColor"/>
</svg>
