<svg width="20" height="20" viewBox="0 0 20 20" fill="none" xmlns="http://www.w3.org/2000/svg">
    <path d="M10.25 19.9297C11.5651 19.9297 12.7988 19.679 13.9512 19.1777C15.11 18.6764 16.1322 17.9831 17.0176 17.0977C17.903 16.2188 18.5964 15.1999 19.0977 14.041C19.599 12.8822 19.8496 11.6452 19.8496 10.3301C19.8496 9.01497 19.5957 7.78125 19.0879 6.62891C18.5866 5.47005 17.8932 4.44792 17.0078 3.5625C16.1289 2.67708 15.11 1.98698 13.9512 1.49219C12.7923 0.990885 11.5553 0.740234 10.2402 0.740234C8.93164 0.740234 7.69792 0.990885 6.53906 1.49219C5.38021 1.98698 4.35807 2.67708 3.47266 3.5625C2.59375 4.44792 1.90365 5.47005 1.40234 6.62891C0.901042 7.78125 0.650391 9.01497 0.650391 10.3301C0.650391 11.6452 0.901042 12.8822 1.40234 14.041C1.90365 15.1999 2.59375 16.2188 3.47266 17.0977C4.35807 17.9831 5.38021 18.6764 6.53906 19.1777C7.69792 19.679 8.9349 19.9297 10.25 19.9297ZM10.25 17.9082C9.20182 17.9082 8.21875 17.7129 7.30078 17.3223C6.38281 16.9316 5.57552 16.3913 4.87891 15.7012C4.1888 15.0046 3.64844 14.1973 3.25781 13.2793C2.86719 12.3613 2.67188 11.3783 2.67188 10.3301C2.67188 9.2819 2.86719 8.29883 3.25781 7.38086C3.64844 6.46289 4.1888 5.65885 4.87891 4.96875C5.57552 4.27214 6.37956 3.72852 7.29102 3.33789C8.20898 2.94727 9.19206 2.75195 10.2402 2.75195C11.2949 2.75195 12.2812 2.94727 13.1992 3.33789C14.1172 3.72852 14.9212 4.27214 15.6113 4.96875C16.3079 5.65885 16.8516 6.46289 17.2422 7.38086C17.6328 8.29883 17.8281 9.2819 17.8281 10.3301C17.8281 11.3783 17.6328 12.3613 17.2422 13.2793C16.8516 14.1973 16.3079 15.0046 15.6113 15.7012C14.9212 16.3913 14.1172 16.9316 13.1992 17.3223C12.2878 17.7129 11.3047 17.9082 10.25 17.9082ZM4.45898 11.8926C4.30273 12.0944 4.2474 12.2832 4.29297 12.459C4.34505 12.6283 4.45247 12.7487 4.61523 12.8203C4.78451 12.8919 4.97331 12.8724 5.18164 12.7617L8.13086 11.1992L11.8223 13.2012C12.0176 13.3184 12.1999 13.377 12.3691 13.377C12.61 13.377 12.8346 13.2467 13.043 12.9863L16.0312 9.16797C16.181 8.97917 16.2331 8.80013 16.1875 8.63086C16.1419 8.45508 16.0378 8.33138 15.875 8.25977C15.7122 8.18815 15.5234 8.20768 15.3086 8.31836L12.3496 9.87109L8.6582 7.86914C8.45638 7.75195 8.27409 7.69336 8.11133 7.69336C7.87044 7.69336 7.64583 7.82682 7.4375 8.09375L4.45898 11.8926Z" fill="currentColor" />
</svg>