<svg width="44" height="37" viewBox="0 0 44 37" fill="none" xmlns="http://www.w3.org/2000/svg">
<path d="M2.88281 20.3008H40.793V17.332H2.88281V20.3008ZM10.4023 22.8008H14.9531C15.6302 22.8008 16.151 22.6185 16.5156 22.2539C16.8932 21.8763 17.082 21.349 17.082 20.6719V16.9609C17.082 16.2969 16.8932 15.7826 16.5156 15.418C16.151 15.0404 15.6302 14.8516 14.9531 14.8516H10.4023C9.72526 14.8516 9.19792 15.0404 8.82031 15.418C8.44271 15.7826 8.25391 16.2969 8.25391 16.9609V20.6719C8.25391 21.349 8.44271 21.8763 8.82031 22.2539C9.19792 22.6185 9.72526 22.8008 10.4023 22.8008ZM28.7031 22.8008H33.2734C33.9505 22.8008 34.4779 22.6185 34.8555 22.2539C35.2331 21.8763 35.4219 21.349 35.4219 20.6719V16.9609C35.4219 16.2969 35.2331 15.7826 34.8555 15.418C34.4779 15.0404 33.9505 14.8516 33.2734 14.8516H28.7031C28.026 14.8516 27.4987 15.0404 27.1211 15.418C26.7565 15.7826 26.5742 16.2969 26.5742 16.9609V20.6719C26.5742 21.349 26.7565 21.8763 27.1211 22.2539C27.4987 22.6185 28.026 22.8008 28.7031 22.8008ZM6.06641 36.5312H37.6094C39.5495 36.5312 41.0078 36.0495 41.9844 35.0859C42.974 34.1354 43.4688 32.6966 43.4688 30.7695V12.7227C43.4688 10.7956 42.974 9.35677 41.9844 8.40625C41.0078 7.44271 39.5495 6.96094 37.6094 6.96094H6.06641C4.1263 6.96094 2.66146 7.44271 1.67188 8.40625C0.695312 9.35677 0.207031 10.7956 0.207031 12.7227V30.7695C0.207031 32.6966 0.695312 34.1354 1.67188 35.0859C2.66146 36.0495 4.1263 36.5312 6.06641 36.5312ZM6.16406 33.3086C5.30469 33.3086 4.65365 33.0872 4.21094 32.6445C3.76823 32.2018 3.54688 31.5312 3.54688 30.6328V12.8594C3.54688 11.9609 3.76823 11.2904 4.21094 10.8477C4.65365 10.4049 5.30469 10.1836 6.16406 10.1836H37.5117C38.3711 10.1836 39.0221 10.4049 39.4648 10.8477C39.9206 11.2904 40.1484 11.9609 40.1484 12.8594V30.6328C40.1484 31.5312 39.9206 32.2018 39.4648 32.6445C39.0221 33.0872 38.3711 33.3086 37.5117 33.3086H6.16406ZM10.7734 8.50391H13.8789V5.39844C13.8789 4.73438 14.0677 4.22656 14.4453 3.875C14.8229 3.52344 15.3503 3.34766 16.0273 3.34766H27.6484C28.3255 3.34766 28.8529 3.52344 29.2305 3.875C29.6081 4.22656 29.7969 4.73438 29.7969 5.39844V8.46484H32.9219V5.57422C32.9219 3.84245 32.4661 2.5599 31.5547 1.72656C30.6562 0.880208 29.3542 0.457031 27.6484 0.457031H16.0273C14.4128 0.457031 13.1302 0.880208 12.1797 1.72656C11.2422 2.5599 10.7734 3.84245 10.7734 5.57422V8.50391Z" fill="currentColor"/>
</svg>
