<svg width="47" height="43" viewBox="0 0 47 43" fill="none" xmlns="http://www.w3.org/2000/svg">
    <path d="M6.42188 18.9893L14.3711 10.8643C14.5273 10.695 14.6901 10.6104 14.8594 10.6104C15.0286 10.6104 15.1979 10.695 15.3672 10.8643L22.0469 17.7393C22.4635 18.1689 22.8867 18.488 23.3164 18.6963C23.7591 18.9046 24.2018 19.0088 24.6445 19.0088C25.5169 19.0088 26.3763 18.5856 27.2227 17.7393L34.7812 10.1611L37.75 13.1299C37.9974 13.3773 38.2578 13.501 38.5312 13.501C38.8047 13.501 39.0521 13.4033 39.2734 13.208C39.4948 12.9997 39.651 12.7262 39.7422 12.3877L42.4961 1.54785C42.5742 1.23535 42.5482 0.948893 42.418 0.688477C42.2878 0.42806 42.0924 0.239258 41.832 0.12207C41.5716 -0.00813802 41.2917 -0.0341797 40.9922 0.0439453L30.1328 2.79785C29.7943 2.889 29.5273 3.04525 29.332 3.2666C29.1367 3.47493 29.0391 3.71582 29.0391 3.98926C29.0391 4.2627 29.1562 4.52311 29.3906 4.77051L32.3789 7.71973L25.1328 15.083C24.9766 15.2393 24.8138 15.3174 24.6445 15.3174C24.4753 15.3174 24.306 15.2327 24.1367 15.0635L17.457 8.16895C17.0404 7.73926 16.6172 7.42676 16.1875 7.23145C15.7578 7.02311 15.3151 6.91895 14.8594 6.91895C14.4167 6.91895 13.987 7.0166 13.5703 7.21191C13.1536 7.40723 12.724 7.72624 12.2812 8.16895L4 16.5869L6.42188 18.9893Z" fill="currentColor" />
    <path d="M14.5581 24.5586C13.9461 24.9232 13.2625 25.1055 12.5073 25.1055C11.7651 25.1055 11.0881 24.9232 10.4761 24.5586C9.86409 24.194 9.37581 23.7122 9.01123 23.1133C8.64665 22.5013 8.46436 21.8177 8.46436 21.0625C8.46436 20.3073 8.64665 19.6237 9.01123 19.0117C9.37581 18.3997 9.86409 17.9115 10.4761 17.5469C11.0881 17.1823 11.7651 17 12.5073 17C13.2625 17 13.9461 17.1823 14.5581 17.5469C15.1701 17.9115 15.6584 18.3997 16.0229 19.0117C16.3875 19.6237 16.5698 20.3073 16.5698 21.0625C16.5698 21.8177 16.3875 22.5013 16.0229 23.1133C15.6584 23.7122 15.1701 24.194 14.5581 24.5586Z" fill="currentColor" />
    <path d="M7.53635 43H17.4824C17.417 42.6673 17.3667 42.3991 17.3315 42.1953C17.2534 41.6875 17.1883 41.082 17.1362 40.3789C17.0841 39.6628 17.0451 38.9206 17.019 38.1523C16.993 37.3841 16.9735 36.6549 16.9604 35.9648C16.9474 35.2617 16.9409 34.6628 16.9409 34.168C16.9409 34.0247 16.9995 33.9336 17.1167 33.8945C17.2339 33.8424 17.3381 33.8815 17.4292 34.0117C17.7808 34.5065 18.1844 35.0729 18.6401 35.7109C19.0959 36.3359 19.5451 36.9674 19.9878 37.6055C20.4305 38.2305 20.8211 38.7773 21.1597 39.2461C21.3353 39.4826 21.4812 39.677 21.5973 39.8293C21.6549 39.9242 21.7238 40.0131 21.804 40.0959C21.8182 40.1137 21.8313 40.1299 21.8433 40.1445C22.1297 40.4701 22.4748 40.6654 22.8784 40.7305C22.9853 40.7438 23.0909 40.7482 23.1953 40.7436C23.2971 40.7482 23.3999 40.7438 23.5034 40.7305C23.9071 40.6654 24.2586 40.4701 24.5581 40.1445C24.57 40.1299 24.5831 40.1137 24.5974 40.0959C24.6776 40.0131 24.7465 39.9242 24.8041 39.8293C24.9202 39.677 25.066 39.4826 25.2417 39.2461C25.5802 38.7773 25.9709 38.2305 26.4136 37.6055C26.8563 36.9805 27.3055 36.349 27.7612 35.7109C28.217 35.0729 28.6141 34.5065 28.9526 34.0117C29.0438 33.8945 29.1479 33.8555 29.2651 33.8945C29.3953 33.9336 29.4604 34.0247 29.4604 34.168C29.4604 34.6628 29.4539 35.2617 29.4409 35.9648C29.4279 36.668 29.4019 37.4036 29.3628 38.1719C29.3368 38.9271 29.2977 39.6628 29.2456 40.3789C29.2065 41.082 29.1479 41.6875 29.0698 42.1953C29.0277 42.3991 28.9722 42.6673 28.9035 43H38.8496C38.7842 42.6673 38.7339 42.3991 38.6987 42.1953C38.6206 41.6875 38.5555 41.082 38.5034 40.3789C38.4513 39.6628 38.4123 38.9206 38.3862 38.1523C38.3602 37.3841 38.3407 36.6549 38.3276 35.9648C38.3146 35.2617 38.3081 34.6628 38.3081 34.168C38.3081 34.0247 38.3667 33.9336 38.4839 33.8945C38.6011 33.8424 38.7052 33.8815 38.7964 34.0117C39.1479 34.5065 39.5516 35.0729 40.0073 35.7109C40.4631 36.3359 40.9123 36.9674 41.355 37.6055C41.7977 38.2305 42.1883 38.7773 42.5269 39.2461C42.8654 39.7018 43.0933 40.0013 43.2104 40.1445C43.4969 40.4701 43.842 40.6654 44.2456 40.7305C44.6623 40.7826 45.0594 40.6979 45.437 40.4766C45.9188 40.2292 46.2183 39.8841 46.3354 39.4414C46.4526 38.9857 46.4136 38.5755 46.2183 38.2109C46.1401 38.0677 46.0555 37.931 45.9644 37.8008C45.8732 37.6576 45.7756 37.5143 45.6714 37.3711L40.8667 30.2617C40.3589 29.5195 39.786 28.9076 39.1479 28.4258C38.5229 27.944 37.7873 27.5859 36.9409 27.3516C36.0946 27.1172 35.0724 27 33.8745 27C32.6896 27 31.674 27.1172 30.8276 27.3516C29.9813 27.5859 29.2391 27.944 28.6011 28.4258C27.9761 28.9076 27.4097 29.5195 26.9019 30.2617L23.1932 35.7271L19.4995 30.2617C18.9917 29.5195 18.4188 28.9076 17.7808 28.4258C17.1558 27.944 16.4201 27.5859 15.5737 27.3516C14.7274 27.1172 13.7052 27 12.5073 27C11.3224 27 10.3068 27.1172 9.46045 27.3516C8.61409 27.5859 7.87191 27.944 7.23389 28.4258C6.60889 28.9076 6.04248 29.5195 5.53467 30.2617L0.710449 37.3711L0.437012 37.8008C0.345866 37.931 0.26123 38.0677 0.183105 38.2109C-0.012207 38.5755 -0.0512695 38.9857 0.065918 39.4414C0.183105 39.8841 0.482585 40.2292 0.964355 40.4766C1.34196 40.6979 1.73258 40.7826 2.13623 40.7305C2.53988 40.6654 2.89144 40.4701 3.19092 40.1445C3.30811 40.0013 3.53597 39.7018 3.87451 39.2461C4.21305 38.7773 4.60368 38.2305 5.04639 37.6055C5.4891 36.9805 5.93831 36.349 6.39404 35.7109C6.84977 35.0729 7.24691 34.5065 7.58545 34.0117C7.6766 33.8945 7.78076 33.8555 7.89795 33.8945C8.02816 33.9336 8.09326 34.0247 8.09326 34.168C8.09326 34.6628 8.08675 35.2617 8.07373 35.9648C8.06071 36.668 8.03467 37.4036 7.99561 38.1719C7.96956 38.9271 7.9305 39.6628 7.87842 40.3789C7.83936 41.082 7.78076 41.6875 7.70264 42.1953C7.66048 42.3991 7.60505 42.6673 7.53635 43Z" fill="currentColor" />
    <path d="M35.9253 24.5586C35.3133 24.9232 34.6297 25.1055 33.8745 25.1055C33.1323 25.1055 32.4552 24.9232 31.8433 24.5586C31.2313 24.194 30.743 23.7122 30.3784 23.1133C30.0138 22.5013 29.8315 21.8177 29.8315 21.0625C29.8315 20.3073 30.0138 19.6237 30.3784 19.0117C30.743 18.3997 31.2313 17.9115 31.8433 17.5469C32.4552 17.1823 33.1323 17 33.8745 17C34.6297 17 35.3133 17.1823 35.9253 17.5469C36.5373 17.9115 37.0256 18.3997 37.3901 19.0117C37.7547 19.6237 37.937 20.3073 37.937 21.0625C37.937 21.8177 37.7547 22.5013 37.3901 23.1133C37.0256 23.7122 36.5373 24.194 35.9253 24.5586Z" fill="currentColor" />
</svg>