<svg width="20" height="15" viewBox="0 0 20 15" fill="none" xmlns="http://www.w3.org/2000/svg">
<path d="M3.40625 14.8203H16.5781C17.4427 14.8203 18.1094 14.5859 18.5781 14.1172C19.0469 13.6536 19.2812 12.9922 19.2812 12.1328V4.33594C19.2812 3.47656 19.0469 2.8151 18.5781 2.35156C18.1094 1.88281 17.4427 1.64844 16.5781 1.64844H14.7812C14.5938 1.64844 14.4375 1.63802 14.3125 1.61719C14.1875 1.59635 14.0703 1.55469 13.9609 1.49219C13.8516 1.42448 13.7266 1.32552 13.5859 1.19531L13.0156 0.648438C12.8021 0.450521 12.5781 0.307292 12.3438 0.21875C12.1146 0.130208 11.8151 0.0859375 11.4453 0.0859375H8.52344C8.15885 0.0859375 7.85938 0.130208 7.625 0.21875C7.39062 0.307292 7.16927 0.450521 6.96094 0.648438L6.38281 1.19531C6.17969 1.38802 6 1.51302 5.84375 1.57031C5.69271 1.6224 5.47656 1.64844 5.19531 1.64844H3.40625C2.54688 1.64844 1.88281 1.88281 1.41406 2.35156C0.945312 2.8151 0.710938 3.47656 0.710938 4.33594V12.1328C0.710938 12.9922 0.945312 13.6536 1.41406 14.1172C1.88281 14.5859 2.54688 14.8203 3.40625 14.8203ZM3.67188 12.6953C3.39583 12.6953 3.1875 12.6276 3.04688 12.4922C2.90625 12.3568 2.83594 12.1432 2.83594 11.8516V4.625C2.83594 4.32812 2.90625 4.11198 3.04688 3.97656C3.1875 3.84115 3.39583 3.77344 3.67188 3.77344H5.92969C6.26302 3.77344 6.52344 3.73958 6.71094 3.67188C6.89844 3.60417 7.08594 3.47135 7.27344 3.27344L7.79688 2.72656C7.99479 2.52344 8.17708 2.38802 8.34375 2.32031C8.51562 2.2474 8.75781 2.21094 9.07031 2.21094H10.9062C11.2188 2.21094 11.4583 2.2474 11.625 2.32031C11.7917 2.38802 11.9661 2.51823 12.1484 2.71094L12.7031 3.27344C12.8906 3.47135 13.0781 3.60417 13.2656 3.67188C13.4531 3.73958 13.7109 3.77344 14.0391 3.77344H16.3125C16.5885 3.77344 16.7969 3.84115 16.9375 3.97656C17.0833 4.11198 17.1562 4.32812 17.1562 4.625V11.8516C17.1562 12.1432 17.0833 12.3568 16.9375 12.4922C16.7969 12.6276 16.5885 12.6953 16.3125 12.6953H3.67188ZM10 11.9219C10.7135 11.9219 11.3646 11.7474 11.9531 11.3984C12.5417 11.0495 13.0078 10.5833 13.3516 10C13.7005 9.41146 13.875 8.75521 13.875 8.03125C13.875 7.3125 13.7005 6.65885 13.3516 6.07031C13.0078 5.48177 12.5417 5.01302 11.9531 4.66406C11.3646 4.3151 10.7135 4.14062 10 4.14062C9.28125 4.14062 8.6276 4.3151 8.03906 4.66406C7.45052 5.01302 6.98177 5.48177 6.63281 6.07031C6.28385 6.65885 6.10938 7.3125 6.10938 8.03125C6.10938 8.75521 6.28385 9.41146 6.63281 10C6.98177 10.5833 7.45052 11.0495 8.03906 11.3984C8.6276 11.7474 9.28125 11.9219 10 11.9219ZM10 10.0859C9.61979 10.0859 9.27344 9.99479 8.96094 9.8125C8.65365 9.625 8.40625 9.3776 8.21875 9.07031C8.03646 8.75781 7.94531 8.41146 7.94531 8.03125C7.94531 7.65104 8.03646 7.30469 8.21875 6.99219C8.40625 6.67969 8.65365 6.43229 8.96094 6.25C9.27344 6.06771 9.61979 5.97656 10 5.97656C10.3802 5.97656 10.724 6.06771 11.0312 6.25C11.3385 6.43229 11.5833 6.67969 11.7656 6.99219C11.9531 7.30469 12.0469 7.65104 12.0469 8.03125C12.0469 8.41146 11.9531 8.75781 11.7656 9.07031C11.5833 9.3776 11.3385 9.625 11.0312 9.8125C10.724 9.99479 10.3802 10.0859 10 10.0859ZM14.0078 5.54688C14.0078 5.83854 14.1094 6.08854 14.3125 6.29688C14.5208 6.5 14.7708 6.59896 15.0625 6.59375C15.349 6.58854 15.5938 6.48698 15.7969 6.28906C16.0052 6.08594 16.1094 5.83854 16.1094 5.54688C16.1094 5.26562 16.0052 5.02083 15.7969 4.8125C15.5885 4.60417 15.3438 4.5 15.0625 4.5C14.776 4.5 14.5286 4.60417 14.3203 4.8125C14.112 5.02083 14.0078 5.26562 14.0078 5.54688Z" fill="currentColor"/>
</svg>
