<svg width="18" height="17" viewBox="0 0 18 17" fill="none" xmlns="http://www.w3.org/2000/svg">
<path d="M7.13477 16.7773C7.8444 16.7773 8.38151 16.5072 8.74609 15.9668L17.3105 2.96875C17.4473 2.76693 17.5449 2.57161 17.6035 2.38281C17.6621 2.1875 17.6914 2.00195 17.6914 1.82617C17.6914 1.3444 17.5254 0.94401 17.1934 0.625C16.8678 0.299479 16.4544 0.136719 15.9531 0.136719C15.6146 0.136719 15.3281 0.205078 15.0938 0.341797C14.8594 0.478516 14.6348 0.709635 14.4199 1.03516L7.0957 12.5684L3.4043 8.07617C3.03971 7.64648 2.58398 7.43164 2.03711 7.43164C1.53581 7.43164 1.11914 7.5944 0.787109 7.91992C0.461589 8.23893 0.298828 8.64258 0.298828 9.13086C0.298828 9.35221 0.334635 9.56055 0.40625 9.75586C0.484375 9.95117 0.617839 10.1562 0.806641 10.3711L5.5625 16.0547C5.97917 16.5365 6.50326 16.7773 7.13477 16.7773Z" fill="currentColor"/>
</svg>
