<svg width="22" height="22" viewBox="0 0 22 22" fill="none" xmlns="http://www.w3.org/2000/svg">
<path d="M5.43359 19.4844H7.37695C7.5332 19.4844 7.66667 19.5397 7.77734 19.6504L9.1543 21.0176C9.78581 21.6426 10.401 21.9551 11 21.9551C11.6055 21.9551 12.2207 21.6426 12.8457 21.0176L14.2324 19.6504C14.3366 19.5397 14.4668 19.4844 14.623 19.4844H16.5664C17.4518 19.4844 18.1094 19.2695 18.5391 18.8398C18.9688 18.4102 19.1836 17.7559 19.1836 16.877V14.9238C19.1836 14.7676 19.2357 14.6374 19.3398 14.5332L20.7168 13.1465C21.3418 12.528 21.6543 11.916 21.6543 11.3105C21.6543 10.6986 21.3418 10.0801 20.7168 9.45508L19.3398 8.07812C19.2357 7.96745 19.1836 7.83724 19.1836 7.6875V5.74414C19.1836 4.85872 18.9688 4.20117 18.5391 3.77148C18.1094 3.33529 17.4518 3.11719 16.5664 3.11719H14.623C14.4668 3.11719 14.3366 3.0651 14.2324 2.96094L12.8457 1.58398C12.2207 0.958984 11.6055 0.64974 11 0.65625C10.401 0.65625 9.78581 0.96875 9.1543 1.59375L7.77734 2.96094C7.66667 3.0651 7.5332 3.11719 7.37695 3.11719H5.43359C4.55469 3.11719 3.90039 3.33203 3.4707 3.76172C3.04102 4.19141 2.82617 4.85221 2.82617 5.74414V7.6875C2.82617 7.83724 2.77083 7.96745 2.66016 8.07812L1.2832 9.45508C0.658203 10.0801 0.345703 10.6986 0.345703 11.3105C0.352214 11.916 0.664714 12.528 1.2832 13.1465L2.66016 14.5332C2.77083 14.6374 2.82617 14.7676 2.82617 14.9238V16.877C2.82617 17.7559 3.04102 18.4102 3.4707 18.8398C3.90039 19.2695 4.55469 19.4844 5.43359 19.4844ZM5.72656 17.5215C5.32292 17.5215 5.06576 17.4661 4.95508 17.3555C4.8444 17.2448 4.78581 16.9909 4.7793 16.5938V14.2695C4.7793 14.0091 4.69141 13.7878 4.51562 13.6055L2.875 11.9746C2.58854 11.6816 2.44531 11.4603 2.44531 11.3105C2.44531 11.1543 2.58854 10.9329 2.875 10.6465L4.51562 9.01562C4.69141 8.83333 4.78255 8.61198 4.78906 8.35156V6.02734C4.78906 5.6237 4.84115 5.36979 4.94531 5.26562C5.05599 5.15495 5.31641 5.09961 5.72656 5.09961L8.04102 5.08984C8.30794 5.08984 8.5293 4.9987 8.70508 4.81641L10.3457 3.18555C10.6322 2.89909 10.8503 2.75586 11 2.75586C11.1497 2.74935 11.3711 2.89258 11.6641 3.18555L13.2949 4.81641C13.4707 4.9987 13.6921 5.08984 13.959 5.08984L16.2734 5.09961C16.6771 5.09961 16.9342 5.15495 17.0449 5.26562C17.1556 5.3763 17.2109 5.63021 17.2109 6.02734V8.35156C17.2174 8.61198 17.3086 8.83333 17.4844 9.01562L19.125 10.6465C19.4115 10.9329 19.5547 11.1543 19.5547 11.3105C19.5547 11.4603 19.4115 11.6816 19.125 11.9746L17.4844 13.6055C17.3086 13.7878 17.2207 14.0091 17.2207 14.2695L17.2109 16.5938C17.2109 16.9909 17.1556 17.2448 17.0449 17.3555C16.9342 17.4661 16.6771 17.5215 16.2734 17.5215L13.959 17.5312C13.6921 17.5312 13.4707 17.6191 13.2949 17.7949L11.6641 19.4355C11.3776 19.722 11.1562 19.8652 11 19.8652C10.8503 19.8652 10.6322 19.722 10.3457 19.4355L8.70508 17.7949C8.5293 17.6191 8.30794 17.5312 8.04102 17.5312L5.72656 17.5215ZM10.0332 15.7051C10.4173 15.7051 10.7201 15.5293 10.9414 15.1777L14.9453 8.98633C15.0169 8.88216 15.0755 8.77148 15.1211 8.6543C15.1667 8.53711 15.1895 8.42318 15.1895 8.3125C15.1895 8.05859 15.0918 7.85026 14.8965 7.6875C14.7012 7.51823 14.4798 7.43359 14.2324 7.43359C13.8939 7.43359 13.6172 7.61263 13.4023 7.9707L10.0039 13.4199L8.43164 11.4668C8.31445 11.3236 8.19401 11.2227 8.07031 11.1641C7.94661 11.099 7.8099 11.0664 7.66016 11.0664C7.39974 11.0664 7.17839 11.1576 6.99609 11.3398C6.8138 11.5156 6.72266 11.7337 6.72266 11.9941C6.72266 12.2285 6.8138 12.4596 6.99609 12.6875L9.08594 15.1973C9.22266 15.3665 9.36589 15.4935 9.51562 15.5781C9.66536 15.6628 9.83789 15.7051 10.0332 15.7051Z" fill="#031723"/>
</svg>
