<svg width="20" height="21" viewBox="0 0 20 21" fill="none" xmlns="http://www.w3.org/2000/svg">
<path d="M10 20.0371C11.3346 20.0371 12.5879 19.7832 13.7598 19.2754C14.9316 18.7741 15.9635 18.0775 16.8555 17.1855C17.7474 16.2936 18.444 15.2617 18.9453 14.0898C19.4531 12.918 19.707 11.6647 19.707 10.3301C19.707 9.00195 19.4531 7.75195 18.9453 6.58008C18.444 5.4082 17.7441 4.3763 16.8457 3.48438C15.9538 2.59245 14.9219 1.89258 13.75 1.38477C12.5781 0.876953 11.3249 0.623047 9.99023 0.623047C8.66862 0.623047 7.42188 0.876953 6.25 1.38477C5.07812 1.89258 4.04297 2.59245 3.14453 3.48438C2.2526 4.3763 1.55273 5.4082 1.04492 6.58008C0.54362 7.75195 0.292969 9.00195 0.292969 10.3301C0.292969 11.6647 0.546875 12.918 1.05469 14.0898C1.5625 15.2617 2.26237 16.2936 3.1543 17.1855C4.04622 18.0775 5.07812 18.7741 6.25 19.2754C7.42188 19.7832 8.67188 20.0371 10 20.0371ZM10 17.7324C8.97786 17.7324 8.01758 17.5404 7.11914 17.1562C6.22721 16.7786 5.44271 16.2513 4.76562 15.5742C4.08854 14.8971 3.55794 14.1126 3.17383 13.2207C2.79622 12.3223 2.60742 11.3587 2.60742 10.3301C2.60742 9.30794 2.79622 8.35091 3.17383 7.45898C3.55794 6.56055 4.08854 5.77279 4.76562 5.0957C5.44271 4.41862 6.22721 3.89128 7.11914 3.51367C8.01107 3.12956 8.9681 2.9375 9.99023 2.9375C11.0254 2.9375 11.9889 3.12956 12.8809 3.51367C13.7793 3.89128 14.5671 4.41862 15.2441 5.0957C15.9212 5.77279 16.4486 6.56055 16.8262 7.45898C17.2103 8.35091 17.4023 9.30794 17.4023 10.3301C17.4023 11.3587 17.2103 12.3223 16.8262 13.2207C16.4486 14.1126 15.9212 14.8971 15.2441 15.5742C14.5671 16.2513 13.7793 16.7786 12.8809 17.1562C11.9889 17.5404 11.0286 17.7324 10 17.7324ZM9.02344 14.7344C9.40755 14.7344 9.71029 14.5586 9.93164 14.207L13.9355 8.01562C14.0072 7.91146 14.0658 7.80078 14.1113 7.68359C14.1569 7.56641 14.1797 7.45247 14.1797 7.3418C14.1797 7.08789 14.082 6.87956 13.8867 6.7168C13.6914 6.54753 13.4701 6.46289 13.2227 6.46289C12.8841 6.46289 12.6074 6.64193 12.3926 7L8.99414 12.4492L7.42188 10.4961C7.30469 10.3529 7.18424 10.252 7.06055 10.1934C6.93685 10.1283 6.80013 10.0957 6.65039 10.0957C6.38997 10.0957 6.16862 10.1868 5.98633 10.3691C5.80404 10.5449 5.71289 10.763 5.71289 11.0234C5.71289 11.2578 5.80404 11.4889 5.98633 11.7168L8.07617 14.2266C8.21289 14.3958 8.35612 14.5228 8.50586 14.6074C8.6556 14.6921 8.82812 14.7344 9.02344 14.7344Z" fill="currentColor"/>
</svg>
