<svg width="14" height="9" viewBox="0 0 14 9" fill="none" xmlns="http://www.w3.org/2000/svg">
<path d="M7.19531 8.01562C7.28385 8.01562 7.36719 8 7.44531 7.96875C7.52344 7.93229 7.59115 7.88021 7.64844 7.8125L13.3281 1.94531C13.4479 1.82031 13.5078 1.67708 13.5078 1.51562C13.5078 1.39583 13.4818 1.29167 13.4297 1.20312C13.3776 1.10938 13.3047 1.03646 13.2109 0.984375C13.1172 0.927083 13.013 0.898438 12.8984 0.898438C12.7318 0.898438 12.5859 0.958333 12.4609 1.07812L6.82812 6.89844H7.57031L1.92188 1.07812C1.80208 0.958333 1.65885 0.898438 1.49219 0.898438C1.3776 0.898438 1.27344 0.927083 1.17969 0.984375C1.09115 1.03646 1.01823 1.10938 0.960938 1.20312C0.908854 1.29167 0.882812 1.39583 0.882812 1.51562C0.882812 1.59896 0.898438 1.67708 0.929688 1.75C0.966146 1.82292 1.01302 1.88802 1.07031 1.94531L6.73438 7.82031C6.86979 7.95052 7.02344 8.01562 7.19531 8.01562Z" fill="currentColor"/>
</svg>
