<svg width="43" height="43" viewBox="0 0 43 43" fill="none" xmlns="http://www.w3.org/2000/svg">
<path d="M21.9805 42.9141C24.8711 42.9141 27.5859 42.3672 30.125 41.2734C32.6641 40.1797 34.8971 38.6693 36.8242 36.7422C38.7513 34.8151 40.2617 32.5885 41.3555 30.0625C42.4492 27.5234 42.9961 24.8086 42.9961 21.918C42.9961 19.0273 42.4492 16.319 41.3555 13.793C40.2617 11.2539 38.7513 9.02083 36.8242 7.09375C34.8971 5.15365 32.6641 3.64323 30.125 2.5625C27.5859 1.46875 24.8711 0.921875 21.9805 0.921875C19.1029 0.921875 16.3945 1.46875 13.8555 2.5625C11.3164 3.64323 9.08333 5.15365 7.15625 7.09375C5.22917 9.02083 3.71875 11.2539 2.625 13.793C1.53125 16.319 0.984375 19.0273 0.984375 21.918C0.984375 24.8086 1.53125 27.5234 2.625 30.0625C3.71875 32.5885 5.22917 34.8151 7.15625 36.7422C9.08333 38.6693 11.3164 40.1797 13.8555 41.2734C16.3945 42.3672 19.1029 42.9141 21.9805 42.9141ZM21.9805 36.8008C19.9232 36.8008 17.9961 36.4167 16.1992 35.6484C14.4023 34.8802 12.8203 33.819 11.4531 32.4648C10.0859 31.0977 9.01823 29.5156 8.25 27.7188C7.48177 25.9089 7.09766 23.9753 7.09766 21.918C7.09766 19.8477 7.48177 17.9141 8.25 16.1172C9.01823 14.3203 10.0859 12.7383 11.4531 11.3711C12.8203 10.0039 14.4023 8.9362 16.1992 8.16797C17.9961 7.39974 19.9232 7.01562 21.9805 7.01562C24.0508 7.01562 25.9844 7.39974 27.7812 8.16797C29.5781 8.9362 31.1602 10.0039 32.5273 11.3711C33.8945 12.7383 34.9622 14.3203 35.7305 16.1172C36.5117 17.9141 36.9023 19.8477 36.9023 21.918C36.9023 23.9753 36.5117 25.9089 35.7305 27.7188C34.9622 29.5156 33.8945 31.0977 32.5273 32.4648C31.1732 33.819 29.5911 34.8802 27.7812 35.6484C25.9844 36.4167 24.0508 36.8008 21.9805 36.8008Z" fill="#6CD6E5"/>
</svg>
