<svg width="102" height="99" viewBox="0 0 102 99" fill="none" xmlns="http://www.w3.org/2000/svg">
<path d="M30.7363 71.7188C29.9551 70.8724 28.946 70.4492 27.709 70.4492C26.5046 70.4492 25.4792 70.8561 24.6328 71.6699L15.1113 81.1426C14.2975 81.9564 13.8743 82.9655 13.8418 84.1699C13.8418 85.3743 14.2487 86.3997 15.0625 87.2461C15.9089 88.0924 16.9505 88.5156 18.1875 88.5156C19.4245 88.5482 20.4499 88.1413 21.2637 87.2949L30.7363 77.8223C31.5827 77.0085 32.0059 75.9993 32.0059 74.7949C32.0059 73.5579 31.5827 72.5326 30.7363 71.7188ZM22.4355 51.4551C22.4355 50.2832 21.9961 49.2741 21.1172 48.4277C20.2708 47.5488 19.2454 47.1094 18.041 47.1094H4.51562C3.3112 47.1094 2.26953 47.5488 1.39062 48.4277C0.544271 49.2741 0.121094 50.2832 0.121094 51.4551C0.121094 52.6595 0.544271 53.7012 1.39062 54.5801C2.26953 55.4264 3.3112 55.8496 4.51562 55.8496H18.041C19.2454 55.8496 20.2708 55.4264 21.1172 54.5801C21.9961 53.7012 22.4355 52.6595 22.4355 51.4551ZM30.3457 30.8496C31.1921 30.0358 31.6152 29.0267 31.6152 27.8223C31.6152 26.6178 31.1921 25.5924 30.3457 24.7461L20.9219 15.2734C20.1081 14.4271 19.0827 14.0039 17.8457 14.0039C16.6413 13.9714 15.6159 14.362 14.7695 15.1758C13.9232 16.0221 13.5 17.0638 13.5 18.3008C13.5 19.5052 13.9232 20.5143 14.7695 21.3281L24.1934 30.8496C25.0072 31.696 26.0163 32.1191 27.2207 32.1191C28.4577 32.1191 29.4993 31.696 30.3457 30.8496ZM51 22.8418C52.2044 22.8418 53.2298 22.4186 54.0762 21.5723C54.9551 20.6934 55.3945 19.668 55.3945 18.4961V4.9707C55.3945 3.79883 54.9551 2.78971 54.0762 1.94336C53.2298 1.06445 52.2044 0.625 51 0.625C49.7956 0.625 48.7539 1.06445 47.875 1.94336C47.0286 2.78971 46.6055 3.79883 46.6055 4.9707V18.4961C46.6055 19.668 47.0286 20.6934 47.875 21.5723C48.7539 22.4186 49.7956 22.8418 51 22.8418ZM71.2148 31.3379C72.0286 32.1517 73.054 32.5586 74.291 32.5586C75.528 32.5586 76.5534 32.1354 77.3672 31.2891L86.8887 21.8164C87.7025 20.9701 88.0931 19.9284 88.0605 18.6914C88.0605 17.4544 87.6536 16.429 86.8398 15.6152C86.026 14.8014 85.0007 14.3945 83.7637 14.3945C82.5592 14.3945 81.5501 14.8177 80.7363 15.6641L71.2148 25.1855C70.3685 25.9993 69.9453 27.0247 69.9453 28.2617C69.9453 29.4661 70.3685 30.4915 71.2148 31.3379ZM79.6133 51.4551C79.6133 52.6595 80.0365 53.7012 80.8828 54.5801C81.7617 55.4264 82.8034 55.8496 84.0078 55.8496H97.5332C98.7051 55.8496 99.7142 55.4264 100.561 54.5801C101.439 53.7012 101.879 52.6595 101.879 51.4551C101.879 50.2832 101.439 49.2741 100.561 48.4277C99.7142 47.5488 98.7051 47.1094 97.5332 47.1094H84.0078C82.8034 47.1094 81.7617 47.5488 80.8828 48.4277C80.0365 49.2741 79.6133 50.2832 79.6133 51.4551ZM48.0703 81.2402C48.0703 82.347 48.5423 83.0469 49.4863 83.3398C50.4303 83.6328 51.2767 83.4375 52.0254 82.7539L59.7402 74.8926L68.5293 96.5723C68.6921 97.0931 69.0339 97.4837 69.5547 97.7441C70.0755 98.0046 70.6126 98.0371 71.166 97.8418L76.4395 95.7422C76.9603 95.4818 77.3021 95.0749 77.4648 94.5215C77.6276 94.0007 77.5788 93.4798 77.3184 92.959L68.1387 71.5723L79.1738 71.2305C80.2155 71.1979 80.9316 70.7747 81.3223 69.9609C81.7129 69.1146 81.5339 68.3008 80.7852 67.5195L52.1719 38.1738C51.4883 37.4577 50.7233 37.2624 49.877 37.5879C49.0306 37.8809 48.5911 38.5645 48.5586 39.6387L48.0703 81.2402Z" fill="currentColor"/>
</svg>
