<svg width="18" height="17" viewBox="0 0 18 17" fill="none" xmlns="http://www.w3.org/2000/svg">
<path d="M5.71094 11.9219C5.54948 11.75 5.34375 11.6641 5.09375 11.6641C4.84896 11.6589 4.64583 11.7396 4.48438 11.9062L2.97656 13.4062C2.80469 13.5677 2.71615 13.7708 2.71094 14.0156C2.71094 14.2656 2.79167 14.4714 2.95312 14.6328C3.125 14.8047 3.33333 14.8906 3.57812 14.8906C3.82812 14.8958 4.03385 14.8151 4.19531 14.6484L5.70312 13.1484C5.86979 12.987 5.95312 12.7839 5.95312 12.5391C5.95833 12.2891 5.8776 12.0833 5.71094 11.9219ZM4.39844 8.63281C4.39844 8.39844 4.3099 8.19531 4.13281 8.02344C3.96094 7.85156 3.75521 7.76562 3.51562 7.76562H1.32812C1.09375 7.76562 0.888021 7.85156 0.710938 8.02344C0.539062 8.19531 0.453125 8.39844 0.453125 8.63281C0.453125 8.8724 0.539062 9.07812 0.710938 9.25C0.888021 9.42188 1.09375 9.50781 1.32812 9.50781H3.51562C3.75521 9.50781 3.96094 9.42188 4.13281 9.25C4.3099 9.07812 4.39844 8.8724 4.39844 8.63281ZM5.65625 5.32031C5.82812 5.15365 5.91406 4.95052 5.91406 4.71094C5.91406 4.46615 5.83333 4.26042 5.67188 4.09375L4.17188 2.58594C4.00521 2.41927 3.79948 2.33333 3.55469 2.32812C3.3099 2.32292 3.10417 2.40365 2.9375 2.57031C2.77083 2.73698 2.6875 2.94531 2.6875 3.19531C2.6875 3.4401 2.76823 3.64323 2.92969 3.80469L4.42969 5.3125C4.59115 5.48438 4.79427 5.57031 5.03906 5.57031C5.28385 5.57031 5.48958 5.48698 5.65625 5.32031ZM9 4.03906C9.23958 4.03906 9.44531 3.95312 9.61719 3.78125C9.78906 3.60417 9.875 3.39844 9.875 3.16406V0.976562C9.875 0.742188 9.78906 0.539062 9.61719 0.367188C9.44531 0.190104 9.23958 0.101562 9 0.101562C8.76042 0.101562 8.55469 0.190104 8.38281 0.367188C8.21094 0.539062 8.125 0.742188 8.125 0.976562V3.16406C8.125 3.39844 8.21094 3.60417 8.38281 3.78125C8.55469 3.95312 8.76042 4.03906 9 4.03906ZM12.2891 5.375C12.4505 5.53646 12.6536 5.61719 12.8984 5.61719C13.1484 5.61719 13.3568 5.53125 13.5234 5.35938L15.0234 3.85156C15.1901 3.6901 15.2708 3.48698 15.2656 3.24219C15.2656 2.99219 15.1823 2.78385 15.0156 2.61719C14.849 2.45052 14.6432 2.36979 14.3984 2.375C14.1536 2.38021 13.9479 2.46354 13.7812 2.625L12.2812 4.14062C12.1146 4.30208 12.0312 4.50521 12.0312 4.75C12.0312 4.99479 12.1172 5.20312 12.2891 5.375ZM13.6094 8.63281C13.6094 8.8724 13.6953 9.07812 13.8672 9.25C14.0391 9.42188 14.2448 9.50781 14.4844 9.50781H16.6641C16.9036 9.50781 17.1094 9.42188 17.2812 9.25C17.4583 9.07812 17.5469 8.8724 17.5469 8.63281C17.5469 8.39844 17.4583 8.19531 17.2812 8.02344C17.1094 7.85156 16.9036 7.76562 16.6641 7.76562H14.4844C14.2448 7.76562 14.0391 7.85156 13.8672 8.02344C13.6953 8.19531 13.6094 8.39844 13.6094 8.63281ZM8.5 13.7422C8.49479 13.9557 8.58333 14.0911 8.76562 14.1484C8.94792 14.2109 9.10677 14.1719 9.24219 14.0312L10.3359 12.8828L11.6172 16.0625C11.6641 16.1771 11.737 16.2656 11.8359 16.3281C11.9401 16.3906 12.0599 16.3958 12.1953 16.3438L13.0391 16.0234C13.1693 15.9661 13.2448 15.8776 13.2656 15.7578C13.2865 15.638 13.276 15.5339 13.2344 15.4453L11.875 12.2891L13.4844 12.2734C13.6875 12.2786 13.8255 12.1979 13.8984 12.0312C13.9766 11.8646 13.9427 11.7083 13.7969 11.5625L9.28125 6.96875C9.14583 6.82812 8.9974 6.78906 8.83594 6.85156C8.67448 6.91406 8.59375 7.04688 8.59375 7.25L8.5 13.7422Z" fill="currentColor"/>
</svg>
