<svg width="14" height="15" viewBox="0 0 14 15" fill="none" xmlns="http://www.w3.org/2000/svg">
<path d="M4.08594 8.4043H7.05273C7.24414 8.4043 7.40592 8.34049 7.53809 8.21289C7.67025 8.08073 7.73633 7.91895 7.73633 7.72754V3.81055C7.73633 3.61914 7.67025 3.45964 7.53809 3.33203C7.40592 3.19987 7.24414 3.13379 7.05273 3.13379C6.86589 3.13379 6.70638 3.19987 6.57422 3.33203C6.44206 3.45964 6.37598 3.61914 6.37598 3.81055V7.05078H4.08594C3.88997 7.05078 3.72591 7.11686 3.59375 7.24902C3.46615 7.38118 3.40234 7.54069 3.40234 7.72754C3.40234 7.91895 3.46615 8.08073 3.59375 8.21289C3.72591 8.34049 3.88997 8.4043 4.08594 8.4043ZM7.05957 14.2354C8.00749 14.2354 8.89616 14.0553 9.72559 13.6953C10.5596 13.3353 11.2933 12.8385 11.9268 12.2051C12.5648 11.5716 13.0615 10.8379 13.417 10.0039C13.777 9.16992 13.957 8.28125 13.957 7.33789C13.957 6.38997 13.777 5.49902 13.417 4.66504C13.057 3.83105 12.5579 3.09733 11.9199 2.46387C11.2865 1.8304 10.5527 1.33366 9.71875 0.973633C8.88932 0.613607 8.00065 0.433594 7.05273 0.433594C6.10482 0.433594 5.21387 0.613607 4.37988 0.973633C3.55046 1.33366 2.81673 1.8304 2.17871 2.46387C1.54525 3.09733 1.0485 3.83105 0.688477 4.66504C0.333008 5.49902 0.155273 6.38997 0.155273 7.33789C0.155273 8.28125 0.335286 9.16992 0.695312 10.0039C1.05534 10.8379 1.55208 11.5716 2.18555 12.2051C2.81901 12.8385 3.55046 13.3353 4.37988 13.6953C5.21387 14.0553 6.1071 14.2354 7.05957 14.2354ZM7.05957 12.3486C6.3623 12.3486 5.71061 12.221 5.10449 11.9658C4.49837 11.7061 3.96517 11.346 3.50488 10.8857C3.0446 10.4255 2.68457 9.89225 2.4248 9.28613C2.1696 8.68001 2.04199 8.0306 2.04199 7.33789C2.04199 6.64518 2.1696 5.99577 2.4248 5.38965C2.68457 4.77897 3.0446 4.24349 3.50488 3.7832C3.96517 3.32292 4.49837 2.96517 5.10449 2.70996C5.71061 2.4502 6.36003 2.32031 7.05273 2.32031C7.75 2.32031 8.40169 2.4502 9.00781 2.70996C9.61393 2.96517 10.1471 3.32292 10.6074 3.7832C11.0677 4.24349 11.4277 4.77897 11.6875 5.38965C11.9473 5.99577 12.0771 6.64518 12.0771 7.33789C12.0771 8.0306 11.9473 8.68001 11.6875 9.28613C11.4277 9.89225 11.0677 10.4255 10.6074 10.8857C10.1517 11.346 9.61849 11.7061 9.00781 11.9658C8.40169 12.221 7.75228 12.3486 7.05957 12.3486Z" fill="currentColor"/>
</svg>
