<svg width="141" height="124" viewBox="0 0 141 124" fill="none" xmlns="http://www.w3.org/2000/svg">
<path d="M127.976 65.9652C127.978 78.404 123.979 90.5136 116.572 100.506C109.164 110.499 98.7394 117.844 86.8373 121.458C74.9351 125.073 62.1862 124.764 50.473 120.578C38.7597 116.392 28.7029 108.55 21.7876 98.2107C20.5936 96.4349 19.5011 94.5929 18.5154 92.6936C14.4703 84.8969 12.2492 76.2832 12.0198 67.5027C11.7904 58.7221 13.5586 50.0042 17.1911 42.007C20.8236 34.0097 26.2253 26.9422 32.9885 21.3378C39.7518 15.7334 47.6998 11.7387 56.2326 9.65511C64.7655 7.57154 73.6602 7.45361 82.2452 9.3102C90.8303 11.1668 98.8815 14.9494 105.791 20.3725C112.7 25.7956 118.288 32.7174 122.131 40.6155C125.974 48.5137 127.973 57.1816 127.976 65.9652Z" fill="url(#paint0_linear_968_5215)"/>
<path d="M103 85L119.5 88.5" stroke="#6CD6E5" stroke-width="7"/>
<path d="M91 19L102.5 3" stroke="#E67A81" stroke-width="7"/>
<path d="M40 11L46.5 21" stroke="#90EB5B" stroke-width="7"/>
<path d="M61 38L72 18.5" stroke="#8892E7" stroke-width="7"/>
<path d="M79 61L88 52L95 53.5L106.5 42" stroke="#F7B94D" stroke-width="7"/>
<path d="M120 60C127.615 57.2663 131.885 55.7337 139.5 53" stroke="#12A3D6" stroke-width="7"/>
<g clip-path="url(#clip0_968_5215)">
<path d="M25.167 116.526L82.7306 88.2236C85.8058 86.7116 86.4831 82.6242 84.06 80.2011L54.7989 50.94C52.3758 48.5169 48.2884 49.1942 46.7764 52.2694L18.4739 109.833C16.3686 114.115 20.8852 118.631 25.167 116.526Z" fill="#F6A009"/>
<mask id="mask0_968_5215" style="mask-type:alpha" maskUnits="userSpaceOnUse" x="17" y="49" width="69" height="69">
<path d="M25.167 116.526L82.7306 88.2236C85.8058 86.7116 86.4831 82.6242 84.06 80.2011L54.7989 50.94C52.3758 48.5169 48.2884 49.1942 46.7764 52.2694L18.4739 109.833C16.3686 114.115 20.8852 118.631 25.167 116.526Z" fill="#F6A009"/>
</mask>
<g mask="url(#mask0_968_5215)">
<path opacity="0.5" d="M58 43V106.089M75 59.9106V99.5854M41 52.1057V115.195M24 85.2764V123" stroke="#E25858" stroke-width="7"/>
</g>
</g>
<defs>
<linearGradient id="paint0_linear_968_5215" x1="127.574" y1="8.46522" x2="11.574" y2="123.465" gradientUnits="userSpaceOnUse">
<stop stop-color="#D39EDB"/>
<stop offset="1" stop-color="#8892E7"/>
</linearGradient>
<clipPath id="clip0_968_5215">
<rect x="12" y="8" width="115.98" height="115.98" rx="57.99" fill="white"/>
</clipPath>
</defs>
</svg>
