<svg width="13" height="16" viewBox="0 0 13 16" fill="none" xmlns="http://www.w3.org/2000/svg">
    <path
        d="M3.29492 4.18359H4.88867V2.9707C4.88867 2.76367 4.9375 2.60742 5.03516 2.50195C5.13672 2.39648 5.29883 2.34375 5.52148 2.34375H7.50781V4.49414C7.50781 4.89258 7.62305 5.20703 7.85352 5.4375C8.08789 5.66797 8.40234 5.7832 8.79688 5.7832H10.8594V9.98438C10.8594 10.1914 10.8086 10.3477 10.707 10.4531C10.6055 10.5586 10.4453 10.6113 10.2266 10.6113H9.32422V12.2051H10.4375C11.082 12.2051 11.5781 12.0312 11.9258 11.6836C12.2734 11.332 12.4473 10.832 12.4473 10.1836V6.07031C12.4473 5.64453 12.3965 5.28516 12.2949 4.99219C12.1934 4.69531 12.0176 4.41797 11.7676 4.16016L9.10156 1.43555C8.86328 1.19727 8.5957 1.02344 8.29883 0.914062C8.00195 0.804687 7.66406 0.75 7.28516 0.75H5.31055C4.66211 0.75 4.16406 0.925781 3.81641 1.27734C3.46875 1.625 3.29492 2.12305 3.29492 2.77148V4.18359ZM8.68555 4.34766V2.83594L10.4434 4.61133H8.94922C8.77344 4.61133 8.68555 4.52344 8.68555 4.34766ZM0.412109 13.2305C0.412109 13.8789 0.585938 14.377 0.933594 14.7246C1.28516 15.0762 1.7832 15.252 2.42773 15.252H7.55469C8.19922 15.252 8.69531 15.0762 9.04297 14.7246C9.39453 14.377 9.57031 13.8789 9.57031 13.2305V9.12305C9.57031 8.70898 9.52734 8.37305 9.44141 8.11523C9.35938 7.85742 9.18945 7.5957 8.93164 7.33008L6.05469 4.43555C5.79688 4.17383 5.53711 4.00195 5.27539 3.91992C5.01758 3.83398 4.68945 3.79102 4.29102 3.79102H2.42773C1.7832 3.79102 1.28516 3.9668 0.933594 4.31836C0.585938 4.66602 0.412109 5.16406 0.412109 5.8125V13.2305ZM2.00586 13.0254V6.01172C2.00586 5.80469 2.05664 5.64844 2.1582 5.54297C2.25977 5.4375 2.41992 5.38477 2.63867 5.38477H4.03906V7.94531C4.03906 8.46875 4.16406 8.85547 4.41406 9.10547C4.66797 9.35156 5.05469 9.47461 5.57422 9.47461H7.98242V13.0254C7.98242 13.2324 7.92969 13.3887 7.82422 13.4941C7.72266 13.6035 7.5625 13.6582 7.34375 13.6582H2.63867C2.41992 13.6582 2.25977 13.6035 2.1582 13.4941C2.05664 13.3887 2.00586 13.2324 2.00586 13.0254ZM5.68555 8.20898C5.56055 8.20898 5.4668 8.17773 5.4043 8.11523C5.3457 8.05273 5.31641 7.96094 5.31641 7.83984V5.61328L7.88281 8.20898H5.68555Z"
        fill="currentColor" />
</svg>