<svg width="35" height="35" viewBox="0 0 35 35" fill="none" xmlns="http://www.w3.org/2000/svg">
<path d="M6.64453 34.8086H29.0469C31.013 34.8086 32.4909 34.3138 33.4805 33.3242C34.4831 32.3477 34.9844 30.8893 34.9844 28.9492V6.42969C34.9844 4.48958 34.4831 3.02474 33.4805 2.03516C32.4909 1.04557 31.013 0.550781 29.0469 0.550781H6.64453C4.69141 0.550781 3.21354 1.04557 2.21094 2.03516C1.20833 3.01172 0.707031 4.47656 0.707031 6.42969V28.9492C0.707031 30.9023 1.20833 32.3672 2.21094 33.3438C3.21354 34.3203 4.69141 34.8086 6.64453 34.8086ZM6.78125 31.5078C5.89583 31.5078 5.21875 31.2734 4.75 30.8047C4.28125 30.3359 4.04688 29.6393 4.04688 28.7148V6.66406C4.04688 5.73958 4.28125 5.04297 4.75 4.57422C5.21875 4.10547 5.89583 3.87109 6.78125 3.87109H28.9102C29.7826 3.87109 30.4596 4.10547 30.9414 4.57422C31.4232 5.04297 31.6641 5.73958 31.6641 6.66406V28.7148C31.6641 29.6393 31.4232 30.3359 30.9414 30.8047C30.4596 31.2734 29.7826 31.5078 28.9102 31.5078H6.78125ZM5.33594 32.6406H30.4141C30.1276 31.3646 29.6133 30.1927 28.8711 29.125C28.1289 28.0573 27.1979 27.1328 26.0781 26.3516C24.9583 25.5703 23.7018 24.9648 22.3086 24.5352C20.9154 24.1055 19.4375 23.8906 17.875 23.8906C16.2995 23.8906 14.8151 24.1055 13.4219 24.5352C12.0286 24.9648 10.7721 25.5703 9.65234 26.3516C8.54557 27.1328 7.62109 28.0573 6.87891 29.125C6.13672 30.1927 5.6224 31.3646 5.33594 32.6406ZM17.875 20.8633C19.0469 20.8763 20.1081 20.5833 21.0586 19.9844C22.0221 19.3724 22.7773 18.5456 23.3242 17.5039C23.8841 16.4622 24.1641 15.2839 24.1641 13.9688C24.1641 12.7318 23.8841 11.6055 23.3242 10.5898C22.7773 9.5612 22.0221 8.74089 21.0586 8.12891C20.1081 7.50391 19.0469 7.19141 17.875 7.19141C16.6901 7.19141 15.6159 7.50391 14.6523 8.12891C13.7018 8.74089 12.9466 9.5612 12.3867 10.5898C11.8268 11.6055 11.5469 12.7318 11.5469 13.9688C11.5599 15.2839 11.8464 16.4557 12.4062 17.4844C12.9661 18.513 13.7214 19.3333 14.6719 19.9453C15.6224 20.5443 16.6901 20.8503 17.875 20.8633Z" fill="currentColor"/>
</svg>
