<svg width="15" height="14" viewBox="0 0 15 14" fill="none" xmlns="http://www.w3.org/2000/svg">
    <path d="M5.5625 13.9756H9.60254C9.89421 13.9756 10.1585 13.9414 10.3955 13.873C10.6325 13.8047 10.849 13.7044 11.0449 13.5723C11.2409 13.4401 11.4209 13.276 11.585 13.0801L13.8818 10.4277C14.1325 10.1361 14.3011 9.87174 14.3877 9.63477C14.4743 9.39779 14.5176 9.08333 14.5176 8.69141V5.99121C14.5176 5.59928 14.4743 5.28483 14.3877 5.04785C14.3011 4.81087 14.1325 4.54655 13.8818 4.25488L11.585 1.60254C11.4209 1.41113 11.2409 1.24935 11.0449 1.11719C10.849 0.980469 10.6325 0.87793 10.3955 0.80957C10.1585 0.741211 9.89421 0.707031 9.60254 0.707031H5.5625C5.27083 0.707031 5.00651 0.741211 4.76953 0.80957C4.53255 0.87793 4.31608 0.980469 4.12012 1.11719C3.92871 1.24935 3.75098 1.41113 3.58691 1.60254L1.2832 4.25488C1.03255 4.54655 0.863932 4.81087 0.777344 5.04785C0.690755 5.28483 0.647461 5.59928 0.647461 5.99121V8.69141C0.647461 9.08333 0.690755 9.39779 0.777344 9.63477C0.863932 9.87174 1.03255 10.1361 1.2832 10.4277L3.58691 13.0801C3.75098 13.276 3.92871 13.4401 4.12012 13.5723C4.31608 13.7044 4.53255 13.8047 4.76953 13.873C5.00651 13.9414 5.27083 13.9756 5.5625 13.9756ZM7.59277 8.2334C7.08236 8.2334 6.8112 7.98047 6.7793 7.47461L6.67676 4.89062C6.65853 4.6263 6.73372 4.41439 6.90234 4.25488C7.07552 4.09082 7.30111 4.00879 7.5791 4.00879C7.86165 4.00879 8.08724 4.09082 8.25586 4.25488C8.42904 4.41895 8.50879 4.63086 8.49512 4.89062L8.38574 7.46094C8.3584 7.97591 8.09408 8.2334 7.59277 8.2334ZM7.59277 10.626C7.31478 10.626 7.08236 10.5485 6.89551 10.3936C6.70866 10.2386 6.61523 10.029 6.61523 9.76465C6.61523 9.50488 6.70866 9.29753 6.89551 9.14258C7.08236 8.98763 7.31478 8.91016 7.59277 8.91016C7.87077 8.91016 8.10091 8.98763 8.2832 9.14258C8.46549 9.29753 8.55664 9.50488 8.55664 9.76465C8.55664 10.029 8.46322 10.2386 8.27637 10.3936C8.09408 10.5485 7.86621 10.626 7.59277 10.626Z" fill="currentColor" />
</svg>