<svg width="18" height="18" viewBox="0 0 18 18" fill="none" xmlns="http://www.w3.org/2000/svg">
    <path d="M1.13281 11.0703L7.09375 17.0312C7.70312 17.6458 8.33594 17.9531 8.99219 17.9531C9.65365 17.9531 10.2891 17.6484 10.8984 17.0391L16.8672 11.0703C17.4818 10.4557 17.7891 9.82031 17.7891 9.16406C17.7891 8.50781 17.4818 7.8724 16.8672 7.25781L10.9062 1.29688C10.2917 0.682292 9.65365 0.375 8.99219 0.375C8.33594 0.369792 7.70312 0.674479 7.09375 1.28906L1.11719 7.25781C0.507812 7.8724 0.203125 8.50781 0.203125 9.16406C0.208333 9.82031 0.518229 10.4557 1.13281 11.0703ZM2.82031 9.75781C2.6224 9.5599 2.52083 9.36458 2.51562 9.17188C2.51042 8.97917 2.61198 8.77865 2.82031 8.57031L8.39844 2.99219C8.60677 2.77865 8.80729 2.67448 9 2.67969C9.19271 2.6849 9.38802 2.78646 9.58594 2.98438L15.1719 8.57031C15.3698 8.76823 15.4714 8.96354 15.4766 9.15625C15.4818 9.34896 15.3802 9.54948 15.1719 9.75781L9.59375 15.3359C9.38542 15.5443 9.18229 15.6458 8.98438 15.6406C8.79167 15.6406 8.59635 15.5417 8.39844 15.3438L2.82031 9.75781Z" fill="currentColor" />
</svg>