<svg width="13" height="15" viewBox="0 0 13 15" fill="none" xmlns="http://www.w3.org/2000/svg">
<path d="M4.25098 4.42578H8.74902C8.87207 4.42578 8.97461 4.38477 9.05664 4.30273C9.13867 4.21615 9.17969 4.11133 9.17969 3.98828C9.17969 3.87435 9.13867 3.77637 9.05664 3.69434C8.97461 3.6123 8.87207 3.57129 8.74902 3.57129H4.25098C4.12337 3.57129 4.01855 3.6123 3.93652 3.69434C3.85449 3.77637 3.81348 3.87435 3.81348 3.98828C3.81348 4.11133 3.85449 4.21615 3.93652 4.30273C4.01855 4.38477 4.12337 4.42578 4.25098 4.42578ZM4.25098 6.57227H8.74902C8.87207 6.57227 8.97461 6.53125 9.05664 6.44922C9.13867 6.36263 9.17969 6.25781 9.17969 6.13477C9.17969 6.02083 9.13867 5.92513 9.05664 5.84766C8.97461 5.76562 8.87207 5.72461 8.74902 5.72461H4.25098C4.12337 5.72461 4.01855 5.76562 3.93652 5.84766C3.85449 5.92513 3.81348 6.02083 3.81348 6.13477C3.81348 6.25781 3.85449 6.36263 3.93652 6.44922C4.01855 6.53125 4.12337 6.57227 4.25098 6.57227ZM4.25098 8.71875H6.49316C6.61165 8.71875 6.71191 8.68001 6.79395 8.60254C6.87598 8.52051 6.91699 8.42025 6.91699 8.30176C6.91699 8.17871 6.87598 8.07617 6.79395 7.99414C6.71191 7.91211 6.61165 7.87109 6.49316 7.87109H4.25098C4.12337 7.87109 4.01855 7.91211 3.93652 7.99414C3.85449 8.07617 3.81348 8.17871 3.81348 8.30176C3.81348 8.42025 3.85449 8.52051 3.93652 8.60254C4.01855 8.68001 4.12337 8.71875 4.25098 8.71875ZM0.805664 12.1777C0.805664 12.9069 0.99707 13.4629 1.37988 13.8457C1.7627 14.2285 2.31413 14.4199 3.03418 14.4199H9.95898C10.6836 14.4199 11.235 14.2285 11.6133 13.8457C11.9961 13.4629 12.1875 12.9069 12.1875 12.1777V2.49121C12.1875 1.76204 11.9961 1.20605 11.6133 0.823242C11.235 0.435872 10.6836 0.242188 9.95898 0.242188H3.03418C2.31413 0.242188 1.7627 0.435872 1.37988 0.823242C0.99707 1.20605 0.805664 1.76204 0.805664 2.49121V12.1777ZM2.38477 12.0205V2.65527C2.38477 2.38184 2.45312 2.17676 2.58984 2.04004C2.72656 1.89876 2.9362 1.82812 3.21875 1.82812H9.77441C10.057 1.82812 10.2666 1.89876 10.4033 2.04004C10.54 2.17676 10.6084 2.38184 10.6084 2.65527V12.0205C10.6084 12.2894 10.54 12.4945 10.4033 12.6357C10.2666 12.777 10.057 12.8477 9.77441 12.8477H3.21875C2.9362 12.8477 2.72656 12.777 2.58984 12.6357C2.45312 12.4945 2.38477 12.2894 2.38477 12.0205Z" fill="currentColor"/>
</svg>
