<svg width="21" height="21" viewBox="0 0 21 21" fill="none" xmlns="http://www.w3.org/2000/svg">
<path d="M10.5 20.0371C11.8346 20.0371 13.0879 19.7832 14.2598 19.2754C15.4316 18.7741 16.4635 18.0775 17.3555 17.1855C18.2474 16.2936 18.944 15.2617 19.4453 14.0898C19.9531 12.918 20.207 11.6647 20.207 10.3301C20.207 9.00195 19.9531 7.75195 19.4453 6.58008C18.944 5.4082 18.2441 4.3763 17.3457 3.48438C16.4538 2.59245 15.4219 1.89258 14.25 1.38477C13.0781 0.876953 11.8249 0.623047 10.4902 0.623047C9.16862 0.623047 7.92188 0.876953 6.75 1.38477C5.57812 1.89258 4.54297 2.59245 3.64453 3.48438C2.7526 4.3763 2.05273 5.4082 1.54492 6.58008C1.04362 7.75195 0.792969 9.00195 0.792969 10.3301C0.792969 11.6647 1.04688 12.918 1.55469 14.0898C2.0625 15.2617 2.76237 16.2936 3.6543 17.1855C4.54622 18.0775 5.57812 18.7741 6.75 19.2754C7.92188 19.7832 9.17188 20.0371 10.5 20.0371ZM9.48438 14.9492C9.28255 14.9492 9.10026 14.9069 8.9375 14.8223C8.78125 14.7311 8.63151 14.5977 8.48828 14.4219L6.30078 11.7949C6.10547 11.5605 6.00781 11.3132 6.00781 11.0527C6.00781 10.7858 6.10221 10.5547 6.29102 10.3594C6.48633 10.1641 6.7207 10.0664 6.99414 10.0664C7.1569 10.0664 7.30339 10.1022 7.43359 10.1738C7.5638 10.2389 7.69076 10.3464 7.81445 10.4961L9.46484 12.5371L13.1172 6.72656C13.3516 6.35547 13.6413 6.16992 13.9863 6.16992C14.2467 6.16992 14.4811 6.25781 14.6895 6.43359C14.8978 6.60938 15.002 6.83398 15.002 7.10742C15.002 7.2181 14.9792 7.33529 14.9336 7.45898C14.888 7.57617 14.8262 7.69336 14.748 7.81055L10.4512 14.4121C10.2038 14.7702 9.88151 14.9492 9.48438 14.9492Z" fill="#90EB5B"/>
</svg>
