<svg width="15" height="18" viewBox="0 0 15 18" fill="none" xmlns="http://www.w3.org/2000/svg">
    <path d="M7.45312 0.990234C7.13411 0.990234 6.87044 1.0944 6.66211 1.30273C6.46029 1.51107 6.35938 1.78125 6.35938 2.11328V10.3848L6.4668 12.3184L4.14258 9.75L2.31641 7.95312C2.21224 7.84896 2.09505 7.76758 1.96484 7.70898C1.83464 7.65039 1.69141 7.62109 1.53516 7.62109C1.22917 7.62109 0.97526 7.72201 0.773438 7.92383C0.578125 8.12565 0.480469 8.38281 0.480469 8.69531C0.480469 8.83854 0.509766 8.97526 0.568359 9.10547C0.626953 9.23568 0.714844 9.36263 0.832031 9.48633L6.64258 15.209C6.75326 15.3197 6.87695 15.4076 7.01367 15.4727C7.15039 15.5312 7.29688 15.5605 7.45312 15.5605C7.60938 15.5605 7.75586 15.5312 7.89258 15.4727C8.03581 15.4076 8.15951 15.3197 8.26367 15.209L14.084 9.48633C14.2012 9.36263 14.2891 9.23568 14.3477 9.10547C14.4062 8.97526 14.4355 8.83854 14.4355 8.69531C14.4355 8.38281 14.3346 8.12565 14.1328 7.92383C13.9375 7.72201 13.6901 7.62109 13.3906 7.62109C13.2344 7.62109 13.0879 7.65365 12.9512 7.71875C12.821 7.77734 12.7038 7.85547 12.5996 7.95312L10.7734 9.75L8.44922 12.3086L8.54688 10.3848V2.11328C8.54688 1.78125 8.44596 1.51107 8.24414 1.30273C8.04232 1.0944 7.77865 0.990234 7.45312 0.990234ZM1.39844 15.541C1.09896 15.541 0.848307 15.6419 0.646484 15.8438C0.451172 16.0456 0.353516 16.2995 0.353516 16.6055C0.353516 16.9115 0.451172 17.1654 0.646484 17.3672C0.848307 17.5755 1.09896 17.6797 1.39844 17.6797H13.498C13.804 17.6797 14.0547 17.5755 14.25 17.3672C14.4518 17.1654 14.5527 16.9115 14.5527 16.6055C14.5527 16.2995 14.4518 16.0456 14.25 15.8438C14.0547 15.6419 13.804 15.541 13.498 15.541H1.39844Z" fill="currentColor" />
</svg>