<svg width="16" height="16" viewBox="0 0 16 16" fill="none" xmlns="http://www.w3.org/2000/svg">
<path d="M3.26562 15.3125H11.7109C12.5286 15.3125 13.1667 15.0807 13.625 14.6172C14.0833 14.1536 14.3125 13.4896 14.3125 12.625V5.04688L12.1953 7.16406V12.3438C12.1953 12.6354 12.1276 12.849 11.9922 12.9844C11.8568 13.1198 11.6745 13.1875 11.4453 13.1875H3.53125C3.25521 13.1875 3.04427 13.1198 2.89844 12.9844C2.75781 12.849 2.6875 12.6354 2.6875 12.3438V4.53125C2.6875 4.23958 2.75781 4.02604 2.89844 3.89062C3.04427 3.75521 3.25521 3.6875 3.53125 3.6875H8.76562L10.8828 1.57031H3.26562C2.40104 1.57031 1.73438 1.80208 1.26562 2.26562C0.802083 2.72917 0.570312 3.39062 0.570312 4.25V12.625C0.570312 13.4896 0.802083 14.1536 1.26562 14.6172C1.73438 15.0807 2.40104 15.3125 3.26562 15.3125ZM6.32031 10L7.99219 9.33594L14.25 3.07812L12.8281 1.65625L6.5625 7.91406L5.89844 9.5625C5.84115 9.70312 5.86719 9.82292 5.97656 9.92188C6.08594 10.0156 6.20052 10.0417 6.32031 10ZM14.7734 2.55469L15.3906 1.90625C15.5677 1.71875 15.6641 1.50781 15.6797 1.27344C15.6953 1.03385 15.6146 0.822917 15.4375 0.640625L15.1953 0.390625C15.0495 0.229167 14.8568 0.164062 14.6172 0.195312C14.3828 0.226562 14.1745 0.330729 13.9922 0.507812L13.3438 1.13281L14.7734 2.55469Z" fill="currentColor"/>
</svg>
