<svg width="14" height="4" viewBox="0 0 14 4" fill="none" xmlns="http://www.w3.org/2000/svg">
<path d="M3.55273 1.83789C3.55273 1.35026 3.39095 0.94694 3.06738 0.62793C2.74837 0.304362 2.34277 0.142578 1.85059 0.142578C1.54525 0.142578 1.2627 0.220052 1.00293 0.375C0.747721 0.525391 0.542643 0.72819 0.387695 0.983398C0.232747 1.23861 0.155273 1.52344 0.155273 1.83789C0.155273 2.13411 0.232747 2.41211 0.387695 2.67188C0.542643 2.92708 0.747721 3.13444 1.00293 3.29395C1.2627 3.45345 1.54525 3.5332 1.85059 3.5332C2.15137 3.5332 2.42936 3.45345 2.68457 3.29395C2.94434 3.13444 3.15397 2.92708 3.31348 2.67188C3.47298 2.41211 3.55273 2.13411 3.55273 1.83789ZM8.50879 1.83789C8.50879 1.35026 8.34928 0.94694 8.03027 0.62793C7.71126 0.304362 7.30566 0.142578 6.81348 0.142578C6.50358 0.142578 6.22103 0.220052 5.96582 0.375C5.71061 0.525391 5.50553 0.72819 5.35059 0.983398C5.19564 1.23861 5.11816 1.52344 5.11816 1.83789C5.11816 2.13411 5.19564 2.41211 5.35059 2.67188C5.50553 2.92708 5.71061 3.13444 5.96582 3.29395C6.22103 3.45345 6.50358 3.5332 6.81348 3.5332C7.11426 3.5332 7.39225 3.45345 7.64746 3.29395C7.90723 3.13444 8.11458 2.92708 8.26953 2.67188C8.42904 2.41211 8.50879 2.13411 8.50879 1.83789ZM13.4717 1.83789C13.4717 1.35026 13.3099 0.94694 12.9863 0.62793C12.6673 0.304362 12.264 0.142578 11.7764 0.142578C11.4665 0.142578 11.1816 0.220052 10.9219 0.375C10.6667 0.525391 10.4616 0.72819 10.3066 0.983398C10.1562 1.23861 10.0811 1.52344 10.0811 1.83789C10.0811 2.13411 10.1562 2.41211 10.3066 2.67188C10.4616 2.92708 10.6667 3.13444 10.9219 3.29395C11.1816 3.45345 11.4665 3.5332 11.7764 3.5332C12.0771 3.5332 12.3551 3.45345 12.6104 3.29395C12.8701 3.13444 13.0775 2.92708 13.2324 2.67188C13.3919 2.41211 13.4717 2.13411 13.4717 1.83789Z" fill="currentColor"/>
</svg>
