<svg width="23" height="18" viewBox="0 0 23 18" fill="none" xmlns="http://www.w3.org/2000/svg">
<path d="M11.4668 9.98438C11.8639 9.98438 12.2741 9.77279 12.6973 9.34961L21.2031 0.902344C20.8255 0.563802 20.1582 0.394531 19.2012 0.394531H3.44922C2.60938 0.394531 2.02018 0.550781 1.68164 0.863281L10.2363 9.34961C10.653 9.77279 11.0632 9.98438 11.4668 9.98438ZM0.753906 15.8828L7.76562 8.92969L0.763672 2.02539C0.58138 2.33789 0.490234 2.84896 0.490234 3.55859V14.3594C0.490234 15.069 0.578125 15.5768 0.753906 15.8828ZM3.69336 17.5332H19.4453C20.2982 17.5332 20.9004 17.3672 21.252 17.0352L14.1133 9.94531L13.5078 10.5605C12.8438 11.1986 12.1634 11.5176 11.4668 11.5176C10.7637 11.5176 10.0801 11.1986 9.41602 10.5605L8.81055 9.95508L1.68164 17.0352C2.07878 17.3672 2.74935 17.5332 3.69336 17.5332ZM22.1504 15.873C22.3197 15.5605 22.4043 15.056 22.4043 14.3594V3.55859C22.4043 2.85547 22.3164 2.35091 22.1406 2.04492L15.1582 8.92969L22.1504 15.873Z" fill="currentColor"/>
</svg>
