<svg width="140" height="116" viewBox="0 0 140 116" fill="none" xmlns="http://www.w3.org/2000/svg">
<path d="M128.402 58C128.404 70.4388 124.406 82.5484 116.998 92.5409C109.59 102.533 99.1655 109.879 87.2633 113.493C75.3611 117.107 62.6123 116.799 50.899 112.613C39.1857 108.426 29.129 100.585 22.2136 90.2455C21.0196 88.4697 19.9271 86.6277 18.9414 84.7284C14.8963 76.9317 12.6752 68.318 12.4458 59.5375C12.2164 50.7569 13.9847 42.039 17.6171 34.0418C21.2496 26.0445 26.6513 18.977 33.4145 13.3726C40.1778 7.76821 48.1258 3.77347 56.6586 1.6899C65.1915 -0.393666 74.0862 -0.5116 82.6713 1.34499C91.2563 3.20159 99.3075 6.98419 106.217 12.4073C113.126 17.8304 118.714 24.7522 122.557 32.6503C126.4 40.5485 128.399 49.2164 128.402 58Z" fill="url(#paint0_linear_1323_6107)"/>
<path d="M64.8039 27C67.1133 23 72.8868 23 75.1962 27L107.239 82.5C109.549 86.5 106.662 91.5 102.043 91.5H37.957C33.3382 91.5 30.4515 86.5 32.7609 82.5L64.8039 27Z" fill="#F6A009"/>
<path d="M65.1487 85V77.32H73.8527V85H65.1487ZM65.1487 73.48V38.92H73.8527V73.48H65.1487Z" fill="black"/>
<defs>
<linearGradient id="paint0_linear_1323_6107" x1="128" y1="0.500006" x2="12" y2="115.5" gradientUnits="userSpaceOnUse">
<stop stop-color="#FF4F4F"/>
<stop offset="1" stop-color="#8B0C7E"/>
</linearGradient>
</defs>
</svg>
