<svg width="15" height="16" viewBox="0 0 15 16" fill="none" xmlns="http://www.w3.org/2000/svg">
    <path d="M0.253906 10.8535C0.253906 11.4551 0.342773 12.0202 0.520508 12.5488C0.698242 13.0729 0.948893 13.5332 1.27246 13.9297C1.59603 14.3262 1.97428 14.6361 2.40723 14.8594C2.84473 15.0872 3.32096 15.2012 3.83594 15.2012H5.96191C6.40397 15.4199 6.88249 15.5885 7.39746 15.707C7.91243 15.8255 8.45247 15.8848 9.01758 15.8848H9.93359C10.3711 15.8848 10.7699 15.8711 11.1299 15.8438C11.4899 15.8164 11.7884 15.7731 12.0254 15.7139C12.5312 15.5908 12.9346 15.3561 13.2354 15.0098C13.5361 14.6634 13.6865 14.2624 13.6865 13.8066C13.6865 13.6699 13.6706 13.5423 13.6387 13.4238C14.099 13.0365 14.3291 12.5443 14.3291 11.9473C14.3291 11.6966 14.2858 11.4619 14.1992 11.2432C14.3451 11.0791 14.459 10.8854 14.541 10.6621C14.623 10.4388 14.6641 10.2064 14.6641 9.96484C14.6641 9.80534 14.6458 9.65039 14.6094 9.5C14.5775 9.34961 14.5296 9.21289 14.4658 9.08984C14.6527 8.78451 14.7461 8.41764 14.7461 7.98926C14.7461 7.62012 14.6595 7.28971 14.4863 6.99805C14.3177 6.70182 14.0876 6.4694 13.7959 6.30078C13.5088 6.1276 13.1807 6.04102 12.8115 6.04102H10.46C10.4007 6.04102 10.3529 6.02734 10.3164 6C10.2845 5.97266 10.2708 5.93164 10.2754 5.87695C10.2936 5.71745 10.3574 5.51009 10.4668 5.25488C10.5807 4.99512 10.7038 4.70573 10.8359 4.38672C10.9727 4.06315 11.0911 3.73047 11.1914 3.38867C11.2917 3.04232 11.3418 2.70508 11.3418 2.37695C11.3418 2.02604 11.2643 1.71387 11.1094 1.44043C10.9544 1.16243 10.7448 0.945964 10.4805 0.791016C10.2161 0.63151 9.91309 0.551758 9.57129 0.551758C9.20215 0.551758 8.88086 0.654297 8.60742 0.859375C8.33398 1.06445 8.07878 1.39258 7.8418 1.84375C7.63672 2.24479 7.41797 2.63444 7.18555 3.0127C6.95312 3.39095 6.70475 3.76693 6.44043 4.14062C6.18066 4.51432 5.90267 4.89486 5.60645 5.28223C5.31022 5.66504 4.99577 6.0638 4.66309 6.47852H3.58984C2.94271 6.47852 2.36849 6.67448 1.86719 7.06641C1.36589 7.45378 0.97168 7.98014 0.68457 8.64551C0.397461 9.30632 0.253906 10.0423 0.253906 10.8535ZM4.60156 10.7852C4.60156 10.334 4.63802 9.92839 4.71094 9.56836C4.78841 9.20378 4.91146 8.85059 5.08008 8.50879C5.2487 8.16699 5.47884 7.80013 5.77051 7.4082C6.09863 6.96615 6.45866 6.49447 6.85059 5.99316C7.24251 5.49186 7.63444 4.9541 8.02637 4.37988C8.41829 3.80111 8.7806 3.18359 9.11328 2.52734C9.19076 2.36784 9.26139 2.26074 9.3252 2.20605C9.39355 2.15137 9.47103 2.12402 9.55762 2.12402C9.66243 2.12402 9.74447 2.16048 9.80371 2.2334C9.86296 2.30176 9.89258 2.39974 9.89258 2.52734C9.89258 2.74154 9.83789 2.99674 9.72852 3.29297C9.61914 3.58464 9.49154 3.89453 9.3457 4.22266C9.20443 4.55078 9.0791 4.87663 8.96973 5.2002C8.86491 5.51921 8.8125 5.81771 8.8125 6.0957C8.8125 6.51042 8.96061 6.84538 9.25684 7.10059C9.55306 7.35579 9.93587 7.4834 10.4053 7.4834H12.75C12.9095 7.4834 13.0394 7.53581 13.1396 7.64062C13.2445 7.74544 13.2969 7.87533 13.2969 8.03027C13.2969 8.23079 13.2126 8.41764 13.0439 8.59082C12.9255 8.70931 12.8594 8.85059 12.8457 9.01465C12.832 9.17871 12.8776 9.31543 12.9824 9.4248C13.0599 9.53418 13.1169 9.62988 13.1533 9.71191C13.1898 9.79395 13.208 9.88053 13.208 9.97168C13.208 10.0765 13.1807 10.1768 13.126 10.2725C13.0713 10.3636 12.9915 10.4479 12.8867 10.5254C12.7409 10.6302 12.6475 10.7646 12.6064 10.9287C12.5654 11.0928 12.5859 11.2568 12.668 11.4209C12.7227 11.5348 12.7637 11.6283 12.791 11.7012C12.8229 11.7695 12.8389 11.847 12.8389 11.9336C12.8389 12.1842 12.6702 12.4007 12.333 12.583C12.1917 12.6605 12.1006 12.7767 12.0596 12.9316C12.0186 13.082 12.0277 13.2256 12.0869 13.3623C12.1416 13.4945 12.1758 13.5833 12.1895 13.6289C12.2031 13.679 12.21 13.7337 12.21 13.793C12.21 13.9115 12.1644 14.014 12.0732 14.1006C11.9821 14.1917 11.8385 14.2624 11.6426 14.3125C11.4557 14.3581 11.2074 14.39 10.8975 14.4082C10.5921 14.431 10.2207 14.4424 9.7832 14.4424L9.02441 14.4287C8.14486 14.4196 7.3724 14.2601 6.70703 13.9502C6.04622 13.6449 5.52897 13.221 5.15527 12.6787C4.78613 12.1318 4.60156 11.5007 4.60156 10.7852ZM1.66211 10.8535C1.66211 10.3203 1.73958 9.83724 1.89453 9.4043C2.04948 8.9668 2.25456 8.61589 2.50977 8.35156C2.76953 8.08268 3.05664 7.93229 3.37109 7.90039C3.4349 7.90039 3.50098 7.90039 3.56934 7.90039C3.6377 7.89583 3.70605 7.89355 3.77441 7.89355C3.56022 8.33561 3.40299 8.79362 3.30273 9.26758C3.20247 9.74154 3.15234 10.2542 3.15234 10.8057C3.15234 11.3844 3.24577 11.9313 3.43262 12.4463C3.61947 12.9613 3.8929 13.4307 4.25293 13.8545C4.16634 13.8545 4.07292 13.8522 3.97266 13.8477C3.87695 13.8477 3.78125 13.8477 3.68555 13.8477C3.31641 13.8158 2.97917 13.6631 2.67383 13.3896C2.36849 13.1208 2.1224 12.7653 1.93555 12.3232C1.75326 11.8812 1.66211 11.3913 1.66211 10.8535Z" fill="currentColor" />
</svg>