<svg width="14" height="11" viewBox="0 0 14 11" fill="none" xmlns="http://www.w3.org/2000/svg">
<path d="M13.002 5.66895C13.002 5.51855 12.9427 5.38867 12.8242 5.2793L8.50391 0.958985C8.39453 0.854167 8.2692 0.801758 8.12793 0.801758C7.98665 0.801758 7.86588 0.84961 7.76562 0.945313C7.66536 1.03646 7.61523 1.15495 7.61523 1.30078C7.61523 1.36914 7.62891 1.43522 7.65625 1.49902C7.67904 1.56738 7.71322 1.62435 7.75879 1.66992L9.39941 3.33789L11.8193 5.55273L11.9492 5.26563L9.93262 5.14941L1.51074 5.14942C1.36491 5.14942 1.24414 5.19727 1.14844 5.29297C1.04818 5.38867 0.998046 5.514 0.998046 5.66895C0.998046 5.81934 1.04818 5.94238 1.14844 6.03809C1.24414 6.13379 1.36491 6.18164 1.51074 6.18164L9.93262 6.18164L11.9492 6.07227L11.8193 5.77148L9.39941 7.99316L7.75879 9.66113C7.71322 9.70671 7.67904 9.76139 7.65625 9.8252C7.62891 9.89356 7.61523 9.96191 7.61523 10.0303C7.61523 10.1761 7.66536 10.2946 7.76562 10.3857C7.86589 10.4814 7.98665 10.5293 8.12793 10.5293C8.20085 10.5293 8.26921 10.5156 8.33301 10.4883C8.39681 10.4609 8.46289 10.4154 8.53125 10.3516L12.8242 6.05176C12.9427 5.94238 13.002 5.81478 13.002 5.66895Z" fill="currentColor"/>
</svg>
