<svg width="116" height="116" viewBox="0 0 116 116" fill="none" xmlns="http://www.w3.org/2000/svg">
<path d="M115.988 58.0049C115.99 70.4437 111.991 82.5534 104.584 92.5458C97.1758 102.538 86.7513 109.884 74.8491 113.498C62.947 117.112 50.1981 116.804 38.4848 112.618C26.7715 108.431 16.7148 100.59 9.79941 90.2505C8.6054 88.4747 7.51291 86.6327 6.52721 84.7333C2.4821 76.9367 0.261033 68.323 0.0316246 59.5424C-0.197783 50.7619 1.57049 42.044 5.20295 34.0467C8.83541 26.0495 14.2371 18.9819 21.0004 13.3775C27.7636 7.77315 35.7116 3.77841 44.2445 1.69484C52.7773 -0.388722 61.672 -0.506656 70.2571 1.34994C78.8422 3.20653 86.8933 6.98913 93.8028 12.4122C100.712 17.8353 106.299 24.7572 110.143 32.6553C113.986 40.5534 115.985 49.2214 115.988 58.0049Z" fill="url(#paint0_linear_1316_5481)"/>
<mask id="mask0_1316_5481" style="mask-type:alpha" maskUnits="userSpaceOnUse" x="0" y="0" width="116" height="116">
<path d="M115.988 58.0049C115.99 70.4437 111.991 82.5534 104.584 92.5458C97.1758 102.538 86.7513 109.884 74.8491 113.498C62.947 117.112 50.1981 116.804 38.4848 112.618C26.7715 108.431 16.7148 100.59 9.79941 90.2505C8.6054 88.4747 7.51291 86.6327 6.52721 84.7333C2.4821 76.9367 0.261033 68.323 0.0316246 59.5424C-0.197783 50.7619 1.57049 42.044 5.20295 34.0467C8.83541 26.0495 14.2371 18.9819 21.0004 13.3775C27.7636 7.77315 35.7116 3.77841 44.2445 1.69484C52.7773 -0.388722 61.672 -0.506656 70.2571 1.34994C78.8422 3.20653 86.8933 6.98913 93.8028 12.4122C100.712 17.8353 106.299 24.7572 110.143 32.6553C113.986 40.5534 115.985 49.2214 115.988 58.0049Z" fill="url(#paint1_linear_1316_5481)"/>
</mask>
<g mask="url(#mask0_1316_5481)">
<rect x="15.2911" y="41.6343" width="84.4414" height="83.6216" rx="7" fill="#F6A009"/>
<rect x="12.0118" y="40.8145" width="91" height="22.955" rx="3" fill="#EC7C30"/>
<rect width="19.6757" height="84.4414" transform="translate(47.2641 40.8145)" fill="#D13907"/>
<path d="M76.8323 19.5406C78.5564 18.1594 81.3517 18.1594 83.0758 19.5406L90.1129 25.1783C92.1066 26.7755 91.746 29.4402 89.3713 30.658L69.1185 41.044C67.372 41.9397 65.0828 41.7408 63.6166 40.5661L60.2237 37.848C58.4996 36.4668 58.4996 34.2274 60.2237 32.8462L76.8323 19.5406Z" fill="#D13907"/>
<path d="M37.3717 19.5406C35.6476 18.1594 32.8523 18.1594 31.1282 19.5406L24.091 25.1783C22.0973 26.7755 22.4579 29.4402 24.8326 30.658L45.0855 41.044C46.832 41.9397 49.1211 41.7408 50.5874 40.5661L53.9802 37.848C55.7043 36.4668 55.7043 34.2274 53.9802 32.8462L37.3717 19.5406Z" fill="#D13907"/>
<rect x="44.8046" y="28.5172" width="24.5946" height="13.1171" rx="6.55856" fill="#B0350C"/>
</g>
<defs>
<linearGradient id="paint0_linear_1316_5481" x1="115.586" y1="-25.5" x2="115.586" y2="140" gradientUnits="userSpaceOnUse">
<stop stop-color="white"/>
<stop offset="1" stop-color="#FB92DD"/>
</linearGradient>
<linearGradient id="paint1_linear_1316_5481" x1="115.586" y1="0.504949" x2="-0.414185" y2="115.505" gradientUnits="userSpaceOnUse">
<stop stop-color="white"/>
<stop offset="1" stop-color="#CCD1FF"/>
</linearGradient>
</defs>
</svg>
