<svg width="39" height="43" viewBox="0 0 39 43" fill="none" xmlns="http://www.w3.org/2000/svg">
    <path d="M8.62109 42.8398H30.3789C32.2279 42.8398 33.6536 42.3516 34.6562 41.375C35.6589 40.3984 36.1602 38.9857 36.1602 37.1367V25.6523H36.2383C37.0846 25.3789 37.7227 24.8776 38.1523 24.1484C38.582 23.4193 38.7969 22.5013 38.7969 21.3945V16.5703C38.7969 15.151 38.4128 14.0312 37.6445 13.2109C36.8893 12.3776 35.8151 11.9609 34.4219 11.9609H31.4141C31.9349 11.4401 32.3385 10.8216 32.625 10.1055C32.9245 9.3763 33.0742 8.59505 33.0742 7.76172C33.0742 6.44661 32.7552 5.28125 32.1172 4.26562C31.4792 3.23698 30.6198 2.42969 29.5391 1.84375C28.4714 1.25781 27.2799 0.964844 25.9648 0.964844C24.4805 0.964844 23.1458 1.375 21.9609 2.19531C20.7891 3.01562 19.9622 4.1875 19.4805 5.71094C19.0117 4.1875 18.1914 3.01562 17.0195 2.19531C15.8477 1.375 14.513 0.964844 13.0156 0.964844C11.6875 0.964844 10.4896 1.25781 9.42188 1.84375C8.35417 2.42969 7.49479 3.23698 6.84375 4.26562C6.20573 5.28125 5.88672 6.44661 5.88672 7.76172C5.88672 8.59505 6.03646 9.3763 6.33594 10.1055C6.63542 10.8216 7.05208 11.4401 7.58594 11.9609H4.57812C3.21094 11.9609 2.13672 12.3776 1.35547 13.2109C0.574219 14.0312 0.183594 15.151 0.183594 16.5703V21.3945C0.183594 22.5013 0.398438 23.4193 0.828125 24.1484C1.25781 24.8776 1.88932 25.3789 2.72266 25.6523H2.82031V37.1367C2.82031 38.9857 3.32161 40.3984 4.32422 41.375C5.32682 42.3516 6.75911 42.8398 8.62109 42.8398ZM17.3516 38.9336H9.42188C8.67969 38.9336 8.10677 38.7318 7.70312 38.3281C7.29948 37.9245 7.09766 37.3581 7.09766 36.6289V25.9648H17.3516V38.9336ZM21.6289 38.9336V25.9648H31.8828V36.6289C31.8828 37.3581 31.681 37.9245 31.2773 38.3281C30.8737 38.7318 30.3008 38.9336 29.5586 38.9336H21.6289ZM17.3516 22.1367H5.75C5.29427 22.1367 4.96224 22.0326 4.75391 21.8242C4.55859 21.6159 4.46094 21.2839 4.46094 20.8281V17.1172C4.46094 16.6615 4.55859 16.3294 4.75391 16.1211C4.96224 15.9128 5.29427 15.8086 5.75 15.8086H17.3516V22.1367ZM21.6289 22.1367V15.8086H33.25C33.6927 15.8086 34.0117 15.9128 34.207 16.1211C34.4154 16.3294 34.5195 16.6615 34.5195 17.1172V20.8867C34.5195 21.3424 34.4154 21.668 34.207 21.8633C34.0117 22.0456 33.6927 22.1367 33.25 22.1367H21.6289ZM17.4688 11.9609H14.5977C13.1393 11.9609 12.0065 11.6094 11.1992 10.9062C10.3919 10.1901 9.98828 9.3112 9.98828 8.26953C9.98828 7.24089 10.3073 6.43359 10.9453 5.84766C11.5833 5.26172 12.4232 4.96875 13.4648 4.96875C14.5716 4.96875 15.5156 5.37891 16.2969 6.19922C17.0781 7.01953 17.4688 8.10026 17.4688 9.44141V11.9609ZM21.5117 11.9609V9.44141C21.5117 8.10026 21.9023 7.01953 22.6836 6.19922C23.4779 5.37891 24.4219 4.96875 25.5156 4.96875C26.5703 4.96875 27.4102 5.26172 28.0352 5.84766C28.6732 6.43359 28.9922 7.24089 28.9922 8.26953C28.9922 9.3112 28.5885 10.1901 27.7812 10.9062C26.974 11.6094 25.8411 11.9609 24.3828 11.9609H21.5117Z" fill="currentColor" />
</svg>