<svg width="20" height="22" viewBox="0 0 20 22" fill="none" xmlns="http://www.w3.org/2000/svg">
<path d="M0.503676 1.54536V1.53179L0.50294 1.51824C0.494962 1.37133 0.5139 1.22561 0.557499 1.0878L10.4771 10.9994L0.556279 20.9202C0.511439 20.7816 0.492696 20.6346 0.502569 20.4865L0.503676 20.4699V20.4532V1.54536Z" fill="white" stroke="#0B69AF"/>
<path d="M18.5879 10.2035L18.5885 10.2039C19.0955 10.4899 19.2317 10.7976 19.2317 11.0004C19.2317 11.204 19.0945 11.514 18.5866 11.8044C18.5864 11.8045 18.5863 11.8045 18.5861 11.8046L14.6525 14.0409L11.6329 10.9993L14.6412 7.96897L18.5879 10.2035Z" fill="white" stroke="#0B69AF"/>
<mask id="path-3-inside-1_324_2482" fill="white">
<path d="M14.6636 14.6062L11.0564 10.999L0.405762 21.6497C0.647302 21.8647 0.956471 21.9884 1.27965 21.9993C1.60284 22.0102 1.91966 21.9077 2.17517 21.7095L14.6636 14.6062"/>
</mask>
<path d="M14.6636 14.6062L11.0564 10.999L0.405762 21.6497C0.647302 21.8647 0.956471 21.9884 1.27965 21.9993C1.60284 22.0102 1.91966 21.9077 2.17517 21.7095L14.6636 14.6062" fill="white"/>
<path d="M11.0564 10.999L11.7635 10.2919L11.0564 9.58481L10.3493 10.2919L11.0564 10.999ZM0.405762 21.6497L-0.301345 20.9426L-1.05075 21.692L-0.259117 22.3966L0.405762 21.6497ZM2.17517 21.7095L1.68076 20.8403L1.61869 20.8756L1.56227 20.9193L2.17517 21.7095ZM15.3707 13.8991L11.7635 10.2919L10.3493 11.7061L13.9565 15.3133L15.3707 13.8991ZM10.3493 10.2919L-0.301345 20.9426L1.11287 22.3568L11.7635 11.7061L10.3493 10.2919ZM-0.259117 22.3966C0.156849 22.7669 0.689282 22.9799 1.24586 22.9987L1.31345 20.9999C1.22366 20.9968 1.13776 20.9624 1.07064 20.9027L-0.259117 22.3966ZM1.24586 22.9987C1.80243 23.0175 2.34804 22.841 2.78807 22.4997L1.56227 20.9193C1.49127 20.9744 1.40324 21.0029 1.31345 20.9999L1.24586 22.9987ZM2.66958 22.5787L15.158 15.4755L14.1692 13.737L1.68076 20.8403L2.66958 22.5787Z" fill="#0B69AF" mask="url(#path-3-inside-1_324_2482)"/>
<path d="M1.86483 0.689197L1.89488 0.712978L1.92819 0.731904L13.8459 7.50243L11.0564 10.292L1.26614 0.501719C1.27594 0.501104 1.28577 0.500654 1.29561 0.500368C1.50166 0.494396 1.70321 0.561258 1.86483 0.689197Z" fill="white" stroke="#0B69AF"/>
<path opacity="0.2" d="M14.561 14.5291L2.17517 21.581C1.92894 21.7669 1.62886 21.8674 1.32038 21.8674C1.0119 21.8674 0.711822 21.7669 0.465596 21.581V21.581L0.405762 21.6409L0.465596 21.7093C0.711822 21.8951 1.0119 21.9956 1.32038 21.9956C1.62886 21.9956 1.92894 21.8951 2.17517 21.7093L14.6636 14.606L14.561 14.5291Z" fill="black"/>
</svg>
