<svg width="15" height="15" viewBox="0 0 15 15" fill="none" xmlns="http://www.w3.org/2000/svg">
<path d="M7.5 14.126C8.43424 14.126 9.31152 13.9482 10.1318 13.5928C10.9521 13.2419 11.6745 12.7542 12.2988 12.1299C12.9232 11.5055 13.4108 10.7832 13.7617 9.96289C14.1172 9.14258 14.2949 8.2653 14.2949 7.33105C14.2949 6.40137 14.1172 5.52637 13.7617 4.70605C13.4108 3.88574 12.9209 3.16341 12.292 2.53906C11.6676 1.91471 10.9453 1.4248 10.125 1.06934C9.30469 0.713867 8.42741 0.536133 7.49316 0.536133C6.56803 0.536133 5.69531 0.713867 4.875 1.06934C4.05469 1.4248 3.33008 1.91471 2.70117 2.53906C2.07682 3.16341 1.58691 3.88574 1.23145 4.70605C0.880534 5.52637 0.705078 6.40137 0.705078 7.33105C0.705078 8.2653 0.882812 9.14258 1.23828 9.96289C1.59375 10.7832 2.08366 11.5055 2.70801 12.1299C3.33236 12.7542 4.05469 13.2419 4.875 13.5928C5.69531 13.9482 6.57031 14.126 7.5 14.126ZM7.5 12.5127C6.78451 12.5127 6.1123 12.3783 5.4834 12.1094C4.85905 11.8451 4.3099 11.4759 3.83594 11.002C3.36198 10.528 2.99056 9.97884 2.72168 9.35449C2.45736 8.72559 2.3252 8.05111 2.3252 7.33105C2.3252 6.61556 2.45736 5.94564 2.72168 5.32129C2.99056 4.69238 3.36198 4.14095 3.83594 3.66699C4.3099 3.19303 4.85905 2.82389 5.4834 2.55957C6.10775 2.29069 6.77767 2.15625 7.49316 2.15625C8.21777 2.15625 8.89225 2.29069 9.5166 2.55957C10.141 2.82389 10.6901 3.19303 11.1641 3.66699C11.6426 4.14095 12.014 4.69238 12.2783 5.32129C12.5472 5.94564 12.6816 6.61556 12.6816 7.33105C12.6862 8.05111 12.554 8.72559 12.2852 9.35449C12.0163 9.97884 11.6449 10.528 11.1709 11.002C10.7015 11.4759 10.1523 11.8451 9.52344 12.1094C8.89453 12.3783 8.22005 12.5127 7.5 12.5127ZM7.34961 8.55469C7.54557 8.55469 7.70508 8.50911 7.82812 8.41797C7.95573 8.32227 8.02865 8.20605 8.04688 8.06934C8.05143 8.06022 8.05371 8.04883 8.05371 8.03516C8.05371 8.02148 8.05599 8.00781 8.06055 7.99414C8.07878 7.84375 8.14714 7.71159 8.26562 7.59766C8.38867 7.47917 8.5459 7.3584 8.7373 7.23535C9.06543 7.02572 9.31608 6.8138 9.48926 6.59961C9.66243 6.38086 9.74902 6.09147 9.74902 5.73145C9.74902 5.37142 9.65104 5.06152 9.45508 4.80176C9.25911 4.54199 8.99479 4.34147 8.66211 4.2002C8.32943 4.05892 7.96029 3.98828 7.55469 3.98828C7.00326 3.98828 6.54069 4.09538 6.16699 4.30957C5.79785 4.51921 5.55632 4.77669 5.44238 5.08203C5.4196 5.14583 5.40137 5.20736 5.3877 5.2666C5.37402 5.32585 5.36719 5.38737 5.36719 5.45117C5.36719 5.61979 5.42415 5.75879 5.53809 5.86816C5.65658 5.97754 5.79785 6.03223 5.96191 6.03223C6.08952 6.03223 6.20117 6.00944 6.29688 5.96387C6.39258 5.91374 6.47461 5.8431 6.54297 5.75195L6.625 5.64258C6.72982 5.48307 6.84831 5.36686 6.98047 5.29395C7.11719 5.21647 7.26758 5.17773 7.43164 5.17773C7.64583 5.17773 7.82357 5.23698 7.96484 5.35547C8.10612 5.47396 8.17676 5.62663 8.17676 5.81348C8.17676 6.00033 8.1084 6.15527 7.97168 6.27832C7.83952 6.39681 7.64128 6.5472 7.37695 6.72949C7.14909 6.88444 6.96224 7.05078 6.81641 7.22852C6.67513 7.40625 6.60449 7.625 6.60449 7.88477C6.60449 7.89388 6.60449 7.90299 6.60449 7.91211C6.60449 7.92122 6.60449 7.93034 6.60449 7.93945C6.60449 8.34961 6.85286 8.55469 7.34961 8.55469ZM7.34277 10.6055C7.5752 10.6055 7.77116 10.5371 7.93066 10.4004C8.09473 10.2591 8.17676 10.0745 8.17676 9.84668C8.17676 9.61882 8.09473 9.43652 7.93066 9.2998C7.77116 9.15853 7.5752 9.08789 7.34277 9.08789C7.10579 9.08789 6.90527 9.15853 6.74121 9.2998C6.58171 9.44108 6.50195 9.62337 6.50195 9.84668C6.50195 10.07 6.58398 10.2523 6.74805 10.3936C6.91211 10.5348 7.11035 10.6055 7.34277 10.6055Z" fill="currentColor"/>
</svg>
