<svg width="16" height="17" viewBox="0 0 16 17" fill="none" xmlns="http://www.w3.org/2000/svg">
<path d="M8 16.0547C9.08333 16.0547 10.099 15.849 11.0469 15.4375C12 15.026 12.8385 14.4583 13.5625 13.7344C14.2917 13.0104 14.8594 12.1719 15.2656 11.2188C15.6771 10.2656 15.8828 9.25 15.8828 8.17188C15.8828 7.08854 15.6771 6.07031 15.2656 5.11719C14.8542 4.16406 14.2839 3.32552 13.5547 2.60156C12.8307 1.8776 11.9922 1.3099 11.0391 0.898438C10.0911 0.486979 9.07552 0.28125 7.99219 0.28125C6.90885 0.28125 5.89062 0.486979 4.9375 0.898438C3.98958 1.3099 3.15104 1.8776 2.42188 2.60156C1.69792 3.32552 1.13021 4.16406 0.71875 5.11719C0.3125 6.07031 0.109375 7.08854 0.109375 8.17188C0.109375 9.25 0.315104 10.2656 0.726562 11.2188C1.13802 12.1719 1.70573 13.0104 2.42969 13.7344C3.15365 14.4583 3.98958 15.026 4.9375 15.4375C5.89062 15.849 6.91146 16.0547 8 16.0547ZM8 13.8984C7.20312 13.8984 6.45833 13.7526 5.76562 13.4609C5.07292 13.1641 4.46354 12.7526 3.9375 12.2266C3.41146 11.7005 3 11.0911 2.70312 10.3984C2.41146 9.70573 2.26562 8.96354 2.26562 8.17188C2.26562 7.38021 2.41146 6.63802 2.70312 5.94531C3 5.2474 3.41146 4.63542 3.9375 4.10938C4.46354 3.58333 5.07292 3.17448 5.76562 2.88281C6.45833 2.58594 7.20052 2.4375 7.99219 2.4375C8.78906 2.4375 9.53385 2.58594 10.2266 2.88281C10.9193 3.17448 11.5286 3.58333 12.0547 4.10938C12.5807 4.63542 12.9922 5.2474 13.2891 5.94531C13.5859 6.63802 13.7344 7.38021 13.7344 8.17188C13.7344 8.96354 13.5859 9.70573 13.2891 10.3984C12.9922 11.0911 12.5807 11.7005 12.0547 12.2266C11.5339 12.7526 10.9245 13.1641 10.2266 13.4609C9.53385 13.7526 8.79167 13.8984 8 13.8984ZM8 9.13281C8.53646 9.13281 8.81771 8.85938 8.84375 8.3125L8.96875 5.52344C8.98438 5.23698 8.89844 5.00781 8.71094 4.83594C8.52865 4.65885 8.28906 4.57031 7.99219 4.57031C7.6901 4.57031 7.44792 4.65885 7.26562 4.83594C7.08333 5.00781 7 5.23698 7.01562 5.52344L7.13281 8.32031C7.15885 8.86198 7.44792 9.13281 8 9.13281ZM8 11.7031C8.29167 11.7031 8.53646 11.6224 8.73438 11.4609C8.93229 11.2943 9.03125 11.0703 9.03125 10.7891C9.03125 10.5078 8.93229 10.2839 8.73438 10.1172C8.53646 9.94531 8.29167 9.85938 8 9.85938C7.70312 9.85938 7.45312 9.94531 7.25 10.1172C7.05208 10.2839 6.95312 10.5078 6.95312 10.7891C6.95312 11.0651 7.05208 11.2865 7.25 11.4531C7.45312 11.6198 7.70312 11.7031 8 11.7031Z" fill="currentColor"/>
</svg>
