<svg width="21" height="21" viewBox="0 0 21 21" fill="none" xmlns="http://www.w3.org/2000/svg">
<path d="M10.5 20.0371C11.8346 20.0371 13.0879 19.7832 14.2598 19.2754C15.4316 18.7741 16.4635 18.0775 17.3555 17.1855C18.2474 16.2936 18.944 15.2617 19.4453 14.0898C19.9531 12.918 20.207 11.6647 20.207 10.3301C20.207 9.00195 19.9531 7.75195 19.4453 6.58008C18.944 5.4082 18.2441 4.3763 17.3457 3.48438C16.4538 2.59245 15.4219 1.89258 14.25 1.38477C13.0781 0.876953 11.8249 0.623047 10.4902 0.623047C9.16862 0.623047 7.92188 0.876953 6.75 1.38477C5.57812 1.89258 4.54297 2.59245 3.64453 3.48438C2.7526 4.3763 2.05273 5.4082 1.54492 6.58008C1.04362 7.75195 0.792969 9.00195 0.792969 10.3301C0.792969 11.6647 1.04688 12.918 1.55469 14.0898C2.0625 15.2617 2.76237 16.2936 3.6543 17.1855C4.54622 18.0775 5.57812 18.7741 6.75 19.2754C7.92188 19.7832 9.17188 20.0371 10.5 20.0371ZM10.5 17.7324C9.47786 17.7324 8.51758 17.5404 7.61914 17.1562C6.72721 16.7786 5.94271 16.2513 5.26562 15.5742C4.58854 14.8971 4.05794 14.1126 3.67383 13.2207C3.29622 12.3223 3.10742 11.3587 3.10742 10.3301C3.10742 9.30794 3.29622 8.35091 3.67383 7.45898C4.05794 6.56055 4.58854 5.77279 5.26562 5.0957C5.94271 4.41862 6.72721 3.89128 7.61914 3.51367C8.51107 3.12956 9.4681 2.9375 10.4902 2.9375C11.5254 2.9375 12.4889 3.12956 13.3809 3.51367C14.2793 3.89128 15.0671 4.41862 15.7441 5.0957C16.4212 5.77279 16.9486 6.56055 17.3262 7.45898C17.7103 8.35091 17.9023 9.30794 17.9023 10.3301C17.9023 11.3587 17.7103 12.3223 17.3262 13.2207C16.9486 14.1126 16.4212 14.8971 15.7441 15.5742C15.0671 16.2513 14.2793 16.7786 13.3809 17.1562C12.4889 17.5404 11.5286 17.7324 10.5 17.7324ZM6.22266 11.7852C6.61979 11.7852 6.95833 11.6419 7.23828 11.3555C7.52474 11.069 7.66797 10.724 7.66797 10.3203C7.66797 9.91667 7.52474 9.57161 7.23828 9.28516C6.95833 8.9987 6.61979 8.85547 6.22266 8.85547C5.8125 8.85547 5.46419 8.9987 5.17773 9.28516C4.89779 9.57161 4.75781 9.91667 4.75781 10.3203C4.75781 10.724 4.89779 11.069 5.17773 11.3555C5.46419 11.6419 5.8125 11.7852 6.22266 11.7852ZM10.4805 11.7852C10.8841 11.7852 11.2292 11.6419 11.5156 11.3555C11.8021 11.069 11.9453 10.724 11.9453 10.3203C11.9453 9.91667 11.8021 9.57161 11.5156 9.28516C11.2292 8.9987 10.8841 8.85547 10.4805 8.85547C10.0833 8.85547 9.74154 8.9987 9.45508 9.28516C9.16862 9.57161 9.02539 9.91667 9.02539 10.3203C9.02539 10.724 9.16862 11.069 9.45508 11.3555C9.74154 11.6419 10.0833 11.7852 10.4805 11.7852ZM14.7578 11.7852C15.1549 11.7852 15.4967 11.6419 15.7832 11.3555C16.0697 11.069 16.2129 10.724 16.2129 10.3203C16.2129 9.91667 16.0697 9.57161 15.7832 9.28516C15.4967 8.9987 15.1549 8.85547 14.7578 8.85547C14.3542 8.85547 14.0091 8.9987 13.7227 9.28516C13.4427 9.57161 13.3027 9.91667 13.3027 10.3203C13.3027 10.724 13.4427 11.069 13.7227 11.3555C14.0091 11.6419 14.3542 11.7852 14.7578 11.7852Z" fill="#F7B94D"/>
</svg>
