<svg width="19" height="18" viewBox="0 0 19 18" fill="none" xmlns="http://www.w3.org/2000/svg">
    <path
        d="M3.29785 17.2764H16.0596C16.5752 17.2764 17.0264 17.1562 17.4131 16.916C17.8057 16.6758 18.1104 16.3594 18.3271 15.9668C18.5439 15.5742 18.6523 15.1436 18.6523 14.6748C18.6523 14.458 18.623 14.2412 18.5645 14.0244C18.5117 13.8018 18.4268 13.5879 18.3096 13.3828L11.9111 2.21191C11.6592 1.77832 11.334 1.45313 10.9355 1.23633C10.5371 1.01367 10.1182 0.902344 9.67871 0.902344C9.23926 0.902344 8.81445 1.01367 8.4043 1.23633C8 1.45313 7.6748 1.77832 7.42871 2.21191L1.04785 13.3828C0.813477 13.7871 0.696289 14.2178 0.696289 14.6748C0.696289 15.1436 0.804688 15.5742 1.02148 15.9668C1.23828 16.3594 1.54004 16.6758 1.92676 16.916C2.31934 17.1562 2.77637 17.2764 3.29785 17.2764ZM3.78125 15.0352C3.59961 15.0352 3.45312 14.9736 3.3418 14.8506C3.23047 14.7217 3.1748 14.5723 3.1748 14.4023C3.1748 14.3555 3.18066 14.3027 3.19238 14.2441C3.2041 14.1797 3.22461 14.1211 3.25391 14.0684L9.15137 3.6709C9.20996 3.57715 9.28613 3.50977 9.37988 3.46875C9.47949 3.42773 9.5791 3.40723 9.67871 3.40723C9.77246 3.40723 9.86621 3.43066 9.95996 3.47754C10.0596 3.51855 10.1357 3.58594 10.1885 3.67969L16.0947 14.0771C16.1475 14.1826 16.1738 14.291 16.1738 14.4023C16.1738 14.5723 16.1182 14.7217 16.0068 14.8506C15.8955 14.9736 15.749 15.0352 15.5674 15.0352H3.78125ZM9.69629 11.1504C10.2998 11.1504 10.6162 10.8428 10.6455 10.2275L10.7861 7.08984C10.8037 6.76758 10.707 6.50977 10.4961 6.31641C10.291 6.11719 10.0215 6.01758 9.6875 6.01758C9.34766 6.01758 9.0752 6.11719 8.87012 6.31641C8.66504 6.50977 8.57129 6.76758 8.58887 7.08984L8.7207 10.2363C8.75 10.8457 9.0752 11.1504 9.69629 11.1504ZM9.69629 14.042C10.0244 14.042 10.2998 13.9512 10.5225 13.7695C10.7451 13.582 10.8564 13.3301 10.8564 13.0137C10.8564 12.6973 10.7451 12.4453 10.5225 12.2578C10.2998 12.0645 10.0244 11.9678 9.69629 11.9678C9.3623 11.9678 9.08105 12.0645 8.85254 12.2578C8.62988 12.4453 8.51855 12.6973 8.51855 13.0137C8.51855 13.3242 8.62988 13.5732 8.85254 13.7607C9.08105 13.9482 9.3623 14.042 9.69629 14.042Z"
        fill="currentColor" />
</svg>