<svg width="11" height="20" viewBox="0 0 11 20" fill="currentColor" xmlns="http://www.w3.org/2000/svg">
<path d="M4.89062 18.7969C5.10417 18.9792 5.33854 19.0755 5.59375 19.0859C5.85417 19.0964 6.08333 19.0026 6.28125 18.8047L8.5625 16.5234C8.76042 16.3307 8.85677 16.099 8.85156 15.8281C8.84635 15.5625 8.7474 15.3333 8.55469 15.1406L7.60156 14.1797L9.08594 12.6953C9.27344 12.5026 9.36719 12.2734 9.36719 12.0078C9.3724 11.737 9.27604 11.5052 9.07812 11.3125L7.78906 10.0078C8.7526 9.48698 9.49219 8.82292 10.0078 8.01562C10.5286 7.20833 10.7891 6.31771 10.7891 5.34375C10.7891 4.625 10.6536 3.95312 10.3828 3.32812C10.1172 2.69792 9.74479 2.14583 9.26562 1.67188C8.79167 1.19271 8.23958 0.820312 7.60938 0.554688C6.98438 0.283854 6.3099 0.148438 5.58594 0.148438C4.86198 0.148438 4.1849 0.283854 3.55469 0.554688C2.92969 0.820312 2.3776 1.1901 1.89844 1.66406C1.42448 2.13802 1.05208 2.6901 0.78125 3.32031C0.515625 3.95052 0.382812 4.625 0.382812 5.34375C0.382812 6.01562 0.5 6.65365 0.734375 7.25781C0.973958 7.86198 1.3125 8.40365 1.75 8.88281C2.19271 9.36198 2.71615 9.7474 3.32031 10.0391V16.875C3.32031 17.0312 3.34635 17.1901 3.39844 17.3516C3.45573 17.5182 3.55208 17.6589 3.6875 17.7734L4.89062 18.7969ZM5.58594 17.1406L4.82031 16.3828V8.79688C4.29948 8.69271 3.82812 8.47656 3.40625 8.14844C2.98958 7.82031 2.65885 7.41406 2.41406 6.92969C2.16927 6.4401 2.04688 5.91146 2.04688 5.34375C2.04688 4.69271 2.20573 4.10156 2.52344 3.57031C2.84115 3.03906 3.26823 2.61719 3.80469 2.30469C4.34115 1.98698 4.9349 1.82812 5.58594 1.82812C6.23698 1.82812 6.82812 1.98698 7.35938 2.30469C7.89583 2.61719 8.32292 3.03906 8.64062 3.57031C8.95833 4.10156 9.11719 4.69271 9.11719 5.34375C9.11719 5.91146 8.98958 6.4401 8.73438 6.92969C8.47917 7.41406 8.1224 7.82552 7.66406 8.16406C7.21094 8.4974 6.68229 8.71615 6.07812 8.82031V10.6719L7.40625 12.0156L6.03125 13.3672V14.9766L6.89062 15.8203L5.58594 17.1406ZM5.58594 5.32812C5.92969 5.32812 6.22396 5.20573 6.46875 4.96094C6.71354 4.71615 6.83594 4.42188 6.83594 4.07812C6.83594 3.73438 6.71354 3.44271 6.46875 3.20312C6.22396 2.95833 5.92969 2.83594 5.58594 2.83594C5.24219 2.83594 4.94792 2.95573 4.70312 3.19531C4.45833 3.4349 4.33594 3.72917 4.33594 4.07812C4.33594 4.42188 4.45833 4.71615 4.70312 4.96094C4.94792 5.20573 5.24219 5.32812 5.58594 5.32812Z" fill="currentColor"/>
</svg>
