<svg width="15" height="17" viewBox="0 0 15 17" fill="none" xmlns="http://www.w3.org/2000/svg">
<path d="M0.882812 14.8281C0.882812 15.4688 1.04948 15.9661 1.38281 16.3203C1.72135 16.6745 2.19271 16.8516 2.79688 16.8516H12.1406C12.7448 16.8516 13.2135 16.6745 13.5469 16.3203C13.8802 15.9661 14.0469 15.4688 14.0469 14.8281V2.51562C14.0469 1.875 13.8802 1.3776 13.5469 1.02344C13.2135 0.669271 12.7448 0.492188 12.1406 0.492188H2.79688C2.19271 0.492188 1.72135 0.669271 1.38281 1.02344C1.04948 1.3776 0.882812 1.875 0.882812 2.51562V14.8281ZM2.95312 14.5V2.84375C2.95312 2.75521 2.97656 2.6849 3.02344 2.63281C3.07552 2.58073 3.14583 2.55469 3.23438 2.55469H11.6953C11.7839 2.55469 11.8516 2.58073 11.8984 2.63281C11.9505 2.6849 11.9766 2.75521 11.9766 2.84375V14.5C11.9766 14.5885 11.9505 14.6589 11.8984 14.7109C11.8516 14.763 11.7839 14.7891 11.6953 14.7891H3.23438C3.14583 14.7891 3.07552 14.763 3.02344 14.7109C2.97656 14.6589 2.95312 14.5885 2.95312 14.5ZM4.66406 15.7969H6.1875V13.3906C6.1875 13.25 6.25521 13.1797 6.39062 13.1797H8.54688C8.6875 13.1797 8.75781 13.25 8.75781 13.3906V15.7969H10.2812V12.7344C10.2812 12.4271 10.2005 12.1901 10.0391 12.0234C9.88281 11.8516 9.66146 11.7656 9.375 11.7656H5.57031C5.28385 11.7656 5.0599 11.8516 4.89844 12.0234C4.74219 12.1901 4.66406 12.4271 4.66406 12.7344V15.7969ZM5.13281 5.66406H6.46875C6.65104 5.66406 6.74219 5.57031 6.74219 5.38281V4.07031C6.74219 3.88281 6.65104 3.78906 6.46875 3.78906H5.13281C4.95573 3.78906 4.86719 3.88281 4.86719 4.07031V5.38281C4.86719 5.57031 4.95573 5.66406 5.13281 5.66406ZM8.46875 5.66406H9.79688C9.98438 5.66406 10.0781 5.57031 10.0781 5.38281V4.07031C10.0781 3.88281 9.98438 3.78906 9.79688 3.78906H8.46875C8.28646 3.78906 8.19531 3.88281 8.19531 4.07031V5.38281C8.19531 5.57031 8.28646 5.66406 8.46875 5.66406ZM5.13281 8.25781H6.46875C6.65104 8.25781 6.74219 8.16406 6.74219 7.97656V6.67188C6.74219 6.47917 6.65104 6.38281 6.46875 6.38281H5.13281C4.95573 6.38281 4.86719 6.47917 4.86719 6.67188V7.97656C4.86719 8.16406 4.95573 8.25781 5.13281 8.25781ZM8.46875 8.25781H9.79688C9.98438 8.25781 10.0781 8.16406 10.0781 7.97656V6.67188C10.0781 6.47917 9.98438 6.38281 9.79688 6.38281H8.46875C8.28646 6.38281 8.19531 6.47917 8.19531 6.67188V7.97656C8.19531 8.16406 8.28646 8.25781 8.46875 8.25781ZM5.13281 10.8516H6.46875C6.65104 10.8516 6.74219 10.7552 6.74219 10.5625V9.25781C6.74219 9.07552 6.65104 8.98438 6.46875 8.98438H5.13281C4.95573 8.98438 4.86719 9.07552 4.86719 9.25781V10.5625C4.86719 10.7552 4.95573 10.8516 5.13281 10.8516ZM8.46875 10.8516H9.79688C9.98438 10.8516 10.0781 10.7552 10.0781 10.5625V9.25781C10.0781 9.07552 9.98438 8.98438 9.79688 8.98438H8.46875C8.28646 8.98438 8.19531 9.07552 8.19531 9.25781V10.5625C8.19531 10.7552 8.28646 10.8516 8.46875 10.8516Z" fill="currentColor"/>
</svg>
