<svg width="17" height="15" viewBox="0 0 17 15" fill="none" xmlns="http://www.w3.org/2000/svg">
    <path d="M2.85352 14.4199H9.77832C10.5029 14.4199 11.0544 14.2285 11.4326 13.8457C11.8154 13.4629 12.0068 12.9069 12.0068 12.1777V9.38867H10.4277V12.0205C10.4277 12.2894 10.3594 12.4945 10.2227 12.6357C10.0859 12.777 9.8763 12.8477 9.59375 12.8477H3.03809C2.75553 12.8477 2.5459 12.777 2.40918 12.6357C2.27246 12.4945 2.2041 12.2894 2.2041 12.0205V2.65527C2.2041 2.38184 2.27246 2.17676 2.40918 2.04004C2.5459 1.89876 2.75553 1.82812 3.03809 1.82812H9.59375C9.8763 1.82812 10.0859 1.89876 10.2227 2.04004C10.3594 2.17676 10.4277 2.38184 10.4277 2.65527V5.30078H12.0068V2.49121C12.0068 1.76204 11.8154 1.20605 11.4326 0.823242C11.0544 0.435872 10.5029 0.242188 9.77832 0.242188H2.85352C2.13346 0.242188 1.58203 0.435872 1.19922 0.823242C0.816406 1.20605 0.625 1.76204 0.625 2.49121V12.1777C0.625 12.9069 0.816406 13.4629 1.19922 13.8457C1.58203 14.2285 2.13346 14.4199 2.85352 14.4199ZM7.2832 8.04199H13.627L14.584 7.98047L14.085 8.33594L13.2236 9.14258C13.0869 9.27018 13.0186 9.42741 13.0186 9.61426C13.0186 9.77832 13.0732 9.92415 13.1826 10.0518C13.2965 10.1748 13.4424 10.2363 13.6201 10.2363C13.7796 10.2363 13.9232 10.1702 14.0508 10.0381L16.1221 7.8916C16.2132 7.7959 16.277 7.70247 16.3135 7.61133C16.3499 7.52018 16.3682 7.42676 16.3682 7.33105C16.3682 7.23535 16.3499 7.14193 16.3135 7.05078C16.277 6.95508 16.2132 6.86165 16.1221 6.77051L14.0508 4.61719C13.9232 4.48958 13.7796 4.42578 13.6201 4.42578C13.4424 4.42578 13.2965 4.4873 13.1826 4.61035C13.0732 4.7334 13.0186 4.87695 13.0186 5.04102C13.0186 5.23242 13.0869 5.38965 13.2236 5.5127L14.085 6.32617L14.584 6.68164L13.627 6.62012H7.2832C7.09635 6.62012 6.93229 6.68848 6.79102 6.8252C6.64974 6.96191 6.5791 7.13053 6.5791 7.33105C6.5791 7.52702 6.64974 7.69564 6.79102 7.83691C6.93229 7.97363 7.09635 8.04199 7.2832 8.04199Z" fill="currentColor" />
</svg>