<svg width="39" height="39" viewBox="0 0 39 39" fill="none" xmlns="http://www.w3.org/2000/svg">
<path d="M0.457031 36.9102C0.457031 37.5352 0.645833 38.0299 1.02344 38.3945C1.40104 38.7721 1.89583 38.9609 2.50781 38.9609H36.4922C37.1042 38.9609 37.599 38.7721 37.9766 38.3945C38.3542 38.0299 38.543 37.5352 38.543 36.9102V2.92578C38.543 2.3138 38.3542 1.82552 37.9766 1.46094C37.599 1.08333 37.1042 0.894531 36.4922 0.894531H2.50781C1.89583 0.894531 1.40104 1.08333 1.02344 1.46094C0.645833 1.82552 0.457031 2.3138 0.457031 2.92578V36.9102ZM6.51172 32.3789V7.45703C6.51172 7.10547 6.68099 6.92969 7.01953 6.92969H31.9609C32.3125 6.92969 32.4883 7.10547 32.4883 7.45703V32.3789C32.4883 32.7435 32.3125 32.9258 31.9609 32.9258H7.01953C6.68099 32.9258 6.51172 32.7435 6.51172 32.3789Z" fill="#8892E7"/>
</svg>
