<svg width="15" height="14" viewBox="0 0 15 14" fill="none" xmlns="http://www.w3.org/2000/svg">
<path d="M10.9932 9.19043C9.90853 9.19043 8.96973 8.98535 8.17676 8.5752C7.38835 8.16048 6.77767 7.57259 6.34473 6.81152C5.91634 6.0459 5.70215 5.13672 5.70215 4.08398C5.70215 3.64193 5.73633 3.22949 5.80469 2.84668C5.8776 2.46387 5.97331 2.16081 6.0918 1.9375C6.1556 1.81901 6.19889 1.71419 6.22168 1.62305C6.24902 1.52734 6.2627 1.43164 6.2627 1.33594C6.2627 1.1582 6.20117 1.00326 6.07812 0.871094C5.95508 0.738932 5.79102 0.672852 5.58594 0.672852C5.53125 0.672852 5.45833 0.681966 5.36719 0.700195C5.2806 0.718424 5.18262 0.748047 5.07324 0.789062C4.24382 1.1263 3.51465 1.61393 2.88574 2.25195C2.26139 2.88997 1.77376 3.62598 1.42285 4.45996C1.07194 5.29395 0.896484 6.16895 0.896484 7.08496C0.896484 8.07845 1.0651 8.99219 1.40234 9.82617C1.74414 10.6556 2.22038 11.3779 2.83105 11.9932C3.44629 12.6038 4.16862 13.0778 4.99805 13.415C5.83203 13.7568 6.74121 13.9277 7.72559 13.9277C8.65527 13.9277 9.52572 13.766 10.3369 13.4424C11.1481 13.1188 11.8636 12.6585 12.4834 12.0615C13.1032 11.4645 13.5931 10.7581 13.9531 9.94238C14.0078 9.82389 14.0443 9.71452 14.0625 9.61426C14.0807 9.514 14.0898 9.43197 14.0898 9.36816C14.0898 9.16764 14.0283 9.01042 13.9053 8.89648C13.7868 8.77799 13.6432 8.71875 13.4746 8.71875C13.3835 8.71875 13.2923 8.73014 13.2012 8.75293C13.1146 8.77116 13.012 8.8099 12.8936 8.86914C12.7432 8.93294 12.5632 8.98991 12.3535 9.04004C12.1484 9.08561 11.9297 9.12207 11.6973 9.14941C11.4648 9.17676 11.2301 9.19043 10.9932 9.19043ZM2.45508 7.05762C2.45508 6.52441 2.53483 6.00033 2.69434 5.48535C2.8584 4.97038 3.09082 4.49186 3.3916 4.0498C3.69694 3.60319 4.05924 3.22266 4.47852 2.9082C4.41471 3.1224 4.36458 3.3457 4.32812 3.57812C4.29622 3.81055 4.28027 4.05436 4.28027 4.30957C4.28027 5.6084 4.53776 6.72721 5.05273 7.66602C5.56771 8.60482 6.30371 9.32715 7.26074 9.83301C8.22233 10.3389 9.36849 10.5918 10.6992 10.5918C10.9043 10.5918 11.1003 10.5804 11.2871 10.5576C11.474 10.5303 11.6517 10.4893 11.8203 10.4346C11.5241 10.8402 11.1618 11.1888 10.7334 11.4805C10.3096 11.7676 9.84245 11.9863 9.33203 12.1367C8.82617 12.2917 8.30208 12.3691 7.75977 12.3691C6.99414 12.3691 6.28776 12.2393 5.64062 11.9795C4.99349 11.7152 4.43294 11.3438 3.95898 10.8652C3.48503 10.3867 3.11589 9.82617 2.85156 9.18359C2.58724 8.53646 2.45508 7.8278 2.45508 7.05762Z" fill="currentColor"/>
</svg>
