<svg width="15" height="15" viewBox="0 0 15 15" fill="none" xmlns="http://www.w3.org/2000/svg">
<path d="M3.04688 14.3203H11.9453C12.8151 14.3203 13.4818 14.0859 13.9453 13.6172C14.4089 13.1536 14.6406 12.4922 14.6406 11.6328V2.71094C14.6406 1.85677 14.4089 1.19792 13.9453 0.734375C13.4818 0.265625 12.8151 0.03125 11.9453 0.03125H3.04688C2.1875 0.03125 1.52344 0.263021 1.05469 0.726562C0.585938 1.1901 0.351562 1.85156 0.351562 2.71094V11.6328C0.351562 12.4974 0.585938 13.1615 1.05469 13.625C1.52344 14.0885 2.1875 14.3203 3.04688 14.3203ZM3.3125 12.1953C3.03646 12.1953 2.82812 12.1276 2.6875 11.9922C2.54688 11.8568 2.47656 11.6432 2.47656 11.3516V3C2.47656 2.70833 2.54688 2.49479 2.6875 2.35938C2.82812 2.21875 3.03646 2.14844 3.3125 2.14844H11.6797C11.9557 2.14844 12.1641 2.21875 12.3047 2.35938C12.4505 2.49479 12.5234 2.70833 12.5234 3V11.3516C12.5234 11.6432 12.4505 11.8568 12.3047 11.9922C12.1641 12.1276 11.9557 12.1953 11.6797 12.1953H3.3125ZM11.3594 7.17188C11.3594 6.88021 11.2474 6.63021 11.0234 6.42188L8.5 4.03125C8.33333 3.86979 8.13542 3.78906 7.90625 3.78906C7.6875 3.78906 7.50781 3.86198 7.36719 4.00781C7.23177 4.15365 7.16406 4.33854 7.16406 4.5625C7.16406 4.79688 7.25 4.99219 7.42188 5.14844L8.21875 5.85938L8.92969 6.35156L7.50781 6.25781H4.48438C4.23438 6.25781 4.02865 6.34635 3.86719 6.52344C3.71094 6.70052 3.63281 6.91667 3.63281 7.17188C3.63281 7.42708 3.71094 7.64323 3.86719 7.82031C4.02865 7.9974 4.23438 8.08594 4.48438 8.08594H7.50781L8.92969 8L8.24219 8.48438L7.42188 9.19531C7.25 9.33594 7.16406 9.52865 7.16406 9.77344C7.16406 10.0026 7.23177 10.1927 7.36719 10.3438C7.50781 10.4896 7.6875 10.5625 7.90625 10.5625C8.13021 10.5625 8.32812 10.4792 8.5 10.3125L11.0234 7.92188C11.2474 7.71354 11.3594 7.46354 11.3594 7.17188Z" fill="currentColor"/>
</svg>
