<svg width="44" height="41" viewBox="0 0 44 41" fill="none" xmlns="http://www.w3.org/2000/svg">
<path d="M0.707031 34.8203C0.707031 36.7083 1.19531 38.1341 2.17188 39.0977C3.14844 40.0742 4.60677 40.5625 6.54688 40.5625H37.2305C39.2096 40.5625 40.694 40.0677 41.6836 39.0781C42.6732 38.1016 43.168 36.6432 43.168 34.7031V6.61719C43.168 4.6901 42.6732 3.23177 41.6836 2.24219C40.694 1.2526 39.2096 0.757812 37.2305 0.757812H14.9648C12.9857 0.757812 11.5013 1.2526 10.5117 2.24219C9.52214 3.23177 9.02734 4.6901 9.02734 6.61719V15.1523H4.76953C3.50651 15.1523 2.51042 15.4909 1.78125 16.168C1.0651 16.832 0.707031 17.763 0.707031 18.9609V34.8203ZM4.04688 34.7422V19.5859C4.04688 19.2474 4.14453 18.9805 4.33984 18.7852C4.53516 18.5768 4.80859 18.4727 5.16016 18.4727H9.02734V34.7422C9.02734 35.4714 8.78646 36.0703 8.30469 36.5391C7.82292 37.0208 7.23698 37.2617 6.54688 37.2617C5.83073 37.2617 5.23177 37.0143 4.75 36.5195C4.28125 36.0378 4.04688 35.4453 4.04688 34.7422ZM11.7422 37.2617C12.1328 36.5065 12.3281 35.6406 12.3281 34.6641V6.87109C12.3281 5.94661 12.5625 5.25651 13.0312 4.80078C13.513 4.33203 14.1966 4.09766 15.082 4.09766H37.1133C37.9987 4.09766 38.6758 4.33203 39.1445 4.80078C39.6263 5.25651 39.8672 5.94661 39.8672 6.87109V34.4688C39.8672 35.3932 39.6263 36.0898 39.1445 36.5586C38.6758 37.0273 37.9987 37.2617 37.1133 37.2617H11.7422ZM17.0547 12.0273H35.1406C35.4922 12.0273 35.7786 11.9102 36 11.6758C36.2214 11.4414 36.332 11.1549 36.332 10.8164C36.332 10.4909 36.2214 10.2174 36 9.99609C35.7786 9.76172 35.4922 9.64453 35.1406 9.64453H17.0547C16.7161 9.64453 16.4297 9.76172 16.1953 9.99609C15.974 10.2174 15.8633 10.4909 15.8633 10.8164C15.8633 11.1549 15.9805 11.4414 16.2148 11.6758C16.4492 11.9102 16.7292 12.0273 17.0547 12.0273ZM17.0547 18.4727H35.1406C35.4922 18.4727 35.7786 18.362 36 18.1406C36.2214 17.9062 36.332 17.6263 36.332 17.3008C36.332 16.9622 36.2214 16.6758 36 16.4414C35.7786 16.207 35.4922 16.0898 35.1406 16.0898H17.0547C16.7292 16.0898 16.4492 16.207 16.2148 16.4414C15.9805 16.6758 15.8633 16.9622 15.8633 17.3008C15.8633 17.6263 15.974 17.9062 16.1953 18.1406C16.4297 18.362 16.7161 18.4727 17.0547 18.4727ZM18.1289 31.4609H22.8164C23.5326 31.4609 24.0924 31.2656 24.4961 30.875C24.9128 30.4714 25.1211 29.9049 25.1211 29.1758V24.8398C25.1211 24.1367 24.9128 23.5833 24.4961 23.1797C24.0924 22.763 23.5326 22.5547 22.8164 22.5547H18.1289C17.4258 22.5547 16.8659 22.763 16.4492 23.1797C16.0456 23.5833 15.8438 24.1367 15.8438 24.8398V29.1758C15.8438 29.9049 16.0456 30.4714 16.4492 30.875C16.8659 31.2656 17.4258 31.4609 18.1289 31.4609ZM28.4023 24.9375H35.1406C35.4922 24.9375 35.7786 24.8268 36 24.6055C36.2214 24.3711 36.332 24.0846 36.332 23.7461C36.332 23.4206 36.2214 23.1406 36 22.9062C35.7786 22.6719 35.4922 22.5547 35.1406 22.5547H28.4023C28.0638 22.5547 27.7773 22.6719 27.543 22.9062C27.3216 23.1406 27.2109 23.4206 27.2109 23.7461C27.2109 24.0846 27.3216 24.3711 27.543 24.6055C27.7773 24.8268 28.0638 24.9375 28.4023 24.9375ZM28.4023 31.4609H35.1406C35.4922 31.4609 35.7786 31.3503 36 31.1289C36.2214 30.9076 36.332 30.6341 36.332 30.3086C36.332 29.9701 36.2214 29.6836 36 29.4492C35.7786 29.2148 35.4922 29.0977 35.1406 29.0977H28.4023C28.0638 29.0977 27.7773 29.2148 27.543 29.4492C27.3216 29.6836 27.2109 29.9701 27.2109 30.3086C27.2109 30.6341 27.3216 30.9076 27.543 31.1289C27.7773 31.3503 28.0638 31.4609 28.4023 31.4609Z" fill="currentColor"/>
</svg>
