<svg width="21" height="14" viewBox="0 0 21 14" fill="none" xmlns="http://www.w3.org/2000/svg">
<path d="M2.1875 13.4766H16.543C17.1536 13.4766 17.6253 13.3125 17.958 12.9844C18.2952 12.6562 18.4639 12.1868 18.4639 11.5762V5.74512L16.8506 7.35156V11.2754C16.8506 11.5033 16.7868 11.6833 16.6592 11.8154C16.5316 11.943 16.3493 12.0068 16.1123 12.0068H2.60449C2.36751 12.0068 2.18522 11.943 2.05762 11.8154C1.93457 11.6833 1.87305 11.5033 1.87305 11.2754V5.94336C1.87305 5.45117 2.11686 5.20508 2.60449 5.20508H13.2686L14.7383 3.73535H2.1875C1.57227 3.73535 1.09603 3.90169 0.758789 4.23438C0.426107 4.5625 0.259766 5.02962 0.259766 5.63574V11.5762C0.259766 12.1868 0.426107 12.6562 0.758789 12.9844C1.09603 13.3125 1.57227 13.4766 2.1875 13.4766ZM4.25879 9.62109C4.53223 9.62109 4.76693 9.52083 4.96289 9.32031C5.16341 9.11979 5.26367 8.88053 5.26367 8.60254C5.26367 8.3291 5.16341 8.0944 4.96289 7.89844C4.76693 7.69792 4.53223 7.59766 4.25879 7.59766C3.97624 7.59766 3.7347 7.69792 3.53418 7.89844C3.33822 8.0944 3.24023 8.3291 3.24023 8.60254C3.24023 8.88053 3.33822 9.11979 3.53418 9.32031C3.7347 9.52083 3.97624 9.62109 4.25879 9.62109ZM7.19824 9.62109C7.47624 9.62109 7.71322 9.52083 7.90918 9.32031C8.1097 9.11979 8.20996 8.88053 8.20996 8.60254C8.20996 8.3291 8.1097 8.0944 7.90918 7.89844C7.71322 7.69792 7.47624 7.59766 7.19824 7.59766C6.92025 7.59766 6.68099 7.69792 6.48047 7.89844C6.28451 8.0944 6.18652 8.3291 6.18652 8.60254C6.18652 8.88053 6.28451 9.11979 6.48047 9.32031C6.68099 9.52083 6.92025 9.62109 7.19824 9.62109ZM10.1445 9.62109C10.4271 9.62109 10.6663 9.52083 10.8623 9.32031C11.0583 9.11979 11.1562 8.88053 11.1562 8.60254C11.1562 8.3291 11.0583 8.0944 10.8623 7.89844C10.6663 7.69792 10.4271 7.59766 10.1445 7.59766C9.86654 7.59766 9.62956 7.69792 9.43359 7.89844C9.23763 8.0944 9.13965 8.3291 9.13965 8.60254C9.13965 8.88053 9.23763 9.11979 9.43359 9.32031C9.62956 9.52083 9.86654 9.62109 10.1445 9.62109ZM12.7285 8.92383L14.1504 8.33594L19.5234 2.96973L18.3818 1.83496L13.0225 7.20117L12.4141 8.60254C12.373 8.69824 12.3913 8.78483 12.4688 8.8623C12.5508 8.93978 12.6374 8.96029 12.7285 8.92383ZM19.9814 2.50488L20.5078 1.95117C20.6491 1.80534 20.7243 1.639 20.7334 1.45215C20.7425 1.2653 20.6787 1.09896 20.542 0.953125L20.3438 0.761719C20.2207 0.634115 20.0658 0.581706 19.8789 0.604492C19.6966 0.622721 19.5326 0.700195 19.3867 0.836914L18.8467 1.36328L19.9814 2.50488Z" fill="currentColor"/>
</svg>
