<svg width="33" height="44" viewBox="0 0 33 44" fill="none" xmlns="http://www.w3.org/2000/svg">
<path d="M6.14453 43.3594H27.4336C29.1654 43.3594 30.5065 42.8646 31.457 41.875C32.4076 40.8854 32.8828 39.4206 32.8828 37.4805V16.543C32.8828 14.6159 32.3815 13.1576 31.3789 12.168C30.3763 11.1784 28.8984 10.6836 26.9453 10.6836H6.14453C4.19141 10.6836 2.71354 11.1784 1.71094 12.168C0.708333 13.1576 0.207031 14.6159 0.207031 16.543V37.4805C0.207031 39.4206 0.708333 40.8854 1.71094 41.875C2.71354 42.8646 4.19141 43.3594 6.14453 43.3594ZM6.28125 40.0391C5.39583 40.0391 4.71875 39.8047 4.25 39.3359C3.78125 38.8672 3.54688 38.1706 3.54688 37.2461V16.7969C3.54688 15.8724 3.78125 15.1758 4.25 14.707C4.71875 14.2383 5.39583 14.0039 6.28125 14.0039H26.8086C27.694 14.0039 28.3711 14.2383 28.8398 14.707C29.3216 15.1758 29.5625 15.8724 29.5625 16.7969V37.2461C29.5625 38.1706 29.3411 38.8672 28.8984 39.3359C28.4688 39.8047 27.9414 40.0391 27.3164 40.0391H6.28125ZM4.26953 7.71484H28.7617C28.6185 6.86849 28.3125 6.21094 27.8438 5.74219C27.388 5.27344 26.6849 5.03906 25.7344 5.03906H7.29688C6.33333 5.03906 5.61719 5.27344 5.14844 5.74219C4.69271 6.21094 4.39974 6.86849 4.26953 7.71484ZM7.45312 2.46094H25.5586C25.5065 1.66667 25.2461 1.0612 24.7773 0.644531C24.3086 0.214844 23.638 0 22.7656 0H10.2461C9.38672 0 8.72266 0.214844 8.25391 0.644531C7.78516 1.0612 7.51823 1.66667 7.45312 2.46094ZM15.0703 40.5664H28.1953C28.8854 40.5664 29.4258 40.4492 29.8164 40.2148C30.207 39.9935 30.474 39.7005 30.6172 39.3359C30.7734 38.9844 30.8516 38.6068 30.8516 38.2031C30.7604 37.2396 30.3633 36.276 29.6602 35.3125C28.957 34.349 27.987 33.5482 26.75 32.9102C25.526 32.2721 24.0742 31.9531 22.3945 31.9531C21.0794 31.9531 19.888 32.1615 18.8203 32.5781C17.7656 32.9948 16.8607 33.5417 16.1055 34.2188C15.3633 34.8828 14.7904 35.6055 14.3867 36.3867C13.9961 37.181 13.8008 37.9492 13.8008 38.6914C13.8008 39.3164 13.918 39.7852 14.1523 40.0977C14.3997 40.4102 14.7057 40.5664 15.0703 40.5664ZM22.3945 29.7656C23.5013 29.7656 24.4518 29.3359 25.2461 28.4766C26.0534 27.6172 26.457 26.543 26.457 25.2539C26.457 24.4206 26.2747 23.6784 25.9102 23.0273C25.5456 22.3633 25.0508 21.8424 24.4258 21.4648C23.8138 21.0742 23.1367 20.8789 22.3945 20.8789C21.6654 20.8789 20.9883 21.0742 20.3633 21.4648C19.7383 21.8555 19.237 22.3893 18.8594 23.0664C18.4948 23.7305 18.3125 24.4727 18.3125 25.293C18.3255 26.556 18.7357 27.6172 19.543 28.4766C20.3503 29.3359 21.3008 29.7656 22.3945 29.7656ZM10.6562 31.9336C9.15885 31.9336 7.85026 32.2461 6.73047 32.8711C5.61068 33.4831 4.73177 34.2643 4.09375 35.2148C3.45573 36.1654 3.11719 37.1289 3.07812 38.1055C3.07812 38.7826 3.25391 39.362 3.60547 39.8438C3.97005 40.3255 4.59505 40.5664 5.48047 40.5664H12.0039C11.7565 39.9805 11.6328 39.3555 11.6328 38.6914C11.6328 37.5977 11.8802 36.543 12.375 35.5273C12.8698 34.5247 13.5469 33.6328 14.4062 32.8516C13.9245 32.5391 13.3646 32.3112 12.7266 32.168C12.1016 32.0117 11.4115 31.9336 10.6562 31.9336ZM10.6562 30.0195C11.6198 30.0195 12.4466 29.6419 13.1367 28.8867C13.8398 28.1315 14.1914 27.194 14.1914 26.0742C14.1914 24.9805 13.8398 24.0755 13.1367 23.3594C12.4336 22.6302 11.6068 22.2656 10.6562 22.2656C9.70573 22.2656 8.8724 22.6367 8.15625 23.3789C7.4401 24.1081 7.08203 25.013 7.08203 26.0938C7.08203 27.2005 7.43359 28.1315 8.13672 28.8867C8.85286 29.6419 9.69271 30.0195 10.6562 30.0195Z" fill="currentColor"/>
</svg>
