<svg width="13" height="13" viewBox="0 0 13 13" fill="none" xmlns="http://www.w3.org/2000/svg">
<path d="M2.50781 12.5518H10.4922C11.6543 12.5518 12.2354 12.1462 12.2354 11.335C12.2354 10.8701 12.0986 10.3962 11.8252 9.91309C11.5518 9.42546 11.1598 8.97656 10.6494 8.56641C10.1436 8.15625 9.53971 7.82585 8.83789 7.5752C8.13607 7.31999 7.35677 7.19238 6.5 7.19238C5.64779 7.19238 4.86849 7.31999 4.16211 7.5752C3.46029 7.82585 2.85417 8.15625 2.34375 8.56641C1.83789 8.97656 1.44824 9.42546 1.1748 9.91309C0.901367 10.3962 0.764648 10.8701 0.764648 11.335C0.764648 12.1462 1.3457 12.5518 2.50781 12.5518ZM2.42578 11.2393C2.36198 11.2393 2.31641 11.2256 2.28906 11.1982C2.26172 11.1755 2.24805 11.1413 2.24805 11.0957C2.24805 10.8678 2.34147 10.6081 2.52832 10.3164C2.71517 10.0247 2.99089 9.73991 3.35547 9.46191C3.72005 9.18392 4.16439 8.95605 4.68848 8.77832C5.21712 8.59603 5.82096 8.50488 6.5 8.50488C7.17448 8.50488 7.77604 8.59603 8.30469 8.77832C8.83333 8.95605 9.27767 9.18392 9.6377 9.46191C10.0023 9.73991 10.278 10.0247 10.4648 10.3164C10.6562 10.6081 10.752 10.8678 10.752 11.0957C10.752 11.1413 10.7383 11.1755 10.7109 11.1982C10.6882 11.2256 10.6426 11.2393 10.5742 11.2393H2.42578ZM6.5 6.50195C7.0332 6.50195 7.51628 6.36296 7.94922 6.08496C8.38672 5.80241 8.73307 5.42643 8.98828 4.95703C9.24805 4.48307 9.37793 3.95898 9.37793 3.38477C9.37793 2.82422 9.24805 2.3138 8.98828 1.85352C8.73307 1.38867 8.38672 1.01953 7.94922 0.746094C7.51172 0.472656 7.02865 0.335938 6.5 0.335938C5.97591 0.335938 5.49512 0.474935 5.05762 0.75293C4.62012 1.02637 4.27148 1.39551 4.01172 1.86035C3.75195 2.32064 3.62435 2.83105 3.62891 3.3916C3.62891 3.96582 3.75651 4.48991 4.01172 4.96387C4.27148 5.43327 4.61784 5.80697 5.05078 6.08496C5.48828 6.36296 5.97135 6.50195 6.5 6.50195ZM6.5 5.18945C6.22656 5.18945 5.97363 5.11198 5.74121 4.95703C5.50879 4.80208 5.32194 4.59017 5.18066 4.32129C5.04395 4.04785 4.97559 3.73568 4.97559 3.38477C4.97559 3.05208 5.04395 2.75586 5.18066 2.49609C5.32194 2.23177 5.50879 2.02441 5.74121 1.87402C5.97363 1.72363 6.22656 1.64844 6.5 1.64844C6.78255 1.64844 7.03776 1.72363 7.26562 1.87402C7.49805 2.01986 7.68262 2.22493 7.81934 2.48926C7.96061 2.74902 8.03125 3.04753 8.03125 3.38477C8.03125 3.73112 7.96061 4.04102 7.81934 4.31445C7.68262 4.58789 7.49805 4.80208 7.26562 4.95703C7.0332 5.11198 6.77799 5.18945 6.5 5.18945Z" fill="currentColor"/>
</svg>
