<svg width="14" height="13" viewBox="0 0 14 13" fill="none" xmlns="http://www.w3.org/2000/svg">
<path d="M0.882812 6.66406C0.882812 6.95573 0.986979 7.20573 1.19531 7.41406C1.40365 7.61719 1.65104 7.71875 1.9375 7.71875H6.14062V11.9219C6.14062 12.2083 6.24219 12.4531 6.44531 12.6562C6.65365 12.8646 6.90104 12.9688 7.1875 12.9688C7.47917 12.9688 7.72656 12.8646 7.92969 12.6562C8.13802 12.4531 8.24219 12.2083 8.24219 11.9219V7.71875H12.4453C12.7318 7.71875 12.9766 7.61719 13.1797 7.41406C13.388 7.20573 13.4922 6.95573 13.4922 6.66406C13.4922 6.3776 13.388 6.13021 13.1797 5.92188C12.9766 5.71354 12.7318 5.60938 12.4453 5.60938H8.24219V1.41406C8.24219 1.1276 8.13802 0.880208 7.92969 0.671875C7.72656 0.463542 7.47917 0.359375 7.1875 0.359375C6.90104 0.359375 6.65365 0.463542 6.44531 0.671875C6.24219 0.880208 6.14062 1.1276 6.14062 1.41406V5.60938H1.9375C1.65104 5.60938 1.40365 5.71354 1.19531 5.92188C0.986979 6.13021 0.882812 6.3776 0.882812 6.66406Z" fill="currentColor"/>
</svg>
