<svg width="36" height="28" viewBox="0 0 36 28" fill="none" xmlns="http://www.w3.org/2000/svg">
    <path d="M24.3187 24.1133C21.0985 24.1133 18.9552 22.1991 17.8888 18.3705L15.64 10.3909C14.8903 7.74693 13.56 6.42493 11.649 6.42493H10.5404V3.87082H11.649C14.8692 3.87082 17.0072 5.78508 18.063 9.6136L20.3119 17.5932C21.051 20.2372 22.3866 21.5592 24.3187 21.5592H25.4115V24.1133H24.3187ZM34.5495 18.3071C34.8451 18.6032 35.0299 18.9522 35.1038 19.3541C35.1882 19.756 35.2305 20.2002 35.2305 20.6867L35.2305 24.97C35.2305 25.4459 35.1882 25.8848 35.1038 26.2867C35.0299 26.6886 34.8451 27.0376 34.5495 27.3337C34.2538 27.6298 33.9054 27.8149 33.5042 27.889C33.1136 27.963 32.6807 28 32.2056 28H27.9296C27.4439 28 27.0005 27.963 26.5992 27.889C26.198 27.8149 25.8549 27.6298 25.5698 27.3337C25.2742 27.0376 25.0842 26.6886 24.9997 26.2867C24.9258 25.8848 24.8888 25.4406 24.8888 24.9541V20.6867C24.8888 20.2002 24.9258 19.756 24.9997 19.3541C25.0842 18.9522 25.2742 18.6032 25.5698 18.3071C25.8549 18.0215 26.198 17.8417 26.5992 17.7677C27.0005 17.6831 27.4439 17.6408 27.9296 17.6408H32.1897C32.6754 17.6408 33.1136 17.6831 33.5042 17.7677C33.9054 17.8417 34.2538 18.0215 34.5495 18.3071ZM10.4137 0.650425C10.7094 0.946554 10.8941 1.29556 10.968 1.69745C11.0525 2.09934 11.0947 2.54353 11.0947 3.03003V7.31331C11.0947 7.78924 11.0525 8.22814 10.968 8.63003C10.8941 9.03192 10.7094 9.38093 10.4137 9.67705C10.1181 9.97318 9.76968 10.1583 9.36848 10.2323C8.97783 10.3063 8.54495 10.3433 8.06983 10.3433H3.79382C3.3187 10.3433 2.88054 10.3063 2.47934 10.2323C2.06757 10.1583 1.71915 9.97318 1.43409 9.67705C1.14902 9.38093 0.969532 9.03192 0.895626 8.63003C0.811161 8.22814 0.768929 7.78923 0.768929 7.31331V3.03003C0.768929 2.54353 0.811161 2.09934 0.895626 1.69745C0.969532 1.29556 1.14902 0.946553 1.43409 0.650425C1.71915 0.364872 2.06757 0.18508 2.47934 0.111048C2.88054 0.037016 3.3187 -2.08032e-08 3.79382 0L8.06984 1.87228e-07C8.54495 2.08032e-07 8.98311 0.0370163 9.38432 0.111048C9.78552 0.185081 10.1287 0.364873 10.4137 0.650425Z" fill="currentColor" />
    <path d="M10.3419 19.8983C10.2725 19.5217 10.0991 19.1946 9.82158 18.9172C9.554 18.6496 9.23192 18.4811 8.85533 18.4117C8.47873 18.3424 8.06746 18.3077 7.62149 18.3077H3.6078C3.16184 18.3077 2.75056 18.3424 2.37397 18.4117C1.98746 18.4811 1.66042 18.6496 1.39285 18.9172C1.12527 19.1946 0.956789 19.5217 0.887417 19.8983C0.808134 20.2749 0.768494 20.6911 0.768494 21.147V25.1607C0.768494 25.6066 0.808134 26.0179 0.887417 26.3945C0.956789 26.7711 1.12527 27.0981 1.39285 27.3756C1.66042 27.6531 1.98746 27.8265 2.37397 27.8959C2.75056 27.9653 3.16184 28 3.6078 28H7.62149C8.06745 28 8.47378 27.9653 8.84046 27.8959C9.21705 27.8265 9.54409 27.6531 9.82158 27.3756C10.0991 27.0981 10.2725 26.7711 10.3419 26.3945C10.4212 26.0179 10.4608 25.6066 10.4608 25.1607V21.147C10.4608 20.6911 10.4212 20.2749 10.3419 19.8983Z" fill="currentColor" />
    <path fill-rule="evenodd" clip-rule="evenodd" d="M10.4611 24.7692H25.5381V22.6154H10.4611V24.7692Z" fill="currentColor" />
</svg>