<svg width="15" height="15" viewBox="0 0 15 15" fill="none" xmlns="http://www.w3.org/2000/svg">
    <path d="M4.37598 11.9336L6.50195 11.0312C6.65234 10.9674 6.77995 10.8831 6.88477 10.7783L13.1807 4.50977C13.5042 4.19076 13.666 3.84668 13.666 3.47754C13.666 3.10384 13.5042 2.75749 13.1807 2.43848L11.7314 0.982422C11.4124 0.663411 11.0661 0.503906 10.6924 0.503906C10.3232 0.499349 9.97917 0.658854 9.66016 0.982422L3.36426 7.24414C3.30501 7.30339 3.25488 7.36035 3.21387 7.41504C3.17741 7.46973 3.14095 7.53809 3.10449 7.62012L2.19531 9.75293C2.11328 9.94434 2.08594 10.1335 2.11328 10.3203C2.14062 10.5072 2.22493 10.6712 2.36621 10.8125L3.30957 11.7627C3.45085 11.904 3.61491 11.9906 3.80176 12.0225C3.98861 12.0498 4.18001 12.0202 4.37598 11.9336ZM4.21191 10.6279C4.15267 10.6462 4.10254 10.653 4.06152 10.6484C4.02051 10.6439 3.97493 10.6165 3.9248 10.5664L3.5625 10.2041C3.48047 10.1221 3.46224 10.0286 3.50781 9.92383L4.27344 8.14648L10.46 1.9873C10.6195 1.83236 10.7721 1.83008 10.918 1.98047L12.1826 3.25195C12.333 3.40234 12.3285 3.55501 12.1689 3.70996L5.98926 9.86914L4.21191 10.6279ZM1.58008 12.3027H2.50293C2.6123 12.3027 2.69434 12.2913 2.74902 12.2686C2.80371 12.2458 2.86523 12.207 2.93359 12.1523L3.64453 11.5986L2.55762 10.5117L1.34766 11.7627C1.23828 11.8721 1.2041 11.9906 1.24512 12.1182C1.29069 12.2412 1.40234 12.3027 1.58008 12.3027ZM3.38477 8.07129L6.20801 10.9082L7.01465 10.0947L4.19141 7.26465L3.38477 8.07129ZM8.8125 2.6709L11.6357 5.50098L12.4492 4.70801L9.61914 1.87109L8.8125 2.6709ZM1.26562 14.5859H13.7275C13.9007 14.5859 14.0465 14.5199 14.165 14.3877C14.2881 14.2601 14.3496 14.112 14.3496 13.9434C14.3496 13.7747 14.2881 13.6266 14.165 13.499C14.0465 13.376 13.9007 13.3145 13.7275 13.3145H1.26562C1.09701 13.3145 0.951172 13.376 0.828125 13.499C0.705078 13.6266 0.643555 13.7747 0.643555 13.9434C0.643555 14.112 0.705078 14.2601 0.828125 14.3877C0.951172 14.5199 1.09701 14.5859 1.26562 14.5859Z" fill="currentColor" />
</svg>