<svg width="17" height="21" viewBox="0 0 17 21" fill="none" xmlns="http://www.w3.org/2000/svg">
<path d="M3.92773 3.5625C3.73242 3.5625 3.57943 3.62109 3.46875 3.73828C3.36458 3.84896 3.3125 4.00521 3.3125 4.20703V5.70117C3.3125 5.89648 3.36458 6.05273 3.46875 6.16992C3.57943 6.2806 3.73242 6.33594 3.92773 6.33594H9.48438C9.67318 6.33594 9.82292 6.2806 9.93359 6.16992C10.0443 6.05273 10.0996 5.89648 10.0996 5.70117V4.20703C10.0996 4.00521 10.0443 3.84896 9.93359 3.73828C9.82292 3.62109 9.67318 3.5625 9.48438 3.5625H3.92773ZM3.92773 7.13672C3.73242 7.13672 3.57943 7.19531 3.46875 7.3125C3.36458 7.42969 3.3125 7.58268 3.3125 7.77148V9.27539C3.3125 9.4707 3.36458 9.62695 3.46875 9.74414C3.57943 9.86133 3.73242 9.91992 3.92773 9.91992H12.5117C12.694 9.91992 12.8372 9.86133 12.9414 9.74414C13.0521 9.62695 13.1074 9.4707 13.1074 9.27539V7.77148C13.1074 7.58268 13.0521 7.42969 12.9414 7.3125C12.8372 7.19531 12.694 7.13672 12.5117 7.13672H3.92773ZM3.92773 10.7305C3.73242 10.7305 3.57943 10.7858 3.46875 10.8965C3.36458 11.0072 3.3125 11.1602 3.3125 11.3555V12.8691C3.3125 13.0579 3.36458 13.2109 3.46875 13.3281C3.57943 13.4388 3.73242 13.4941 3.92773 13.4941H10.9785C11.1673 13.4941 11.3138 13.4388 11.418 13.3281C11.5286 13.2109 11.584 13.0579 11.584 12.8691V11.3555C11.584 11.1602 11.5286 11.0072 11.418 10.8965C11.3138 10.7858 11.1673 10.7305 10.9785 10.7305H3.92773ZM3.92773 14.3047C3.73242 14.3047 3.57943 14.3633 3.46875 14.4805C3.36458 14.5911 3.3125 14.7474 3.3125 14.9492V16.4434C3.3125 16.6322 3.36458 16.7852 3.46875 16.9023C3.57943 17.0195 3.73242 17.0781 3.92773 17.0781H8.05859C8.24089 17.0781 8.38737 17.0195 8.49805 16.9023C8.60872 16.7852 8.66406 16.6322 8.66406 16.4434V14.9492C8.66406 14.7474 8.60872 14.5911 8.49805 14.4805C8.38737 14.3633 8.24089 14.3047 8.05859 14.3047H3.92773ZM0.353516 17.3223C0.353516 18.3053 0.600911 19.0443 1.0957 19.5391C1.59049 20.0339 2.32292 20.2812 3.29297 20.2812H13.1172C14.0938 20.2812 14.8262 20.0339 15.3145 19.5391C15.8092 19.0443 16.0566 18.3053 16.0566 17.3223V3.34766C16.0566 2.36458 15.8092 1.62565 15.3145 1.13086C14.8262 0.629557 14.0938 0.378906 13.1172 0.378906H3.29297C2.32292 0.378906 1.59049 0.629557 1.0957 1.13086C0.600911 1.62565 0.353516 2.36458 0.353516 3.34766V17.3223ZM2.02344 17.2441V3.42578C2.02344 2.97656 2.13737 2.63477 2.36523 2.40039C2.59961 2.16602 2.94792 2.04883 3.41016 2.04883H13C13.4622 2.04883 13.8105 2.16602 14.0449 2.40039C14.2793 2.63477 14.3965 2.97656 14.3965 3.42578V17.2441C14.3965 17.6934 14.2793 18.0352 14.0449 18.2695C13.8105 18.5104 13.4622 18.6309 13 18.6309H3.41016C2.94792 18.6309 2.59961 18.5104 2.36523 18.2695C2.13737 18.0352 2.02344 17.6934 2.02344 17.2441Z" fill="currentColor"/>
</svg>
