<svg width="14" height="17" viewBox="0 0 14 17" fill="none" xmlns="http://www.w3.org/2000/svg">
<path d="M2.92969 16.7734H10.8438C11.6719 16.7734 12.3021 16.5547 12.7344 16.1172C13.1719 15.6797 13.3906 15.0443 13.3906 14.2109V3.14062C13.3906 2.30729 13.1719 1.67188 12.7344 1.23438C12.2969 0.791667 11.6667 0.570312 10.8438 0.570312H6.1875C5.73958 0.570312 5.34375 0.638021 5 0.773438C4.65625 0.903646 4.34896 1.10677 4.07812 1.38281L1.13281 4.32812C0.877604 4.58333 0.6875 4.8724 0.5625 5.19531C0.442708 5.51302 0.382812 5.88802 0.382812 6.32031V14.2109C0.382812 15.0391 0.601562 15.6719 1.03906 16.1094C1.47656 16.5521 2.10677 16.7734 2.92969 16.7734ZM3.14062 14.9688C2.81771 14.9688 2.57812 14.888 2.42188 14.7266C2.26562 14.5703 2.1875 14.3385 2.1875 14.0312V6.32031C2.1875 6.08594 2.21615 5.88542 2.27344 5.71875C2.33073 5.55208 2.42708 5.40365 2.5625 5.27344L4.90625 2.90625C5.25521 2.55208 5.6849 2.375 6.19531 2.375H10.6328C10.9557 2.375 11.1953 2.45573 11.3516 2.61719C11.5078 2.77865 11.5859 3.01302 11.5859 3.32031V14.0312C11.5859 14.3385 11.5078 14.5703 11.3516 14.7266C11.1953 14.888 10.9557 14.9688 10.6328 14.9688H3.14062ZM5 4.21094V6.39062C5 6.54167 5.05208 6.66927 5.15625 6.77344C5.26562 6.8776 5.39323 6.92969 5.53906 6.92969C5.6849 6.92969 5.8099 6.8776 5.91406 6.77344C6.01823 6.66927 6.07031 6.54167 6.07031 6.39062V4.21094C6.07031 4.0599 6.01823 3.93229 5.91406 3.82812C5.8151 3.72396 5.6901 3.67188 5.53906 3.67188C5.39323 3.67188 5.26562 3.72396 5.15625 3.82812C5.05208 3.93229 5 4.0599 5 4.21094ZM6.51562 4.21094V6.39062C6.51562 6.54167 6.57031 6.66927 6.67969 6.77344C6.78906 6.8776 6.91667 6.92969 7.0625 6.92969C7.20833 6.92969 7.33333 6.8776 7.4375 6.77344C7.54167 6.66927 7.59375 6.54167 7.59375 6.39062V4.21094C7.59375 4.0599 7.54167 3.93229 7.4375 3.82812C7.33854 3.72396 7.21354 3.67188 7.0625 3.67188C6.91146 3.67188 6.78125 3.72396 6.67188 3.82812C6.56771 3.93229 6.51562 4.0599 6.51562 4.21094ZM8.04688 4.21094V6.39062C8.04688 6.54167 8.09896 6.66927 8.20312 6.77344C8.30729 6.8776 8.43229 6.92969 8.57812 6.92969C8.72396 6.92969 8.84896 6.8776 8.95312 6.77344C9.05729 6.66406 9.10938 6.53646 9.10938 6.39062V4.21094C9.10938 4.0599 9.05729 3.93229 8.95312 3.82812C8.85417 3.72396 8.72917 3.67188 8.57812 3.67188C8.42708 3.67188 8.29948 3.72396 8.19531 3.82812C8.09635 3.93229 8.04688 4.0599 8.04688 4.21094ZM9.57031 4.21094V6.38281C9.57031 6.53385 9.6224 6.66406 9.72656 6.77344C9.83073 6.8776 9.95573 6.92969 10.1016 6.92969C10.2526 6.92969 10.3776 6.8776 10.4766 6.77344C10.5807 6.66927 10.6328 6.53906 10.6328 6.38281V4.21094C10.6328 4.0599 10.5807 3.93229 10.4766 3.82812C10.3776 3.72396 10.2526 3.67188 10.1016 3.67188C9.95573 3.67188 9.83073 3.72396 9.72656 3.82812C9.6224 3.93229 9.57031 4.0599 9.57031 4.21094Z" fill="currentColor"/>
</svg>
