<svg width="45" height="40" viewBox="0 0 45 40" fill="none" xmlns="http://www.w3.org/2000/svg">
<path d="M1.75 24.3672C2.20573 24.3672 2.58333 24.2109 2.88281 23.8984C3.19531 23.5859 3.35156 23.2214 3.35156 22.8047V16.5352C3.35156 16.1055 3.19531 15.7344 2.88281 15.4219C2.58333 15.1094 2.20573 14.9531 1.75 14.9531C1.30729 14.9531 0.936198 15.1094 0.636719 15.4219C0.35026 15.7344 0.207031 16.1055 0.207031 16.5352V22.8047C0.207031 23.2214 0.35026 23.5859 0.636719 23.8984C0.936198 24.2109 1.30729 24.3672 1.75 24.3672ZM8.05859 31.8672C8.5013 31.8672 8.8724 31.7174 9.17188 31.418C9.48438 31.1055 9.64062 30.7344 9.64062 30.3047V9.03516C9.64062 8.59245 9.48438 8.22135 9.17188 7.92188C8.8724 7.60938 8.5013 7.45312 8.05859 7.45312C7.60286 7.45312 7.22526 7.60938 6.92578 7.92188C6.63932 8.22135 6.49609 8.59245 6.49609 9.03516V30.3047C6.49609 30.7344 6.63932 31.1055 6.92578 31.418C7.22526 31.7174 7.60286 31.8672 8.05859 31.8672ZM14.3477 39.1914C14.8034 39.1914 15.181 39.0352 15.4805 38.7227C15.7799 38.4102 15.9297 38.0391 15.9297 37.6094V1.73047C15.9297 1.30078 15.7799 0.929688 15.4805 0.617188C15.181 0.304688 14.8034 0.148438 14.3477 0.148438C13.9049 0.148438 13.5339 0.304688 13.2344 0.617188C12.9349 0.929688 12.7852 1.30078 12.7852 1.73047V37.6094C12.7852 38.0391 12.9349 38.4102 13.2344 38.7227C13.5339 39.0352 13.9049 39.1914 14.3477 39.1914ZM20.6562 29.543C21.0859 29.543 21.4505 29.3932 21.75 29.0938C22.0625 28.7812 22.2188 28.4167 22.2188 28V11.3398C22.2188 10.9102 22.0625 10.5456 21.75 10.2461C21.4505 9.93359 21.0859 9.77734 20.6562 9.77734C20.2005 9.77734 19.8229 9.93359 19.5234 10.2461C19.237 10.5456 19.0938 10.9102 19.0938 11.3398V28C19.0938 28.4167 19.237 28.7812 19.5234 29.0938C19.8229 29.3932 20.2005 29.543 20.6562 29.543ZM25.3828 21.2227C25.7865 20.6758 26.2552 20.181 26.7891 19.7383C27.3229 19.2956 27.8958 18.918 28.5078 18.6055V5.8125C28.5078 5.38281 28.3581 5.01172 28.0586 4.69922C27.7591 4.38672 27.388 4.23047 26.9453 4.23047C26.4896 4.23047 26.112 4.38672 25.8125 4.69922C25.526 5.01172 25.3828 5.38281 25.3828 5.8125V21.2227ZM31.6719 17.6289C32.1927 17.5638 32.7135 17.5378 33.2344 17.5508C33.7552 17.5508 34.276 17.5898 34.7969 17.668V15.0117C34.7969 14.582 34.6406 14.2109 34.3281 13.8984C34.0286 13.5859 33.6641 13.4297 33.2344 13.4297C32.7786 13.4297 32.401 13.5859 32.1016 13.8984C31.8151 14.2109 31.6719 14.582 31.6719 15.0117V17.6289ZM33.0195 34.9727C34.3997 34.9727 35.6562 34.6276 36.7891 33.9375C37.9349 33.2604 38.8464 32.3555 39.5234 31.2227C40.2005 30.0898 40.5391 28.8333 40.5391 27.4531C40.5391 26.0859 40.2005 24.8359 39.5234 23.7031C38.8464 22.5703 37.9349 21.6654 36.7891 20.9883C35.6562 20.3112 34.3997 19.9727 33.0195 19.9727C31.6523 19.9727 30.4023 20.3112 29.2695 20.9883C28.1367 21.6654 27.2318 22.5768 26.5547 23.7227C25.8776 24.8555 25.5391 26.099 25.5391 27.4531C25.5391 28.8203 25.8776 30.0768 26.5547 31.2227C27.2318 32.3555 28.1367 33.2604 29.2695 33.9375C30.4023 34.6276 31.6523 34.9727 33.0195 34.9727ZM33.0391 32.3359C32.1406 32.3359 31.3203 32.1211 30.5781 31.6914C29.849 31.2487 29.2565 30.6562 28.8008 29.9141C28.3581 29.1719 28.1367 28.3516 28.1367 27.4531C28.1367 26.5677 28.3581 25.7604 28.8008 25.0312C29.2565 24.2891 29.849 23.6966 30.5781 23.2539C31.3203 22.8112 32.1406 22.5898 33.0391 22.5898C33.9375 22.5898 34.7513 22.8112 35.4805 23.2539C36.2227 23.6836 36.8086 24.2695 37.2383 25.0117C37.681 25.7409 37.9023 26.5547 37.9023 27.4531C37.9023 28.3516 37.681 29.1719 37.2383 29.9141C36.8086 30.6562 36.2227 31.2487 35.4805 31.6914C34.7513 32.1211 33.9375 32.3359 33.0391 32.3359ZM42.6484 38.8203C43.1042 38.8203 43.4818 38.6641 43.7812 38.3516C44.0938 38.0391 44.25 37.6419 44.25 37.1602C44.25 36.9518 44.1979 36.7435 44.0938 36.5352C44.0026 36.3268 43.8789 36.1445 43.7227 35.9883L38.2148 30.4609L35.7734 32.707L41.3203 38.2344C41.7109 38.625 42.1536 38.8203 42.6484 38.8203Z" fill="currentColor"/>
</svg>
