<svg width="15" height="13" viewBox="0 0 15 13" fill="none" xmlns="http://www.w3.org/2000/svg">
<path d="M10.0088 12.2168C10.3415 12.2168 10.6445 12.1348 10.918 11.9707C11.1914 11.8112 11.4102 11.5924 11.5742 11.3145C11.7383 11.041 11.8203 10.738 11.8203 10.4053C11.8203 10.0726 11.7383 9.76953 11.5742 9.49609C11.4102 9.22266 11.1914 9.00618 10.918 8.84668C10.6445 8.68262 10.3415 8.60059 10.0088 8.60059C9.67611 8.60059 9.37077 8.68262 9.09277 8.84668C8.81934 9.00618 8.60059 9.22266 8.43652 9.49609C8.27702 9.76953 8.19727 10.0726 8.19727 10.4053C8.19727 10.738 8.27702 11.041 8.43652 11.3145C8.60059 11.5924 8.81934 11.8112 9.09277 11.9707C9.37077 12.1348 9.67611 12.2168 10.0088 12.2168ZM10.0088 11.2461C9.77637 11.2461 9.57812 11.1641 9.41406 11C9.25 10.8359 9.16797 10.6377 9.16797 10.4053C9.16797 10.1683 9.25 9.97005 9.41406 9.81055C9.57812 9.64648 9.77637 9.56445 10.0088 9.56445C10.2458 9.56445 10.444 9.64648 10.6035 9.81055C10.7676 9.97005 10.8496 10.1683 10.8496 10.4053C10.8496 10.6377 10.7676 10.8359 10.6035 11C10.444 11.1641 10.2458 11.2461 10.0088 11.2461ZM8.8125 9.66699H1.34766C1.14714 9.66699 0.976237 9.73991 0.834961 9.88574C0.693685 10.0316 0.623047 10.2048 0.623047 10.4053C0.623047 10.6012 0.693685 10.7744 0.834961 10.9248C0.976237 11.0706 1.14714 11.1436 1.34766 11.1436H8.8125V9.66699ZM13.666 9.66699H11.2461V11.1436H13.666C13.862 11.1436 14.0283 11.0706 14.165 10.9248C14.3018 10.779 14.3701 10.6058 14.3701 10.4053C14.3701 10.2002 14.3018 10.027 14.165 9.88574C14.0283 9.73991 13.862 9.66699 13.666 9.66699ZM5.06641 8.08789C5.39453 8.08789 5.69531 8.00814 5.96875 7.84863C6.24674 7.68457 6.46777 7.46582 6.63184 7.19238C6.7959 6.91439 6.87793 6.60905 6.87793 6.27637C6.87793 5.94824 6.7959 5.64746 6.63184 5.37402C6.46777 5.09603 6.24902 4.87728 5.97559 4.71777C5.70215 4.55371 5.39909 4.47168 5.06641 4.47168C4.73372 4.47168 4.43066 4.55371 4.15723 4.71777C3.88379 4.87728 3.66504 5.09603 3.50098 5.37402C3.33691 5.64746 3.25488 5.94824 3.25488 6.27637C3.25488 6.60905 3.33691 6.91439 3.50098 7.19238C3.66504 7.46582 3.88379 7.68457 4.15723 7.84863C4.43066 8.00814 4.73372 8.08789 5.06641 8.08789ZM5.06641 7.11719C4.83398 7.11719 4.63574 7.03516 4.47168 6.87109C4.30762 6.70703 4.22559 6.50879 4.22559 6.27637C4.22559 6.03939 4.30762 5.84115 4.47168 5.68164C4.63574 5.51758 4.83398 5.43555 5.06641 5.43555C5.30794 5.43555 5.50846 5.51758 5.66797 5.68164C5.82747 5.84115 5.90723 6.03939 5.90723 6.27637C5.90723 6.50879 5.82747 6.70703 5.66797 6.87109C5.50846 7.03516 5.30794 7.11719 5.06641 7.11719ZM1.33398 5.53809C1.13802 5.53809 0.969401 5.611 0.828125 5.75684C0.691406 5.90267 0.623047 6.07585 0.623047 6.27637C0.623047 6.47233 0.691406 6.64551 0.828125 6.7959C0.969401 6.94173 1.13802 7.01465 1.33398 7.01465H3.86328V5.53809H1.33398ZM13.6523 5.53809H6.22852V7.01465H13.6523C13.8529 7.01465 14.0215 6.94173 14.1582 6.7959C14.2995 6.65007 14.3701 6.47689 14.3701 6.27637C14.3701 6.07129 14.2995 5.89811 14.1582 5.75684C14.0215 5.611 13.8529 5.53809 13.6523 5.53809ZM10.0088 3.95898C10.3415 3.95898 10.6445 3.87695 10.918 3.71289C11.1914 3.54883 11.4102 3.33008 11.5742 3.05664C11.7383 2.7832 11.8203 2.48014 11.8203 2.14746C11.8203 1.81478 11.7383 1.51172 11.5742 1.23828C11.4102 0.964844 11.1914 0.746094 10.918 0.582031C10.6445 0.417969 10.3415 0.335938 10.0088 0.335938C9.67611 0.335938 9.37077 0.417969 9.09277 0.582031C8.81934 0.746094 8.60059 0.964844 8.43652 1.23828C8.27702 1.51172 8.19727 1.81478 8.19727 2.14746C8.19727 2.48014 8.27702 2.7832 8.43652 3.05664C8.60059 3.33008 8.81934 3.54883 9.09277 3.71289C9.37077 3.87695 9.67611 3.95898 10.0088 3.95898ZM10.0088 2.98828C9.77637 2.98828 9.57812 2.90625 9.41406 2.74219C9.25 2.57812 9.16797 2.37988 9.16797 2.14746C9.16797 1.90592 9.25 1.7054 9.41406 1.5459C9.57812 1.38639 9.77637 1.30664 10.0088 1.30664C10.2458 1.30664 10.444 1.38639 10.6035 1.5459C10.7676 1.7054 10.8496 1.90592 10.8496 2.14746C10.8496 2.37988 10.7676 2.57812 10.6035 2.74219C10.444 2.90625 10.2458 2.98828 10.0088 2.98828ZM8.83301 1.40918H1.34766C1.14714 1.40918 0.976237 1.4821 0.834961 1.62793C0.693685 1.77376 0.623047 1.94694 0.623047 2.14746C0.623047 2.34342 0.693685 2.5166 0.834961 2.66699C0.976237 2.81283 1.14714 2.88574 1.34766 2.88574H8.83301V1.40918ZM13.666 1.40918H11.1914V2.88574H13.666C13.862 2.88574 14.0283 2.81283 14.165 2.66699C14.3018 2.52116 14.3701 2.34798 14.3701 2.14746C14.3701 1.94238 14.3018 1.76921 14.165 1.62793C14.0283 1.4821 13.862 1.40918 13.666 1.40918Z" fill="currentColor"/>
</svg>
