<svg width="18" height="23" viewBox="0 0 18 23" fill="none" xmlns="http://www.w3.org/2000/svg">
<path d="M3.43945 22.1641H14.0938C15.1094 22.1641 15.8776 21.9036 16.3984 21.3828C16.9193 20.862 17.1797 20.1035 17.1797 19.1074V10.0645C17.1797 9.06185 16.9193 8.30339 16.3984 7.78906C15.8776 7.26823 15.1094 7.00781 14.0938 7.00781H11.623V8.96094H13.9473C14.3574 8.96094 14.6732 9.06836 14.8945 9.2832C15.1159 9.49154 15.2266 9.8138 15.2266 10.25V18.9121C15.2266 19.3418 15.1159 19.6641 14.8945 19.8789C14.6732 20.0938 14.3574 20.2012 13.9473 20.2012H3.58594C3.17578 20.2012 2.86003 20.0938 2.63867 19.8789C2.42383 19.6641 2.31641 19.3418 2.31641 18.9121V10.25C2.31641 9.8138 2.42383 9.49154 2.63867 9.2832C2.86003 9.06836 3.17578 8.96094 3.58594 8.96094H5.93945V7.00781H3.43945C2.43034 7.00781 1.66211 7.26497 1.13477 7.7793C0.613932 8.29362 0.353516 9.05534 0.353516 10.0645V19.1074C0.353516 20.1035 0.613932 20.862 1.13477 21.3828C1.66211 21.9036 2.43034 22.1641 3.43945 22.1641ZM8.77148 14.7422C9.01888 14.7422 9.23047 14.6543 9.40625 14.4785C9.58854 14.2962 9.67969 14.0879 9.67969 13.8535V4.61523L9.60156 3.24805L10.1484 3.94141L11.3984 5.26953C11.5612 5.44531 11.763 5.5332 12.0039 5.5332C12.2253 5.5332 12.4141 5.46159 12.5703 5.31836C12.7266 5.16862 12.8047 4.98307 12.8047 4.76172C12.8047 4.54688 12.7233 4.35482 12.5605 4.18555L9.46484 1.20703C9.34766 1.08984 9.23047 1.00846 9.11328 0.962891C9.0026 0.917318 8.88867 0.894531 8.77148 0.894531C8.64779 0.894531 8.52734 0.917318 8.41016 0.962891C8.29948 1.00846 8.18555 1.08984 8.06836 1.20703L4.98242 4.18555C4.81315 4.35482 4.72852 4.54688 4.72852 4.76172C4.72852 4.98307 4.80664 5.16862 4.96289 5.31836C5.11914 5.46159 5.30469 5.5332 5.51953 5.5332C5.76693 5.5332 5.97201 5.44531 6.13477 5.26953L7.38477 3.94141L7.93164 3.24805L7.85352 4.61523V13.8535C7.85352 14.0879 7.94141 14.2962 8.11719 14.4785C8.29948 14.6543 8.51758 14.7422 8.77148 14.7422Z" fill="currentColor"/>
</svg>
