<svg width="16" height="16" viewBox="0 0 16 16" fill="none" xmlns="http://www.w3.org/2000/svg">
<path d="M9 1.25V1.75C9 2.09375 9.21875 2.375 9.53125 2.46875C11.9688 3.15625 13.75 5.375 13.75 8C13.75 11.1875 11.1562 13.75 8 13.75C4.8125 13.75 2.25 11.1875 2.25 8C2.25 5.375 4 3.15625 6.4375 2.46875C6.75 2.375 7 2.09375 7 1.75V1.25C7 0.75 6.53125 0.375 6.03125 0.5C2.6875 1.375 0.21875 4.4375 0.25 8.0625C0.25 12.3438 3.71875 15.7812 8 15.75C12.2812 15.75 15.75 12.2812 15.75 8C15.75 4.40625 13.25 1.375 9.90625 0.5C9.4375 0.375 9 0.75 9 1.25Z" fill="currentColor"/>
</svg>
