<svg width="19" height="17" viewBox="0 0 19 17" fill="none" xmlns="http://www.w3.org/2000/svg">
<path d="M4.32812 7.83594C4.95312 7.83594 5.52604 7.67969 6.04688 7.36719C6.56771 7.05469 6.98438 6.64062 7.29688 6.125C7.60938 5.60417 7.76562 5.02865 7.76562 4.39844C7.76562 3.76823 7.60938 3.19271 7.29688 2.67188C6.98958 2.15104 6.57552 1.73438 6.05469 1.42188C5.53385 1.10938 4.95833 0.953125 4.32812 0.953125C3.69792 0.953125 3.11979 1.10938 2.59375 1.42188C2.07292 1.73438 1.65625 2.15104 1.34375 2.67188C1.03646 3.19271 0.882812 3.76823 0.882812 4.39844C0.882812 5.02865 1.03646 5.60417 1.34375 6.125C1.65625 6.64062 2.07292 7.05469 2.59375 7.36719C3.11979 7.67969 3.69792 7.83594 4.32812 7.83594ZM3.92188 6.25781C3.73958 6.25781 3.58333 6.17708 3.45312 6.01562L2.63281 5.03125C2.53906 4.92188 2.49219 4.8099 2.49219 4.69531C2.49219 4.5599 2.53906 4.44531 2.63281 4.35156C2.72656 4.25781 2.83854 4.21094 2.96875 4.21094C3.05208 4.21094 3.1224 4.22917 3.17969 4.26562C3.23698 4.29688 3.29427 4.34635 3.35156 4.41406L3.90625 5.05469L5.21875 2.96875C5.32812 2.78646 5.47396 2.69531 5.65625 2.69531C5.78646 2.69531 5.90104 2.73958 6 2.82812C6.10417 2.91667 6.15625 3.02604 6.15625 3.15625C6.15625 3.26562 6.11719 3.3776 6.03906 3.49219L4.38281 5.99219C4.26302 6.16927 4.10938 6.25781 3.92188 6.25781ZM4.32812 16.3516C4.95833 16.3516 5.53385 16.1953 6.05469 15.8828C6.57552 15.5703 6.98958 15.1536 7.29688 14.6328C7.60938 14.112 7.76562 13.5365 7.76562 12.9062C7.76562 12.276 7.60938 11.7031 7.29688 11.1875C6.98958 10.6667 6.57552 10.25 6.05469 9.9375C5.53385 9.625 4.95833 9.46875 4.32812 9.46875C3.69271 9.46875 3.11458 9.625 2.59375 9.9375C2.07292 10.25 1.65625 10.6667 1.34375 11.1875C1.03646 11.7031 0.882812 12.276 0.882812 12.9062C0.882812 13.5365 1.03646 14.112 1.34375 14.6328C1.65625 15.1536 2.07292 15.5703 2.59375 15.8828C3.11979 16.1953 3.69792 16.3516 4.32812 16.3516ZM4.32812 14.6406C4.01042 14.6406 3.72135 14.5625 3.46094 14.4062C3.20052 14.25 2.98958 14.0417 2.82812 13.7812C2.67188 13.5156 2.59375 13.224 2.59375 12.9062C2.59375 12.5938 2.67188 12.3073 2.82812 12.0469C2.98958 11.7812 3.20052 11.5703 3.46094 11.4141C3.72135 11.2578 4.01042 11.1797 4.32812 11.1797C4.64062 11.1797 4.92708 11.2578 5.1875 11.4141C5.45312 11.5703 5.66406 11.7812 5.82031 12.0469C5.98177 12.3073 6.0625 12.5938 6.0625 12.9062C6.0625 13.224 5.98177 13.5156 5.82031 13.7812C5.66406 14.0417 5.45312 14.25 5.1875 14.4062C4.92708 14.5625 4.64062 14.6406 4.32812 14.6406ZM10.4609 5.28906H17.9375C18.1823 5.28906 18.3906 5.20312 18.5625 5.03125C18.7344 4.85417 18.8203 4.64323 18.8203 4.39844C18.8203 4.15365 18.7344 3.94531 18.5625 3.77344C18.3906 3.59635 18.1823 3.50781 17.9375 3.50781H10.4609C10.2109 3.50781 10 3.59635 9.82812 3.77344C9.66146 3.94531 9.57812 4.15365 9.57812 4.39844C9.57812 4.64323 9.66146 4.85417 9.82812 5.03125C10 5.20312 10.2109 5.28906 10.4609 5.28906ZM10.4609 13.8438H17.9375C18.1823 13.8438 18.3906 13.7578 18.5625 13.5859C18.7344 13.4141 18.8203 13.2057 18.8203 12.9609C18.8203 12.7109 18.7344 12.5 18.5625 12.3281C18.3906 12.1562 18.1823 12.0703 17.9375 12.0703H10.4609C10.2109 12.0703 10 12.1562 9.82812 12.3281C9.66146 12.5 9.57812 12.7109 9.57812 12.9609C9.57812 13.2057 9.66146 13.4141 9.82812 13.5859C10 13.7578 10.2109 13.8438 10.4609 13.8438Z" fill="currentColor"/>
</svg>
