<svg width="10" height="10" viewBox="0 0 10 10" fill="currentColor" xmlns="http://www.w3.org/2000/svg">
<path d="M0.961914 9.61719C1.10319 9.75846 1.26953 9.85189 1.46094 9.89746C1.65234 9.94303 1.84147 9.94303 2.02832 9.89746C2.21517 9.85189 2.37467 9.76302 2.50684 9.63086L5.24121 6.89648L7.96191 9.63086C8.17155 9.83138 8.42904 9.93164 8.73438 9.93164C9.03971 9.93164 9.2972 9.82454 9.50684 9.61035C9.72103 9.40072 9.82812 9.14323 9.82812 8.83789C9.82812 8.53255 9.72559 8.27507 9.52051 8.06543L6.7998 5.33789L9.52051 2.61719C9.72559 2.40755 9.82812 2.15007 9.82812 1.84473C9.82812 1.53939 9.72103 1.2819 9.50684 1.07227C9.2972 0.858073 9.03971 0.750977 8.73438 0.750977C8.42904 0.750977 8.17155 0.853516 7.96191 1.05859L5.24121 3.7793L2.50684 1.05176C2.37467 0.919596 2.21517 0.830729 2.02832 0.785156C1.84147 0.739583 1.65234 0.739583 1.46094 0.785156C1.26953 0.830729 1.10319 0.924154 0.961914 1.06543C0.820638 1.20671 0.727214 1.37305 0.681641 1.56445C0.636068 1.75586 0.636068 1.94499 0.681641 2.13184C0.727214 2.31868 0.816081 2.47819 0.948242 2.61035L3.68262 5.33789L0.948242 8.0791C0.816081 8.20671 0.727214 8.36393 0.681641 8.55078C0.636068 8.73763 0.636068 8.92676 0.681641 9.11816C0.727214 9.30957 0.820638 9.47591 0.961914 9.61719Z" fill="currentColor"/>
</svg>
