<svg width="14" height="13" viewBox="0 0 14 13" fill="none" xmlns="http://www.w3.org/2000/svg">
<path d="M1.07812 12.7188C1.16927 12.8164 1.27995 12.8815 1.41016 12.9141C1.54036 12.9466 1.66732 12.9466 1.79102 12.9141C1.91471 12.8815 2.02865 12.8164 2.13281 12.7188L6.9375 7.9043L11.752 12.7188C11.9017 12.862 12.0807 12.9368 12.2891 12.9434C12.4974 12.9434 12.6732 12.8685 12.8164 12.7188C12.9596 12.5755 13.028 12.3997 13.0215 12.1914C13.0215 11.9831 12.9531 11.8073 12.8164 11.6641L7.99219 6.84961L12.8164 2.03516C12.9531 1.89193 13.0215 1.71615 13.0215 1.50781C13.028 1.29948 12.9596 1.1237 12.8164 0.980469C12.6732 0.830729 12.4974 0.755859 12.2891 0.755859C12.0807 0.755859 11.9017 0.830729 11.752 0.980469L6.9375 5.79492L2.13281 0.980469C2.02865 0.882812 1.91471 0.817708 1.79102 0.785156C1.66732 0.752604 1.54036 0.752604 1.41016 0.785156C1.27995 0.817708 1.16927 0.882812 1.07812 0.980469C0.973958 1.07161 0.905599 1.18229 0.873047 1.3125C0.840495 1.44271 0.840495 1.57292 0.873047 1.70312C0.912109 1.82682 0.980469 1.9375 1.07812 2.03516L5.89258 6.84961L1.07812 11.6641C0.980469 11.7552 0.912109 11.8659 0.873047 11.9961C0.840495 12.1263 0.840495 12.2565 0.873047 12.3867C0.905599 12.5169 0.973958 12.6276 1.07812 12.7188Z" fill="currentColor"/>
</svg>
