<svg width="21" height="21" viewBox="0 0 21 21" fill="none" xmlns="http://www.w3.org/2000/svg">
<path d="M10.5 20.0371C11.8346 20.0371 13.0879 19.7832 14.2598 19.2754C15.4316 18.7741 16.4635 18.0775 17.3555 17.1855C18.2474 16.2936 18.944 15.2617 19.4453 14.0898C19.9531 12.918 20.207 11.6647 20.207 10.3301C20.207 9.00195 19.9531 7.75195 19.4453 6.58008C18.944 5.4082 18.2441 4.3763 17.3457 3.48438C16.4538 2.59245 15.4219 1.89258 14.25 1.38477C13.0781 0.876953 11.8249 0.623047 10.4902 0.623047C9.16862 0.623047 7.92188 0.876953 6.75 1.38477C5.57812 1.89258 4.54297 2.59245 3.64453 3.48438C2.7526 4.3763 2.05273 5.4082 1.54492 6.58008C1.04362 7.75195 0.792969 9.00195 0.792969 10.3301C0.792969 11.6647 1.04688 12.918 1.55469 14.0898C2.0625 15.2617 2.76237 16.2936 3.6543 17.1855C4.54622 18.0775 5.57812 18.7741 6.75 19.2754C7.92188 19.7832 9.17188 20.0371 10.5 20.0371ZM10.5 17.7324C9.47786 17.7324 8.51758 17.5404 7.61914 17.1562C6.72721 16.7786 5.94271 16.2513 5.26562 15.5742C4.58854 14.8971 4.05794 14.1126 3.67383 13.2207C3.29622 12.3223 3.10742 11.3587 3.10742 10.3301C3.10742 9.30794 3.29622 8.35091 3.67383 7.45898C4.05794 6.56055 4.58854 5.77279 5.26562 5.0957C5.94271 4.41862 6.72721 3.89128 7.61914 3.51367C8.51107 3.12956 9.4681 2.9375 10.4902 2.9375C11.5254 2.9375 12.4889 3.12956 13.3809 3.51367C14.2793 3.89128 15.0671 4.41862 15.7441 5.0957C16.4212 5.77279 16.9486 6.56055 17.3262 7.45898C17.7103 8.35091 17.9023 9.30794 17.9023 10.3301C17.9023 11.3587 17.7103 12.3223 17.3262 13.2207C16.9486 14.1126 16.4212 14.8971 15.7441 15.5742C15.0671 16.2513 14.2793 16.7786 13.3809 17.1562C12.4889 17.5404 11.5286 17.7324 10.5 17.7324ZM9.52344 14.7344C9.90755 14.7344 10.2103 14.5586 10.4316 14.207L14.4355 8.01562C14.5072 7.91146 14.5658 7.80078 14.6113 7.68359C14.6569 7.56641 14.6797 7.45247 14.6797 7.3418C14.6797 7.08789 14.582 6.87956 14.3867 6.7168C14.1914 6.54753 13.9701 6.46289 13.7227 6.46289C13.3841 6.46289 13.1074 6.64193 12.8926 7L9.49414 12.4492L7.92188 10.4961C7.80469 10.3529 7.68424 10.252 7.56055 10.1934C7.43685 10.1283 7.30013 10.0957 7.15039 10.0957C6.88997 10.0957 6.66862 10.1868 6.48633 10.3691C6.30404 10.5449 6.21289 10.763 6.21289 11.0234C6.21289 11.2578 6.30404 11.4889 6.48633 11.7168L8.57617 14.2266C8.71289 14.3958 8.85612 14.5228 9.00586 14.6074C9.1556 14.6921 9.32812 14.7344 9.52344 14.7344Z" fill="#8096A3"/>
</svg>
