<svg width="48" height="36" viewBox="0 0 48 36" fill="none" xmlns="http://www.w3.org/2000/svg">
    <path d="M6.19727 35.1289H30.8066C30.5723 34.8034 30.3704 34.4453 30.2012 34.0547C30.0449 33.6641 29.9408 33.2474 29.8887 32.8047C29.8757 32.6615 29.8626 32.5052 29.8496 32.3359C29.8366 32.1667 29.8301 31.9974 29.8301 31.8281H6.33398C5.46159 31.8281 4.78451 31.5938 4.30273 31.125C3.83398 30.6562 3.59961 29.9596 3.59961 29.0352V6.98438C3.59961 6.0599 3.83398 5.36328 4.30273 4.89453C4.77148 4.42578 5.44857 4.19141 6.33398 4.19141H38.0332C38.9186 4.19141 39.6022 4.42578 40.084 4.89453C40.5658 5.36328 40.8066 6.0599 40.8066 6.98438V7.57031C41.3796 7.57031 41.9395 7.57031 42.4863 7.57031C43.0332 7.57031 43.5736 7.57682 44.1074 7.58984V6.75C44.1074 4.8099 43.6126 3.34505 42.623 2.35547C41.6335 1.36589 40.1491 0.871094 38.1699 0.871094H6.19727C4.24414 0.871094 2.76628 1.36589 1.76367 2.35547C0.761068 3.33203 0.259766 4.79688 0.259766 6.75V29.2695C0.259766 31.2227 0.761068 32.6875 1.76367 33.6641C2.76628 34.6406 4.24414 35.1289 6.19727 35.1289ZM15.0449 30.3633H29.752C29.752 30.0898 29.752 29.8034 29.752 29.5039C29.752 29.1914 29.752 28.8854 29.752 28.5859H15.0449C14.7845 28.5859 14.5697 28.6706 14.4004 28.8398C14.2311 29.0091 14.1465 29.224 14.1465 29.4844C14.1465 29.7578 14.2311 29.9727 14.4004 30.1289C14.5697 30.2852 14.7845 30.3633 15.0449 30.3633ZM35.5723 35.1289H44.127C45.2598 35.1289 46.1452 34.8229 46.7832 34.2109C47.4212 33.612 47.7402 32.7591 47.7402 31.6523V13.2734C47.7402 12.1667 47.4212 11.3073 46.7832 10.6953C46.1452 10.0833 45.2598 9.77734 44.127 9.77734H35.5723C34.4264 9.77734 33.5345 10.0833 32.8965 10.6953C32.2585 11.3073 31.9395 12.1602 31.9395 13.2539V31.6523C31.9395 32.7591 32.2585 33.612 32.8965 34.2109C33.5345 34.8229 34.4264 35.1289 35.5723 35.1289ZM35.6895 32.5312C35.2988 32.5312 34.9993 32.4271 34.791 32.2188C34.5957 32.0104 34.498 31.7109 34.498 31.3203V13.625C34.498 13.2083 34.5957 12.9023 34.791 12.707C34.9993 12.4987 35.2988 12.3945 35.6895 12.3945H37.3496C37.4147 12.3945 37.4473 12.4271 37.4473 12.4922V12.6484C37.4473 12.974 37.5449 13.2409 37.7402 13.4492C37.9486 13.6445 38.209 13.7422 38.5215 13.7422H41.1582C41.4707 13.7422 41.7246 13.6445 41.9199 13.4492C42.1283 13.2409 42.2324 12.974 42.2324 12.6484V12.4922C42.2324 12.4271 42.265 12.3945 42.3301 12.3945H43.9902C44.3678 12.3945 44.6543 12.4987 44.8496 12.707C45.0579 12.9023 45.1621 13.2083 45.1621 13.625V31.3203C45.1621 31.7109 45.0579 32.0104 44.8496 32.2188C44.6543 32.4271 44.3678 32.5312 43.9902 32.5312H35.6895ZM37.3105 31.5742H42.3301C42.7728 31.5742 42.9941 31.3594 42.9941 30.9297C42.9941 30.7344 42.929 30.5781 42.7988 30.4609C42.6686 30.3438 42.5124 30.2852 42.3301 30.2852H37.3105C36.8939 30.2852 36.6855 30.5 36.6855 30.9297C36.6855 31.3594 36.8939 31.5742 37.3105 31.5742Z" fill="currentColor" />
</svg>