<svg width="21" height="21" viewBox="0 0 21 21" fill="none" xmlns="http://www.w3.org/2000/svg">
<path d="M10.5 20.0371C11.8346 20.0371 13.0879 19.7832 14.2598 19.2754C15.4316 18.7741 16.4635 18.0775 17.3555 17.1855C18.2474 16.2936 18.944 15.2617 19.4453 14.0898C19.9531 12.918 20.207 11.6647 20.207 10.3301C20.207 9.00195 19.9531 7.75195 19.4453 6.58008C18.944 5.4082 18.2441 4.3763 17.3457 3.48438C16.4538 2.59245 15.4219 1.89258 14.25 1.38477C13.0781 0.876953 11.8249 0.623047 10.4902 0.623047C9.16862 0.623047 7.92188 0.876953 6.75 1.38477C5.57812 1.89258 4.54297 2.59245 3.64453 3.48438C2.7526 4.3763 2.05273 5.4082 1.54492 6.58008C1.04362 7.75195 0.792969 9.00195 0.792969 10.3301C0.792969 11.6647 1.04688 12.918 1.55469 14.0898C2.0625 15.2617 2.76237 16.2936 3.6543 17.1855C4.54622 18.0775 5.57812 18.7741 6.75 19.2754C7.92188 19.7832 9.17188 20.0371 10.5 20.0371ZM10.5 17.7324C9.47786 17.7324 8.51758 17.5404 7.61914 17.1562C6.72721 16.7786 5.94271 16.2513 5.26562 15.5742C4.58854 14.8971 4.05794 14.1126 3.67383 13.2207C3.29622 12.3223 3.10742 11.3587 3.10742 10.3301C3.10742 9.30794 3.29622 8.35091 3.67383 7.45898C4.05794 6.56055 4.58854 5.77279 5.26562 5.0957C5.94271 4.41862 6.72721 3.89128 7.61914 3.51367C8.51107 3.12956 9.4681 2.9375 10.4902 2.9375C11.5254 2.9375 12.4889 3.12956 13.3809 3.51367C14.2793 3.89128 15.0671 4.41862 15.7441 5.0957C16.4212 5.77279 16.9486 6.56055 17.3262 7.45898C17.7103 8.35091 17.9023 9.30794 17.9023 10.3301C17.9023 11.3587 17.7103 12.3223 17.3262 13.2207C16.9486 14.1126 16.4212 14.8971 15.7441 15.5742C15.0671 16.2513 14.2793 16.7786 13.3809 17.1562C12.4889 17.5404 11.5286 17.7324 10.5 17.7324ZM9.5918 13.2207C10.2949 13.2207 10.9362 13.0482 11.5156 12.7031C12.1016 12.3581 12.5671 11.8958 12.9121 11.3164C13.2572 10.7305 13.4297 10.0859 13.4297 9.38281C13.4297 8.67969 13.2572 8.03841 12.9121 7.45898C12.5671 6.87305 12.1016 6.40755 11.5156 6.0625C10.9362 5.71094 10.2949 5.53516 9.5918 5.53516C8.88867 5.53516 8.24414 5.71094 7.6582 6.0625C7.07878 6.40755 6.61328 6.87305 6.26172 7.45898C5.91667 8.03841 5.74414 8.67969 5.74414 9.38281C5.74414 10.0859 5.91667 10.7305 6.26172 11.3164C6.61328 11.8958 7.07878 12.3581 7.6582 12.7031C8.24414 13.0482 8.88867 13.2207 9.5918 13.2207ZM9.5918 11.707C9.16211 11.707 8.77148 11.6029 8.41992 11.3945C8.06836 11.1862 7.78516 10.9062 7.57031 10.5547C7.36198 10.1966 7.25781 9.80599 7.25781 9.38281C7.25781 8.95312 7.36198 8.5625 7.57031 8.21094C7.78516 7.85938 8.06836 7.57943 8.41992 7.37109C8.77148 7.16276 9.16211 7.05859 9.5918 7.05859C10.0215 7.05859 10.4121 7.16276 10.7637 7.37109C11.1152 7.57292 11.3952 7.84961 11.6035 8.20117C11.8118 8.55273 11.916 8.94661 11.916 9.38281C11.916 9.80599 11.8118 10.1966 11.6035 10.5547C11.3952 10.9062 11.1152 11.1862 10.7637 11.3945C10.4121 11.6029 10.0215 11.707 9.5918 11.707ZM14.2598 15.0957C14.5397 15.0957 14.7708 15.0013 14.9531 14.8125C15.1354 14.6237 15.2266 14.3861 15.2266 14.0996C15.2266 13.9694 15.2005 13.8457 15.1484 13.7285C15.1029 13.6048 15.0312 13.4941 14.9336 13.3965L12.3066 10.7598L10.8613 12.1367L13.498 14.7734C13.7064 14.9883 13.9603 15.0957 14.2598 15.0957Z" fill="#8892E7"/>
</svg>
