<svg width="66" height="42" viewBox="0 0 66 42" fill="none" xmlns="http://www.w3.org/2000/svg">
    <path d="M12.5402 34.5586C11.9282 34.9232 11.2446 35.1055 10.4894 35.1055C9.74721 35.1055 9.07013 34.9232 8.45815 34.5586C7.84617 34.194 7.35789 33.7122 6.9933 33.1133C6.62872 32.5013 6.44643 31.8177 6.44643 31.0625C6.44643 30.3073 6.62872 29.6237 6.9933 29.0117C7.35789 28.3997 7.84617 27.9115 8.45815 27.5469C9.07013 27.1823 9.74721 27 10.4894 27C11.2446 27 11.9282 27.1823 12.5402 27.5469C13.1522 27.9115 13.6404 28.3997 14.005 29.0117C14.3696 29.6237 14.5519 30.3073 14.5519 31.0625C14.5519 31.8177 14.3696 32.5013 14.005 33.1133C13.6404 33.7122 13.1522 34.194 12.5402 34.5586Z" fill="currentColor" />
    <path d="M2.33719 42H18.6564L17.4816 40.2617C16.9738 39.5195 16.4009 38.9076 15.7628 38.4258C15.1378 37.944 14.4022 37.5859 13.5558 37.3516C12.7094 37.1172 11.6873 37 10.4894 37C9.3045 37 8.28888 37.1172 7.44252 37.3516C6.59617 37.5859 5.85398 37.944 5.21596 38.4258C4.59096 38.9076 4.02455 39.5195 3.51674 40.2617L2.33719 42Z" fill="currentColor" />
    <path d="M40.0235 42L38.8488 40.2617C38.341 39.5195 37.768 38.9076 37.13 38.4258C36.505 37.944 35.7693 37.5859 34.923 37.3516C34.0766 37.1172 33.0545 37 31.8566 37C30.6717 37 29.6561 37.1172 28.8097 37.3516C27.9634 37.5859 27.2212 37.944 26.5831 38.4258C25.9581 38.9076 25.3917 39.5195 24.8839 40.2617L23.7044 42H40.0235Z" fill="currentColor" />
    <path d="M33.9074 34.5586C33.2954 34.9232 32.6118 35.1055 31.8566 35.1055C31.1144 35.1055 30.4373 34.9232 29.8253 34.5586C29.2134 34.194 28.7251 33.7122 28.3605 33.1133C27.9959 32.5013 27.8136 31.8177 27.8136 31.0625C27.8136 30.3073 27.9959 29.6237 28.3605 29.0117C28.7251 28.3997 29.2134 27.9115 29.8253 27.5469C30.4373 27.1823 31.1144 27 31.8566 27C32.6118 27 33.2954 27.1823 33.9074 27.5469C34.5193 27.9115 35.0076 28.3997 35.3722 29.0117C35.7368 29.6237 35.9191 30.3073 35.9191 31.0625C35.9191 31.8177 35.7368 32.5013 35.3722 33.1133C35.0076 33.7122 34.5193 34.194 33.9074 34.5586Z" fill="currentColor" />
    <path d="M52.4897 8.10547C53.245 8.10547 53.9285 7.92318 54.5405 7.55859C55.1525 7.19401 55.6408 6.71224 56.0054 6.11328C56.37 5.5013 56.5522 4.81771 56.5522 4.0625C56.5522 3.30729 56.37 2.6237 56.0054 2.01172C55.6408 1.39974 55.1525 0.911458 54.5405 0.546875C53.9285 0.182292 53.245 0 52.4897 0C51.7476 0 51.0705 0.182292 50.4585 0.546875C49.8465 0.911458 49.3582 1.39974 48.9937 2.01172C48.6291 2.6237 48.4468 3.30729 48.4468 4.0625C48.4468 4.81771 48.6291 5.5013 48.9937 6.11328C49.3582 6.71224 49.8465 7.19401 50.4585 7.55859C51.0705 7.92318 51.7476 8.10547 52.4897 8.10547Z" fill="currentColor" />
    <path d="M52.4897 26.1133C52.8674 26.1133 53.1473 26.2565 53.3296 26.543C53.5249 26.8164 53.7332 27.2852 53.9546 27.9492C54.0718 28.3398 54.2345 28.9193 54.4429 29.6875C54.6642 30.4557 54.8986 31.3281 55.146 32.3047C55.3934 33.2812 55.6408 34.2643 55.8882 35.2539C56.1486 36.2435 56.383 37.1484 56.5913 37.9688C56.7996 38.7891 56.9624 39.4336 57.0796 39.9023C57.3921 40.9961 57.9976 41.543 58.896 41.543C59.508 41.543 59.9702 41.3151 60.2827 40.8594C60.6082 40.4036 60.6929 39.8763 60.5366 39.2773C60.5106 39.1992 60.4194 38.8542 60.2632 38.2422C60.1069 37.6302 59.9181 36.8555 59.6968 35.918C59.4884 34.9805 59.2541 33.9779 58.9937 32.9102C58.7463 31.8294 58.5054 30.7747 58.271 29.7461C58.0496 28.7174 57.8478 27.7995 57.6655 26.9922C57.4963 26.1719 57.3791 25.5729 57.314 25.1953C57.2358 24.6875 57.1707 24.082 57.1187 23.3789C57.0666 22.6628 57.0275 21.9206 57.0015 21.1523C56.9754 20.3841 56.9559 19.6549 56.9429 18.9648C56.9299 18.2617 56.9233 17.6628 56.9233 17.168C56.9233 17.0247 56.9819 16.9336 57.0991 16.8945C57.2163 16.8424 57.3205 16.8815 57.4116 17.0117C57.7632 17.5065 58.1668 18.0729 58.6226 18.7109C59.0783 19.3359 59.5275 19.9674 59.9702 20.6055C60.4129 21.2305 60.8035 21.7773 61.1421 22.2461C61.4806 22.7018 61.7085 23.0013 61.8257 23.1445C62.1121 23.4701 62.4572 23.6654 62.8608 23.7305C63.2775 23.7826 63.6746 23.6979 64.0522 23.4766C64.534 23.2292 64.8335 22.8841 64.9507 22.4414C65.0679 21.9857 65.0288 21.5755 64.8335 21.2109C64.7554 21.0677 64.6707 20.931 64.5796 20.8008C64.4884 20.6576 64.3908 20.5143 64.2866 20.3711L59.4819 13.2617C58.9741 12.5195 58.4012 11.9076 57.7632 11.4258C57.1382 10.944 56.4025 10.5859 55.5562 10.3516C54.7098 10.1172 53.6877 10 52.4897 10H49.0913H39.6325C38.7209 10 37.982 10.7389 37.982 11.6505C37.982 12.5465 38.697 13.2789 39.5928 13.3005L47.8804 13.5C48.0106 13.5391 48.0757 13.6302 48.0757 13.7734C48.0757 14.2682 48.0692 18.2617 48.0562 18.9648C48.0431 19.668 48.0171 20.4036 47.978 21.1719C47.952 21.9271 47.9129 22.6628 47.8608 23.3789C47.8218 24.082 47.7632 24.6875 47.6851 25.1953C47.6069 25.5729 47.4832 26.1719 47.314 26.9922C47.1447 27.7995 46.9429 28.7174 46.7085 29.7461C46.4741 30.7747 46.2332 31.8294 45.9858 32.9102C45.7384 33.9779 45.5041 34.9805 45.2827 35.918C45.0614 36.8555 44.8726 37.6302 44.7163 38.2422C44.5731 38.8542 44.4884 39.1992 44.4624 39.2773C44.2931 39.8763 44.3713 40.4036 44.6968 40.8594C45.0223 41.3151 45.4845 41.543 46.0835 41.543C46.9819 41.543 47.5874 40.9961 47.8999 39.9023C48.0301 39.4336 48.1994 38.7891 48.4077 37.9688C48.616 37.1484 48.8439 36.2435 49.0913 35.2539C49.3387 34.2643 49.5861 33.2812 49.8335 32.3047C50.0809 31.3281 50.3088 30.4557 50.5171 29.6875C50.7384 28.9193 50.9142 28.3398 51.0444 27.9492C51.2528 27.2852 51.4546 26.8164 51.6499 26.543C51.8452 26.2565 52.1252 26.1133 52.4897 26.1133Z" fill="currentColor" />
    <path d="M6.74503 34.2565C4.87258 34.2283 3.45644 33.7438 2.49662 32.803L2.48633 32.793C1.48372 31.8164 0.982422 30.3516 0.982422 28.3984V5.87891C0.982422 3.92578 1.48372 2.46094 2.48633 1.48438C3.48893 0.494792 4.9668 0 6.91992 0H38.8926C40.8521 0 42.3265 0.484998 43.316 1.455L43.3262 1.46485C44.3288 2.44141 44.8301 3.90625 44.8301 5.85938V9H41.4902V6.09375C41.4902 5.1789 41.2607 4.48719 40.8017 4.01863C40.3202 3.55307 39.6383 3.32031 38.7559 3.32031H7.05664C6.17122 3.32031 5.49414 3.55469 5.02539 4.02344C4.55664 4.49219 4.32227 5.1888 4.32227 6.11328V28.1641C4.32227 29.0618 4.54327 29.7446 4.98528 30.2126C5.01545 31.2524 5.28437 32.1984 5.79206 33.0506C6.06343 33.4964 6.38108 33.8984 6.74503 34.2565Z" fill="currentColor" />
    <path d="M41.4902 14.3491L41.4902 28.1445C41.4902 29.069 41.2559 29.7656 40.7871 30.2344C40.3184 30.7031 39.6413 30.9375 38.7559 30.9375H37.9177C37.8082 31.6964 37.5599 32.4008 37.1728 33.0506C36.9011 33.497 36.583 33.8994 36.2185 34.2578H38.8926C40.8457 34.2578 42.3236 33.763 43.3262 32.7734C44.3288 31.7969 44.8301 30.332 44.8301 28.3789L44.8301 14.4327L41.4902 14.3491Z" fill="currentColor" />
    <path d="M26.7921 33.0506C27.0638 33.497 27.3819 33.8994 27.7464 34.2578L15.2185 34.2578C15.583 33.8994 15.9011 33.497 16.1728 33.0506C16.5599 32.4008 16.8082 31.6964 16.9177 30.9375H26.0472C26.1566 31.6964 26.4049 32.4008 26.7921 33.0506Z" fill="currentColor" />
</svg>