<svg width="16" height="19" viewBox="0 0 16 19" fill="none" xmlns="http://www.w3.org/2000/svg">
<path d="M4.34375 18.0391H11.1797C11.8411 18.0391 12.362 17.8646 12.7422 17.5156C13.1224 17.1719 13.3281 16.6667 13.3594 16L13.8359 5.60938H14.4766C14.737 5.60938 14.9531 5.52604 15.125 5.35938C15.3021 5.19271 15.3906 4.97656 15.3906 4.71094C15.3906 4.45573 15.3021 4.2474 15.125 4.08594C14.9531 3.91927 14.737 3.83594 14.4766 3.83594H1.04688C0.786458 3.83594 0.567708 3.91927 0.390625 4.08594C0.21875 4.2474 0.132812 4.45573 0.132812 4.71094C0.132812 4.97656 0.21875 5.19271 0.390625 5.35938C0.567708 5.52604 0.786458 5.60938 1.04688 5.60938H1.67969L2.15625 16C2.1875 16.6667 2.39323 17.1719 2.77344 17.5156C3.15365 17.8646 3.67708 18.0391 4.34375 18.0391ZM4.60156 16.2266C4.41406 16.2266 4.26562 16.1641 4.15625 16.0391C4.04688 15.9193 3.98698 15.75 3.97656 15.5312L3.51562 5.60938H11.9922L11.5391 15.5312C11.5286 15.75 11.4688 15.9193 11.3594 16.0391C11.25 16.1641 11.099 16.2266 10.9062 16.2266H4.60156ZM5.60938 15.2188C5.80729 15.2188 5.96094 15.1615 6.07031 15.0469C6.1849 14.9323 6.23958 14.7812 6.23438 14.5938L6.01562 7.25781C6.01042 7.07552 5.94792 6.92969 5.82812 6.82031C5.71354 6.70573 5.5599 6.64844 5.36719 6.64844C5.17969 6.64844 5.03125 6.70573 4.92188 6.82031C4.8125 6.9349 4.75781 7.08333 4.75781 7.26562L4.97656 14.6016C4.98177 14.7891 5.04167 14.9401 5.15625 15.0547C5.27604 15.1641 5.42708 15.2188 5.60938 15.2188ZM7.75781 15.2188C7.94531 15.2188 8.09635 15.1641 8.21094 15.0547C8.33073 14.9401 8.39062 14.7917 8.39062 14.6094V7.25781C8.39062 7.07552 8.33073 6.92969 8.21094 6.82031C8.09635 6.70573 7.94531 6.64844 7.75781 6.64844C7.57031 6.64844 7.41667 6.70573 7.29688 6.82031C7.18229 6.92969 7.125 7.07552 7.125 7.25781V14.6094C7.125 14.7917 7.18229 14.9401 7.29688 15.0547C7.41667 15.1641 7.57031 15.2188 7.75781 15.2188ZM9.90625 15.2188C10.0885 15.2188 10.237 15.1641 10.3516 15.0547C10.4714 14.9401 10.5339 14.7891 10.5391 14.6016L10.7578 7.26562C10.763 7.08333 10.7083 6.9349 10.5938 6.82031C10.4844 6.70573 10.3359 6.64844 10.1484 6.64844C9.95573 6.64844 9.79948 6.70573 9.67969 6.82031C9.5599 6.92969 9.5 7.07812 9.5 7.26562L9.28125 14.5938C9.27604 14.7812 9.33073 14.9323 9.44531 15.0469C9.5599 15.1615 9.71354 15.2188 9.90625 15.2188ZM4.10938 4.25H5.96875V2.83594C5.96875 2.69531 6.01302 2.58594 6.10156 2.50781C6.19531 2.42448 6.32292 2.38281 6.48438 2.38281H9.02344C9.1849 2.38281 9.3125 2.42448 9.40625 2.50781C9.5 2.58594 9.54688 2.69531 9.54688 2.83594V4.25H11.4062V2.78125C11.4062 2.14062 11.2135 1.64844 10.8281 1.30469C10.4427 0.960938 9.88802 0.789062 9.16406 0.789062H6.34375C5.625 0.789062 5.07292 0.960938 4.6875 1.30469C4.30208 1.64844 4.10938 2.14062 4.10938 2.78125V4.25Z" fill="currentColor"/>
</svg>
