<svg width="18" height="22" viewBox="0 0 18 22" fill="none" xmlns="http://www.w3.org/2000/svg">
<path d="M2.95312 17.3828H11.5C12.3333 17.3828 12.9688 17.1641 13.4062 16.7266C13.849 16.2891 14.0703 15.6589 14.0703 14.8359V7.69531C14.0703 6.86719 13.849 6.23698 13.4062 5.80469C12.9688 5.36719 12.3333 5.14844 11.5 5.14844H9.57812V6.94531H11.3203C11.6276 6.94531 11.862 7.02344 12.0234 7.17969C12.1849 7.33594 12.2656 7.57552 12.2656 7.89844V14.625C12.2656 14.9479 12.1849 15.1875 12.0234 15.3438C11.862 15.5 11.6276 15.5781 11.3203 15.5781H3.13281C2.82552 15.5781 2.59115 15.5 2.42969 15.3438C2.26823 15.1875 2.1875 14.9479 2.1875 14.625V7.89844C2.1875 7.57552 2.26823 7.33594 2.42969 7.17969C2.59115 7.02344 2.82552 6.94531 3.13281 6.94531H4.90625V5.14844H2.95312C2.11979 5.14844 1.48177 5.36719 1.03906 5.80469C0.601562 6.23698 0.382812 6.86719 0.382812 7.69531V14.8359C0.382812 15.6589 0.601562 16.2891 1.03906 16.7266C1.48177 17.1641 2.11979 17.3828 2.95312 17.3828ZM7.45312 21.1172H15.4141C16.2422 21.1172 16.875 20.8984 17.3125 20.4609C17.7552 20.0234 17.9766 19.3906 17.9766 18.5625V10.9531C17.9766 10.125 17.7552 9.49479 17.3125 9.0625C16.875 8.625 16.2422 8.40625 15.4141 8.40625H13.5547V10.2031H15.2266C15.5339 10.2031 15.7682 10.2812 15.9297 10.4375C16.0911 10.5938 16.1719 10.8359 16.1719 11.1641V18.3594C16.1719 18.6823 16.0911 18.9219 15.9297 19.0781C15.7682 19.2344 15.5339 19.3125 15.2266 19.3125H7.63281C7.32552 19.3125 7.09115 19.2344 6.92969 19.0781C6.76823 18.9219 6.6875 18.6823 6.6875 18.3594V16.6406H4.88281V18.5625C4.88281 19.3906 5.10156 20.0234 5.53906 20.4609C5.98177 20.8984 6.61979 21.1172 7.45312 21.1172ZM7.22656 11.3516C7.45573 11.3516 7.64844 11.2708 7.80469 11.1094C7.96094 10.9479 8.03906 10.7604 8.03906 10.5469V3.29688L7.96875 2.20312L8.375 2.76562L9.29688 3.75781C9.44271 3.91406 9.61979 3.99219 9.82812 3.99219C10.0208 3.99219 10.1875 3.92969 10.3281 3.80469C10.4688 3.67448 10.5391 3.50781 10.5391 3.30469C10.5391 3.1224 10.4661 2.95573 10.3203 2.80469L7.86719 0.4375C7.75781 0.333333 7.65104 0.260417 7.54688 0.21875C7.44271 0.177083 7.33594 0.15625 7.22656 0.15625C7.11719 0.15625 7.00781 0.177083 6.89844 0.21875C6.79427 0.260417 6.6901 0.333333 6.58594 0.4375L4.125 2.80469C3.97917 2.95573 3.90625 3.1224 3.90625 3.30469C3.90625 3.50781 3.97656 3.67448 4.11719 3.80469C4.25781 3.92969 4.42188 3.99219 4.60938 3.99219C4.82812 3.99219 5.00781 3.91406 5.14844 3.75781L6.07812 2.76562L6.47656 2.20312L6.40625 3.29688V10.5469C6.40625 10.7604 6.48438 10.9479 6.64062 11.1094C6.80208 11.2708 6.9974 11.3516 7.22656 11.3516Z" fill="currentColor"/>
</svg>
