<svg width="15" height="17" viewBox="0 0 15 17" fill="none" xmlns="http://www.w3.org/2000/svg">
    <path
        d="M2.46484 16.0742H12.6338C14.1982 16.0742 14.9805 15.5146 14.9805 14.3955C14.9805 13.7686 14.7988 13.1416 14.4355 12.5146C14.0723 11.8818 13.5566 11.3076 12.8887 10.792C12.2266 10.2705 11.4414 9.85449 10.5332 9.54395C9.63086 9.22754 8.6377 9.06934 7.55371 9.06934C6.46973 9.06934 5.47363 9.22754 4.56543 9.54395C3.65723 9.85449 2.86914 10.2705 2.20117 10.792C1.53906 11.3076 1.02637 11.8818 0.663086 12.5146C0.299805 13.1416 0.118164 13.7686 0.118164 14.3955C0.118164 15.5146 0.900391 16.0742 2.46484 16.0742ZM2.50879 14.167C2.43848 14.167 2.38867 14.1494 2.35938 14.1143C2.33008 14.085 2.31543 14.0469 2.31543 14C2.31543 13.7363 2.43262 13.4346 2.66699 13.0947C2.90137 12.749 3.24121 12.415 3.68652 12.0928C4.1377 11.7705 4.68555 11.5039 5.33008 11.293C5.98047 11.082 6.72168 10.9766 7.55371 10.9766C8.37402 10.9766 9.10938 11.082 9.75977 11.293C10.4102 11.5039 10.958 11.7705 11.4033 12.0928C11.8545 12.415 12.1973 12.749 12.4316 13.0947C12.666 13.4346 12.7832 13.7363 12.7832 14C12.7832 14.0469 12.7686 14.085 12.7393 14.1143C12.7158 14.1494 12.666 14.167 12.5898 14.167H2.50879ZM7.55371 8.25195C8.24512 8.25195 8.875 8.07031 9.44336 7.70703C10.0117 7.34375 10.4629 6.85449 10.7969 6.23926C11.1367 5.62402 11.3066 4.94141 11.3066 4.19141C11.3066 3.45898 11.1367 2.79395 10.7969 2.19629C10.4629 1.59277 10.0088 1.1123 9.43457 0.754883C8.86621 0.391602 8.23926 0.209961 7.55371 0.209961C6.8623 0.209961 6.23242 0.391602 5.66406 0.754883C5.0957 1.1123 4.63867 1.5957 4.29297 2.20508C3.95312 2.80859 3.78613 3.47363 3.79199 4.2002C3.79785 4.9502 3.96777 5.63281 4.30176 6.24805C4.63574 6.85742 5.08691 7.34375 5.65527 7.70703C6.22363 8.07031 6.85645 8.25195 7.55371 8.25195ZM7.55371 6.34473C7.22559 6.34473 6.92383 6.25391 6.64844 6.07227C6.37305 5.89062 6.15332 5.63867 5.98926 5.31641C5.8252 4.99414 5.74023 4.61914 5.73438 4.19141C5.73438 3.78711 5.81641 3.42969 5.98047 3.11914C6.15039 2.80859 6.37305 2.56543 6.64844 2.38965C6.92383 2.20801 7.22559 2.11719 7.55371 2.11719C7.88184 2.11719 8.18066 2.20508 8.4502 2.38086C8.72559 2.55664 8.94531 2.80273 9.10938 3.11914C9.2793 3.42969 9.36426 3.78711 9.36426 4.19141C9.36426 4.61914 9.28223 4.99414 9.11816 5.31641C8.9541 5.63867 8.73438 5.89062 8.45898 6.07227C8.18359 6.25391 7.88184 6.34473 7.55371 6.34473Z"
        fill="currentColor" />
</svg>