<svg width="26" height="25" viewBox="0 0 26 25" fill="none" xmlns="http://www.w3.org/2000/svg">
<g clip-path="url(#clip0_310_3876)">
<path d="M2.96877 0H34.9627C36.0503 0 36.9359 0.885646 36.9359 1.97317V23.0268C36.9359 24.1143 36.0503 25 34.9627 25H2.96877C1.88125 25.0065 0.995605 24.1208 0.995605 23.0333V1.97317C0.995605 0.885646 1.88125 0 2.96877 0Z" fill="#B22234"/>
<path d="M1.01302 1.5H36.9403C36.9468 1.56512 36.9533 1.63024 36.9533 1.70188V3.61643H1V1.69536C1 1.63024 1.00651 1.56512 1.01302 1.5ZM36.9468 5.36819V7.47811H1V5.36819H36.9468ZM36.9468 9.23638V11.3463H1V9.23638H36.9468ZM36.9468 13.1046V15.2145H1V13.1046H36.9468ZM36.9468 16.9728V19.0827H1V16.9728H36.9468ZM36.9468 20.8409V22.749C36.9468 22.8141 36.9403 22.8857 36.9338 22.9509H1.01302C1.00651 22.8923 1 22.8206 1 22.7555V20.8475H36.9468V20.8409Z" fill="white"/>
<path d="M14.5408 0V13.467H0.995605V1.97317C0.995605 0.885646 1.88125 0 2.96877 0H14.5408Z" fill="#3C3B6E"/>
<path d="M1.79641 1.86246L2.24575 3.26256L1.06055 2.39645H2.53228L1.34057 3.26256L1.79641 1.86246Z" fill="white"/>
<path d="M1.79641 4.5715L2.24575 5.9716L1.06055 5.1055H2.53228L1.34057 5.9716L1.79641 4.5715Z" fill="white"/>
<path d="M1.79641 7.28055L2.24575 8.68065L1.06055 7.81454H2.53228L1.34057 8.68065L1.79641 7.28055Z" fill="white"/>
<path d="M1.79641 9.98956L2.24575 11.3897L1.06055 10.5236H2.53228L1.34057 11.3897L1.79641 9.98956Z" fill="white"/>
<path d="M3.38553 0.507935L3.84137 1.90804L2.64966 1.04193H4.12791L2.92968 1.90804L3.38553 0.507935Z" fill="white"/>
<path d="M3.38553 3.21698L3.84137 4.61708L2.64966 3.75097H4.12791L2.92968 4.61708L3.38553 3.21698Z" fill="white"/>
<path d="M3.38553 5.92599L3.84137 7.3261L2.64966 6.45999H4.12791L2.92968 7.3261L3.38553 5.92599Z" fill="white"/>
<path d="M3.38553 8.63504L3.84137 10.0351L2.64966 9.16903H4.12791L2.92968 10.0351L3.38553 8.63504Z" fill="white"/>
<path d="M3.38553 11.3441L3.84137 12.7442L2.64966 11.8781H4.12791L2.92968 12.7442L3.38553 11.3441Z" fill="white"/>
<path d="M4.98123 1.86246L5.43708 3.26256L4.24536 2.39645H5.7171L4.52538 3.26256L4.98123 1.86246Z" fill="white"/>
<path d="M4.98123 4.5715L5.43708 5.9716L4.24536 5.1055H5.7171L4.52538 5.9716L4.98123 4.5715Z" fill="white"/>
<path d="M4.98123 7.28055L5.43708 8.68065L4.24536 7.81454H5.7171L4.52538 8.68065L4.98123 7.28055Z" fill="white"/>
<path d="M4.98123 9.98956L5.43708 11.3897L4.24536 10.5236H5.7171L4.52538 11.3897L4.98123 9.98956Z" fill="white"/>
<path d="M6.57644 0.507935L7.02578 1.90804L5.84058 1.04193H7.31231L6.1206 1.90804L6.57644 0.507935Z" fill="white"/>
<path d="M6.57644 3.21698L7.02578 4.61708L5.84058 3.75097H7.31231L6.1206 4.61708L6.57644 3.21698Z" fill="white"/>
<path d="M6.57644 5.92599L7.02578 7.3261L5.84058 6.45999H7.31231L6.1206 7.3261L6.57644 5.92599Z" fill="white"/>
<path d="M6.57644 8.63504L7.02578 10.0351L5.84058 9.16903H7.31231L6.1206 10.0351L6.57644 8.63504Z" fill="white"/>
<path d="M6.57644 11.3441L7.02578 12.7442L5.84058 11.8781H7.31231L6.1206 12.7442L6.57644 11.3441Z" fill="white"/>
<path d="M8.16531 1.86246L8.62116 3.26256L7.42944 2.39645H8.90118L7.70946 3.26256L8.16531 1.86246Z" fill="white"/>
<path d="M8.16531 4.5715L8.62116 5.9716L7.42944 5.1055H8.90118L7.70946 5.9716L8.16531 4.5715Z" fill="white"/>
<path d="M8.16531 7.28055L8.62116 8.68065L7.42944 7.81454H8.90118L7.70946 8.68065L8.16531 7.28055Z" fill="white"/>
<path d="M8.16531 9.98956L8.62116 11.3897L7.42944 10.5236H8.90118L7.70946 11.3897L8.16531 9.98956Z" fill="white"/>
<path d="M9.76077 0.507935L10.2166 1.90804L9.0249 1.04193H10.4966L9.30492 1.90804L9.76077 0.507935Z" fill="white"/>
<path d="M9.76077 3.21698L10.2166 4.61708L9.0249 3.75097H10.4966L9.30492 4.61708L9.76077 3.21698Z" fill="white"/>
<path d="M9.76077 5.92599L10.2166 7.3261L9.0249 6.45999H10.4966L9.30492 7.3261L9.76077 5.92599Z" fill="white"/>
<path d="M9.76077 8.63504L10.2166 10.0351L9.0249 9.16903H10.4966L9.30492 10.0351L9.76077 8.63504Z" fill="white"/>
<path d="M9.76077 11.3441L10.2166 12.7442L9.0249 11.8781H10.4966L9.30492 12.7442L9.76077 11.3441Z" fill="white"/>
<path d="M11.3496 1.86246L11.8055 3.26256L10.6138 2.39645H12.0855L10.9003 3.26256L11.3496 1.86246Z" fill="white"/>
<path d="M11.3496 4.5715L11.8055 5.9716L10.6138 5.1055H12.0855L10.9003 5.9716L11.3496 4.5715Z" fill="white"/>
<path d="M11.3496 7.28055L11.8055 8.68065L10.6138 7.81454H12.0855L10.9003 8.68065L11.3496 7.28055Z" fill="white"/>
<path d="M11.3496 9.98956L11.8055 11.3897L10.6138 10.5236H12.0855L10.9003 11.3897L11.3496 9.98956Z" fill="white"/>
<path d="M12.9451 0.507935L13.4009 1.90804L12.2092 1.04193H13.681L12.4892 1.90804L12.9451 0.507935Z" fill="white"/>
<path d="M12.9451 3.21698L13.4009 4.61708L12.2092 3.75097H13.681L12.4892 4.61708L12.9451 3.21698Z" fill="white"/>
<path d="M12.9451 5.92599L13.4009 7.3261L12.2092 6.45999H13.681L12.4892 7.3261L12.9451 5.92599Z" fill="white"/>
<path d="M12.9451 8.63504L13.4009 10.0351L12.2092 9.16903H13.681L12.4892 10.0351L12.9451 8.63504Z" fill="white"/>
<path d="M12.9451 11.3441L13.4009 12.7442L12.2092 11.8781H13.681L12.4892 12.7442L12.9451 11.3441Z" fill="white"/>
</g>
<defs>
<clipPath id="clip0_310_3876">
<rect x="0.995605" width="25.0045" height="25" rx="12.5" fill="white"/>
</clipPath>
</defs>
</svg>
