<svg width="47" height="48" viewBox="0 0 47 48" fill="none" xmlns="http://www.w3.org/2000/svg">
<path d="M2.5625 29.0742L18.3242 44.8359C19.9779 46.4896 21.6966 47.3164 23.4805 47.3164C25.2773 47.3164 27.0026 46.4961 28.6562 44.8555L44.457 29.0547C46.1107 27.4141 46.931 25.6953 46.918 23.8984C46.918 22.1016 46.0911 20.3763 44.4375 18.7227L28.6562 2.94141C27.0156 1.30078 25.2969 0.480469 23.5 0.480469C21.7031 0.467448 19.9844 1.28776 18.3438 2.94141L2.52344 18.7422C0.882812 20.3958 0.0625 22.1211 0.0625 23.918C0.0625 25.7018 0.895833 27.4206 2.5625 29.0742ZM7.42578 25.3633C6.93099 24.8685 6.67708 24.3867 6.66406 23.918C6.65104 23.4492 6.90495 22.9479 7.42578 22.4141L22.0156 7.82422C22.5495 7.30339 23.0508 7.04948 23.5195 7.0625C23.9883 7.07552 24.4701 7.32943 24.9648 7.82422L39.5742 22.4141C40.056 22.9089 40.3034 23.3971 40.3164 23.8789C40.3424 24.3477 40.0885 24.8424 39.5547 25.3633L24.9648 39.9727C24.431 40.4935 23.9297 40.7474 23.4609 40.7344C22.9922 40.7214 22.5169 40.4674 22.0352 39.9727L7.42578 25.3633Z" fill="#F6A009"/>
</svg>
