<svg id="Layer_1" data-name="Layer 1" xmlns="http://www.w3.org/2000/svg" xmlns:xlink="http://www.w3.org/1999/xlink" viewBox="0 0 695 95.55"><defs><style>.cls-1{fill:#031723;}.cls-2{fill:#0b69af;}.cls-3{fill:#12a3d6;}.cls-4{fill:url(#linear-gradient);}.cls-5{fill:url(#linear-gradient-2);}.cls-6{fill:url(#linear-gradient-3);}.cls-7{fill:url(#linear-gradient-4);}.cls-8{fill:url(#linear-gradient-5);}.cls-9{fill:url(#linear-gradient-6);}.cls-10{fill:url(#linear-gradient-7);}.cls-11{fill:url(#linear-gradient-8);}.cls-12{fill:url(#linear-gradient-9);}</style><linearGradient id="linear-gradient" x1="216.11" y1="40" x2="696.9" y2="40" gradientUnits="userSpaceOnUse"><stop offset="0" stop-color="#0b69af"/><stop offset="1" stop-color="#12a3d6"/></linearGradient><linearGradient id="linear-gradient-2" x1="345.11" y1="500.58" x2="825.9" y2="500.58" xlink:href="#linear-gradient"/><linearGradient id="linear-gradient-3" x1="345.11" y1="500.7" x2="825.9" y2="500.7" xlink:href="#linear-gradient"/><linearGradient id="linear-gradient-4" x1="345.11" y1="499.98" x2="825.9" y2="499.98" xlink:href="#linear-gradient"/><linearGradient id="linear-gradient-5" x1="345.11" y1="492.82" x2="825.9" y2="492.82" xlink:href="#linear-gradient"/><linearGradient id="linear-gradient-6" x1="216.11" y1="11.5" x2="696.9" y2="11.5" xlink:href="#linear-gradient"/><linearGradient id="linear-gradient-7" x1="216.11" y1="47.5" x2="696.9" y2="47.5" xlink:href="#linear-gradient"/><linearGradient id="linear-gradient-8" x1="345.11" y1="511.89" x2="825.9" y2="511.89" xlink:href="#linear-gradient"/><linearGradient id="linear-gradient-9" x1="345.11" y1="500.11" x2="825.9" y2="500.11" xlink:href="#linear-gradient"/></defs><rect class="cls-1" y="58" width="68" height="14"/><rect class="cls-2" x="20" y="29" width="53" height="14"/><rect class="cls-3" x="39" width="39" height="14"/><path d="M280.08,491H257v9h10a21,21,0,0,1-3.33,8.75,14.13,14.13,0,0,1-5.73,4.82,17.38,17.38,0,0,1-7.59,1.44,18.54,18.54,0,0,1-10.26-2.84,16.67,16.67,0,0,1-6.14-7.69,30.59,30.59,0,0,1-2-11.7A31.29,31.29,0,0,1,234,481a16.64,16.64,0,0,1,6.14-7.79,17.56,17.56,0,0,1,10.26-2.65,15.34,15.34,0,0,1,10.2,3.44,19,19,0,0,1,5.73,9.07l12.51-1.8q-2.43-10.62-9.58-16.43T249.57,459a30.59,30.59,0,0,0-15.41,4,28.79,28.79,0,0,0-11.07,11.49Q219,482,219,492.78a39.75,39.75,0,0,0,2.46,14.53,30.41,30.41,0,0,0,6.7,10.58,28.3,28.3,0,0,0,9.79,6.45,33.41,33.41,0,0,0,27.9-1.89,27.83,27.83,0,0,0,10.66-11.27,35,35,0,0,0,3.78-16.51c0-.15,0-.72,0-1.71A14.84,14.84,0,0,0,280.08,491Z" transform="translate(-129 -453)"/><path d="M324,478.51a26.82,26.82,0,0,0-25.63,0,22.93,22.93,0,0,0-8.69,9,30.08,30.08,0,0,0-.06,26.68,22.72,22.72,0,0,0,8.61,9.07,26.85,26.85,0,0,0,25.72,0,22.91,22.91,0,0,0,8.69-9,30.08,30.08,0,0,0,0-26.64A22.91,22.91,0,0,0,324,478.51Zm-4.1,32.6q-2.9,4-8.8,4-5.72,0-8.66-3.85t-3-10.37a20.62,20.62,0,0,1,1.24-7.43,10.61,10.61,0,0,1,3.8-5,11.18,11.18,0,0,1,6.57-1.8q5.81,0,8.76,3.87t2.94,10.35A16.88,16.88,0,0,1,319.93,511.11Z" transform="translate(-129 -453)"/><polygon class="cls-4" points="230 8 218 8 218 72 258 72 258 61 230 61 230 8"/><path class="cls-5" d="M429.26,478.53a22.79,22.79,0,0,0-13-3.6,24.63,24.63,0,0,0-12.73,3.26,23,23,0,0,0-8.69,9.16,29,29,0,0,0-3.15,13.86,25.64,25.64,0,0,0,3.22,12.94,23.13,23.13,0,0,0,8.91,8.86A26.22,26.22,0,0,0,417,526.23a24,24,0,0,0,12.94-3.69,21.55,21.55,0,0,0,8.66-10.35l-12.24-3.51a10,10,0,0,1-3.91,4.54,11.49,11.49,0,0,1-6.17,1.58q-5.72,0-8.66-3.71a14.19,14.19,0,0,1-2.73-7.09H439a33.74,33.74,0,0,0-1.8-15.35A21.18,21.18,0,0,0,429.26,478.53Zm-12.47,7.11q5.35,0,7.72,3.26a13.6,13.6,0,0,1,2.08,6.1h-21.4a13.56,13.56,0,0,1,2.4-5.56Q410.53,485.65,416.79,485.64Z" transform="translate(-129 -453)"/><path class="cls-6" d="M487,483.87A14.55,14.55,0,0,0,479.2,477a32.43,32.43,0,0,0-11.74-2q-9,0-14.23,3.78a18.74,18.74,0,0,0-7.12,9.81l11.37,3.51a7.59,7.59,0,0,1,4.2-4.63,14.52,14.52,0,0,1,5.78-1.31q5,0,7.12,2a7.34,7.34,0,0,1,2,4.6l-6,.87c-3.24.47-6.13,1-8.69,1.47a47.52,47.52,0,0,0-6.61,1.75,19.1,19.1,0,0,0-6.4,3.58,12.49,12.49,0,0,0-3.44,4.92,17.23,17.23,0,0,0-1.07,6.17,14.61,14.61,0,0,0,1.92,7.4,13.91,13.91,0,0,0,5.64,5.36,19,19,0,0,0,9.08,2,23.31,23.31,0,0,0,10.7-2.18A21.67,21.67,0,0,0,478,519v6h11V495.3a57.93,57.93,0,0,0-.28-6A14.24,14.24,0,0,0,487,483.87Zm-11.41,26.55a11.69,11.69,0,0,1-1.87,2.56A12.46,12.46,0,0,1,470,515.7a12.25,12.25,0,0,1-5.69,1.2,9.52,9.52,0,0,1-3.64-.63,5.24,5.24,0,0,1-2.37-1.83,4.87,4.87,0,0,1-.83-2.85,4.65,4.65,0,0,1,.52-2.21,5.37,5.37,0,0,1,1.62-1.82,12.3,12.3,0,0,1,2.9-1.55,31.87,31.87,0,0,1,3.65-1.08q2.07-.49,5.44-1.11l5.2-.9c0,.86-.07,1.81-.14,2.88A12.26,12.26,0,0,1,475.56,510.42Z" transform="translate(-129 -453)"/><path class="cls-7" d="M544.81,488a20.56,20.56,0,0,0-2.8-6.19,15,15,0,0,0-5.48-4.9,18.86,18.86,0,0,0-9.12-1.94,20.39,20.39,0,0,0-11.6,3.1,19.86,19.86,0,0,0-3.81,3.36V476H501v49h12V500.34a21.4,21.4,0,0,1,1-7.29,10.2,10.2,0,0,1,2.62-4.16,8.33,8.33,0,0,1,3.41-1.91,13,13,0,0,1,3.41-.5,9.46,9.46,0,0,1,6.11,1.75,9.87,9.87,0,0,1,3.11,4.37,18.77,18.77,0,0,1,1.14,5.2c.12,1.72.18,3.14.18,4.25V525h12V497.73q0-1.22-.18-3.87A31,31,0,0,0,544.81,488Z" transform="translate(-129 -453)"/><path class="cls-8" d="M601.94,492.66a25.5,25.5,0,0,0-5.87-3.06q-3.06-1.1-5.58-1.77l-11.25-3.06a32.05,32.05,0,0,1-4-1.35,9.77,9.77,0,0,1-3.29-2.14,4.7,4.7,0,0,1-1.3-3.44,5.51,5.51,0,0,1,1.6-4,10.25,10.25,0,0,1,4.14-2.55,15.12,15.12,0,0,1,5.42-.78,15.54,15.54,0,0,1,5.6,1.21,12.71,12.71,0,0,1,4.61,3.29,11.71,11.71,0,0,1,2.66,5.31l13.23-2.25a25.7,25.7,0,0,0-5.13-10.29,23,23,0,0,0-8.82-6.41,31.87,31.87,0,0,0-12-2.29,32.91,32.91,0,0,0-12.15,2.07,19.59,19.59,0,0,0-8.78,6.43,17.41,17.41,0,0,0-3.28,10.85,16.86,16.86,0,0,0,1.55,7.67,14.59,14.59,0,0,0,3.89,4.88,19.45,19.45,0,0,0,4.84,2.84c1.67.66,3.13,1.17,4.39,1.53l16.83,4.95a15.38,15.38,0,0,1,3.13,1.3,7.19,7.19,0,0,1,1.91,1.53,5.24,5.24,0,0,1,1,1.73,6.52,6.52,0,0,1,.29,1.92,6.22,6.22,0,0,1-1.82,4.54,11.59,11.59,0,0,1-4.66,2.79,18.38,18.38,0,0,1-5.85,1,16.18,16.18,0,0,1-9.63-3,14.23,14.23,0,0,1-5.58-8.59l-12.78,1.89a23.76,23.76,0,0,0,4.7,11.31,24.1,24.1,0,0,0,9.5,7.29,31.82,31.82,0,0,0,13,2.55,36.67,36.67,0,0,0,9.61-1.26,26.92,26.92,0,0,0,8.34-3.81,19.06,19.06,0,0,0,5.88-6.43,18.38,18.38,0,0,0,2.18-9.11,16.24,16.24,0,0,0-1.82-8.1A15.64,15.64,0,0,0,601.94,492.66Z" transform="translate(-129 -453)"/><rect class="cls-9" x="490" y="6" width="12" height="11"/><rect class="cls-10" x="490" y="23" width="12" height="49"/><path class="cls-11" d="M678,479.26a5.73,5.73,0,0,1-1.07-.66,19.52,19.52,0,0,0-11.65-3.37,22,22,0,0,0-12.15,3.33,22.39,22.39,0,0,0-8,9.11,32,32,0,0,0,0,26.3,22.66,22.66,0,0,0,7.85,9.18,20.63,20.63,0,0,0,11.75,3.38c4.59,0,11.35-3.07,11.35-3.07v5.29a6.68,6.68,0,0,1-1.35,4.52,8.7,8.7,0,0,1-3.81,2.75,14,14,0,0,1-5.08.92,9.86,9.86,0,0,1-4.65-1.13,7.72,7.72,0,0,1-3.29-3.28L646.71,538a19.74,19.74,0,0,0,4.69,5.51,22,22,0,0,0,6.56,3.69,22.33,22.33,0,0,0,7.72,1.33,32.14,32.14,0,0,0,9.75-1.42,19.85,19.85,0,0,0,7.61-4.29,14.79,14.79,0,0,0,4.25-7.34,20.42,20.42,0,0,0,.55-3.17,33.29,33.29,0,0,0,.16-3.4V477H678Zm-4.83,34.53a10.6,10.6,0,0,1-6.54,1.85,10.18,10.18,0,0,1-6.48-2,11.65,11.65,0,0,1-3.74-5.34,21.66,21.66,0,0,1-1.21-7.44,21,21,0,0,1,1.26-7.41,11.69,11.69,0,0,1,3.89-5.35,10.79,10.79,0,0,1,6.73-2,9.78,9.78,0,0,1,6.19,1.84,10.48,10.48,0,0,1,3.44,5.18,28.27,28.27,0,0,1,0,15.48A10.16,10.16,0,0,1,673.17,513.79Z" transform="translate(-129 -453)"/><path class="cls-12" d="M755.18,475.23a18.32,18.32,0,0,0-8.84,2.14,16.42,16.42,0,0,0-6,5.45,14.55,14.55,0,0,0-4.77-5.16,16.65,16.65,0,0,0-9.38-2.43,18.51,18.51,0,0,0-9,2.21,17.26,17.26,0,0,0-5.19,4.3V476H701v49h12V495.57a9.93,9.93,0,0,1,2.32-6.82,8.58,8.58,0,0,1,12.41.05q2.26,2.67,2.27,7.49V525h13V495.57a10.93,10.93,0,0,1,1.06-4.93,8.08,8.08,0,0,1,2.94-3.33,8.23,8.23,0,0,1,4.46-1.19,7.77,7.77,0,0,1,6.27,2.68q2.26,2.67,2.27,7.49V525h12V493.05q0-8-4.25-12.89T755.18,475.23Z" transform="translate(-129 -453)"/><path class="cls-6" d="M823.72,489.27a14.24,14.24,0,0,0-1.75-5.4A14.55,14.55,0,0,0,814.2,477a32.43,32.43,0,0,0-11.74-2q-9,0-14.23,3.78a18.74,18.74,0,0,0-7.12,9.81l11.37,3.51a7.59,7.59,0,0,1,4.2-4.63,14.52,14.52,0,0,1,5.78-1.31q5,0,7.12,2a7.34,7.34,0,0,1,2,4.6l-6,.87c-3.24.47-6.13,1-8.69,1.47a47.52,47.52,0,0,0-6.61,1.75,19.1,19.1,0,0,0-6.4,3.58,12.49,12.49,0,0,0-3.44,4.92,17.23,17.23,0,0,0-1.07,6.17,14.61,14.61,0,0,0,1.92,7.4,13.91,13.91,0,0,0,5.64,5.36,19,19,0,0,0,9.08,2,23.31,23.31,0,0,0,10.7-2.18A21.67,21.67,0,0,0,813,519v6h11V495.3A57.93,57.93,0,0,0,823.72,489.27ZM810.9,510.42A12,12,0,0,1,809,513a12.73,12.73,0,0,1-3.69,2.72,12.28,12.28,0,0,1-5.69,1.2,9.58,9.58,0,0,1-3.65-.63,5.16,5.16,0,0,1-2.36-1.83,5.19,5.19,0,0,1-.32-5.06,5.6,5.6,0,0,1,1.62-1.82,12.6,12.6,0,0,1,2.91-1.55,31.66,31.66,0,0,1,3.64-1.08q2.07-.49,5.45-1.11c1.44-.26,3.18-.56,5.19-.9,0,.86-.07,1.81-.13,2.88A12.46,12.46,0,0,1,810.9,510.42Z" transform="translate(-129 -453)"/></svg>