<svg width="208" height="31" viewBox="0 0 208 31" fill="none" xmlns="http://www.w3.org/2000/svg">
    <g clip-path="url(#clip0_815_1994)">
        <path d="M5.97559 9.46338H21.1534V14.3394H5.97559V9.46338Z" fill="currentColor" />
        <path d="M0 18.4268H19.3606V23.3028H0V18.4268Z" fill="currentColor" />
        <path d="M11.9509 0.5H22.9458V5.376H11.9509V0.5Z" fill="currentColor" />
        <path d="M64.9775 23.6463V4.28564H68.6346V20.2313H76.9704V23.6463H64.9775Z"
            fill="currentColor" />
        <path
            d="M86.0053 24.0495C84.6332 24.0774 83.2777 23.7458 82.0734 23.0875C80.9579 22.4675 80.0364 21.55 79.4114 20.4373C78.755 19.2572 78.4231 17.9243 78.4493 16.5742C78.4146 15.1371 78.7381 13.7141 79.3904 12.4332C79.9836 11.2966 80.883 10.3486 81.9868 9.69637C83.1425 9.03199 84.4574 8.69524 85.7902 8.72236C87.1638 8.68074 88.5178 9.0557 89.6743 9.79796C90.7575 10.5329 91.5854 11.5864 92.0436 12.8126C92.5753 14.2791 92.7594 15.849 92.5814 17.3988H88.9632V16.0543C88.9632 14.5764 88.7282 13.5117 88.2581 12.8604C87.786 12.2091 87.0182 11.8864 85.9515 11.8864C84.7066 11.8864 83.7904 12.2648 83.2028 13.0217C82.6152 13.7786 82.3214 14.904 82.3214 16.3979C82.3214 17.7523 82.6152 18.7981 83.2028 19.535C83.7904 20.272 84.6529 20.6425 85.7902 20.6465C86.4369 20.6603 87.0745 20.4927 87.6307 20.1625C88.1495 19.8403 88.5573 19.3669 88.7989 18.806L92.4559 19.8547C91.9467 21.1359 91.0398 22.2199 89.8685 22.947C88.7121 23.6751 87.3718 24.0576 86.0053 24.0495V24.0495ZM81.1921 17.4078V14.6919H90.8186V17.4078H81.1921Z"
            fill="currentColor" />
        <path
            d="M99.3695 24.0495C98.4526 24.0789 97.5434 23.8732 96.7284 23.452C96.0397 23.0873 95.4704 22.5325 95.0881 21.8535C94.7132 21.1775 94.5206 20.4156 94.5294 19.6426C94.5184 19.0152 94.6196 18.3909 94.8281 17.7992C95.0392 17.2352 95.3824 16.7301 95.829 16.3262C96.3741 15.8528 97.0064 15.4904 97.6904 15.2596C98.318 15.0372 98.9611 14.8615 99.6145 14.7337C100.359 14.5823 101.202 14.4369 102.142 14.2975L105.258 13.8314L103.941 14.5575C103.941 13.697 103.735 13.0646 103.322 12.6602C102.91 12.2559 102.22 12.0567 101.252 12.0627C100.671 12.0721 100.099 12.2044 99.5727 12.4511C99.282 12.5823 99.0225 12.7737 98.8113 13.0127C98.6002 13.2517 98.4421 13.5328 98.3477 13.8374L95.0403 12.7827C95.391 11.6054 96.1184 10.5757 97.1108 9.85174C98.1226 9.09883 99.503 8.72238 101.252 8.72238C102.418 8.70368 103.577 8.90646 104.667 9.31993C105.646 9.69976 106.45 10.4274 106.926 11.3635C107.2 11.8626 107.374 12.4108 107.436 12.9769C107.49 13.5147 107.517 14.1123 107.517 14.7696V23.6432H104.317V20.6555L104.774 21.2739C104.182 22.1449 103.398 22.8686 102.483 23.3892C101.514 23.8602 100.446 24.0869 99.3695 24.0495V24.0495ZM100.149 21.1783C100.737 21.197 101.32 21.074 101.849 20.8198C102.264 20.6194 102.638 20.3439 102.952 20.0071C103.172 19.7787 103.36 19.5214 103.511 19.2423C103.709 18.808 103.821 18.339 103.839 17.8619C103.872 17.339 103.887 16.9028 103.887 16.5533L104.963 16.8222C103.879 17.0014 103.001 17.1508 102.327 17.2703C101.654 17.3898 101.112 17.4974 100.702 17.593C100.332 17.6787 99.9683 17.7865 99.6115 17.9157C99.3033 18.0306 99.0119 18.1863 98.7451 18.3788C98.5449 18.5213 98.3795 18.7072 98.2611 18.9226C98.1555 19.1264 98.1021 19.3533 98.1057 19.5828C98.0977 19.8856 98.1844 20.1832 98.3537 20.4344C98.5315 20.6816 98.7776 20.8716 99.0618 20.9811C99.4079 21.1173 99.7774 21.1843 100.149 21.1783V21.1783Z"
            fill="currentColor" />
        <path
            d="M110.986 23.646V9.12549H114.24V13.9387H114.697V23.646H110.986ZM120.908 23.646V16.7891C120.908 16.4564 120.89 16.0322 120.854 15.5163C120.816 14.9863 120.703 14.4644 120.52 13.9656C120.338 13.4539 120.018 13.0022 119.597 12.66C119.077 12.2837 118.444 12.0989 117.804 12.1371C117.463 12.1405 117.125 12.1898 116.797 12.2835C116.42 12.3924 116.075 12.5878 115.787 12.8542C115.433 13.2017 115.168 13.6289 115.013 14.1001C114.79 14.8038 114.689 15.5404 114.715 16.2782L112.623 15.2832C112.616 14.1693 112.855 13.0675 113.322 12.0565C113.776 11.0642 114.501 10.2202 115.414 9.62146C116.477 8.96902 117.71 8.6467 118.957 8.69525C119.919 8.65625 120.875 8.85427 121.742 9.27189C122.411 9.61663 122.986 10.1204 123.415 10.7389C123.8 11.3026 124.089 11.9266 124.269 12.5853C124.424 13.1601 124.524 13.7483 124.568 14.3421C124.604 14.8699 124.622 15.2554 124.622 15.4984V23.646H120.908Z"
            fill="currentColor" />
        <path
            d="M135.435 24.0495C134.101 24.0709 132.778 23.8113 131.551 23.2877C130.436 22.812 129.46 22.0629 128.712 21.1096C127.957 20.1253 127.473 18.9602 127.308 17.7304L131.126 17.1658C131.344 18.1985 131.939 19.1133 132.794 19.7322C133.633 20.3299 134.641 20.644 135.671 20.6286C136.265 20.6291 136.855 20.5333 137.419 20.3447C137.942 20.1811 138.419 19.8954 138.811 19.5111C138.989 19.3335 139.128 19.1218 139.222 18.8886C139.315 18.6555 139.36 18.4058 139.355 18.1547C139.355 17.9602 139.325 17.7669 139.268 17.5811C139.203 17.3912 139.101 17.2157 138.969 17.0642C138.807 16.8803 138.614 16.7257 138.399 16.6071C138.102 16.4435 137.789 16.3133 137.463 16.2186L132.447 14.7457C132.071 14.6381 131.634 14.4858 131.135 14.2886C130.615 14.0771 130.128 13.7913 129.689 13.44C129.201 13.0435 128.805 12.5462 128.527 11.982C128.195 11.265 128.037 10.48 128.064 9.69041C128.02 8.53078 128.365 7.38971 129.044 6.44871C129.719 5.57343 130.629 4.90734 131.667 4.52758C132.828 4.09465 134.059 3.88483 135.297 3.90912C136.525 3.90385 137.743 4.13618 138.883 4.59331C139.902 5.01125 140.806 5.66809 141.518 6.50846C142.254 7.40435 142.778 8.45545 143.051 9.58285L139.098 10.2551C138.974 9.66676 138.7 9.12035 138.303 8.6686C137.924 8.24152 137.453 7.90552 136.926 7.68563C136.395 7.46247 135.828 7.33988 135.253 7.32412C134.703 7.30212 134.154 7.38215 133.633 7.56015C133.165 7.70906 132.741 7.9695 132.396 8.31903C132.24 8.47591 132.118 8.6626 132.036 8.86793C131.953 9.07326 131.914 9.29303 131.918 9.51413C131.911 9.70276 131.941 9.89099 132.008 10.0676C132.074 10.2442 132.176 10.4055 132.307 10.5419C132.587 10.8203 132.921 11.038 133.29 11.1813C133.684 11.3425 134.088 11.4772 134.5 11.5847L137.861 12.4989C138.363 12.6343 138.919 12.8106 139.528 13.0277C140.15 13.255 140.739 13.5623 141.282 13.942C141.854 14.3456 142.327 14.8724 142.668 15.4837C143.051 16.2269 143.235 17.0564 143.203 17.8918C143.225 18.8401 143 19.7778 142.552 20.6136C142.123 21.3814 141.521 22.0391 140.795 22.5347C140.035 23.0539 139.193 23.4389 138.303 23.6731C137.368 23.9248 136.403 24.0514 135.435 24.0495V24.0495Z"
            fill="currentColor" />
        <path
            d="M146.427 7.1091V3.88232H150.075V7.1091H146.427ZM146.427 23.6463V9.12583H150.075V23.6463H146.427Z"
            fill="currentColor" />
        <path
            d="M160.006 24.0496C158.761 24.0754 157.537 23.7233 156.495 23.0397C155.481 22.3537 154.67 21.406 154.15 20.297C153.578 19.0778 153.291 17.7445 153.31 16.398C153.284 15.0338 153.577 13.6824 154.165 12.4511C154.696 11.3411 155.523 10.3991 156.555 9.7293C157.642 9.05089 158.904 8.70507 160.185 8.73439C161.423 8.69193 162.642 9.04458 163.666 9.74126C164.624 10.4346 165.366 11.3857 165.805 12.484C166.777 15.0018 166.777 17.7912 165.805 20.3089C165.355 21.4647 164.552 22.4492 163.51 23.1228C162.469 23.7964 161.242 24.1248 160.003 24.0616L160.006 24.0496ZM160.329 30.5031C159.527 30.5061 158.731 30.3717 157.974 30.1058C157.252 29.8516 156.578 29.479 155.978 29.0033C155.405 28.5466 154.92 27.9886 154.547 27.357L157.935 25.7168C158.161 26.1383 158.51 26.4804 158.936 26.6967C159.375 26.9221 159.862 27.0379 160.356 27.0343C160.883 27.0377 161.407 26.9435 161.9 26.7565C162.355 26.5933 162.758 26.3105 163.065 25.9378C163.363 25.5529 163.508 25.0725 163.475 24.5874V20.3657H163.932V9.12578H167.132V24.6412C167.133 24.9794 167.117 25.3174 167.084 25.654C167.053 25.9746 166.998 26.2923 166.917 26.6041C166.71 27.446 166.259 28.208 165.62 28.7941C164.95 29.3877 164.157 29.8264 163.299 30.0789C162.335 30.3679 161.334 30.5109 160.329 30.5031V30.5031ZM160.598 20.7959C161.293 20.8307 161.98 20.6365 162.555 20.2432C163.059 19.8514 163.428 19.3112 163.609 18.6985C164.04 17.1869 164.04 15.5851 163.609 14.0735C163.431 13.4655 163.073 12.9259 162.581 12.5258C162.045 12.1385 161.393 11.9447 160.732 11.9761C160.014 11.9469 159.307 12.1571 158.721 12.5736C158.189 12.9849 157.786 13.5394 157.559 14.1721C157.301 14.8814 157.174 15.6314 157.183 16.386C157.172 17.1424 157.295 17.8948 157.544 18.6089C157.757 19.2362 158.145 19.7897 158.661 20.2044C159.22 20.6168 159.904 20.8256 160.598 20.7959Z"
            fill="currentColor" />
        <path
            d="M170.869 23.6464V9.1259H174.096V13.9392H174.553V23.6464H170.869ZM179.635 23.6464V15.0685C179.635 14.1085 179.409 13.3615 178.957 12.8277C178.717 12.5774 178.429 12.3782 178.111 12.2421C177.792 12.106 177.449 12.0358 177.102 12.0358C176.755 12.0358 176.412 12.106 176.093 12.2421C175.774 12.3782 175.486 12.5774 175.246 12.8277C174.768 13.3959 174.521 14.1232 174.553 14.8654L173.021 13.7898C173.007 12.8876 173.254 12.0005 173.732 11.2353C174.205 10.4818 174.866 9.86411 175.65 9.4426C176.476 8.99835 177.401 8.77211 178.339 8.78529C179.324 8.74448 180.3 8.99717 181.141 9.51132C181.86 9.98273 182.424 10.6564 182.761 11.4474C183.118 12.2889 183.297 13.1953 183.286 14.1095V23.6553L179.635 23.6464ZM188.375 23.6464V15.0685C188.375 14.1085 188.149 13.3615 187.696 12.8277C187.464 12.5614 187.175 12.3513 186.85 12.2131C186.525 12.0749 186.173 12.0123 185.82 12.03C185.351 12.019 184.889 12.1423 184.488 12.3855C184.107 12.6276 183.802 12.9725 183.609 13.3805C183.39 13.84 183.282 14.3445 183.292 14.8534L181.76 13.8316C181.739 12.9258 181.972 12.0323 182.432 11.2516C182.891 10.4709 183.56 9.83407 184.362 9.41272C185.175 8.98333 186.084 8.76454 187.003 8.77633C188.66 8.77633 189.913 9.26733 190.762 10.2493C191.61 11.2313 192.034 12.515 192.032 14.1005V23.6464H188.375Z"
            fill="currentColor" />
        <path
            d="M199.561 24.0494C198.643 24.0792 197.732 23.8735 196.917 23.4518C196.229 23.0854 195.66 22.531 195.276 21.8534C194.904 21.1766 194.712 20.415 194.721 19.6424C194.71 19.0151 194.811 18.3908 195.019 17.799C195.231 17.2356 195.575 16.7307 196.02 16.326C196.567 15.8532 197.2 15.4909 197.885 15.2594C198.511 15.037 199.153 14.8613 199.806 14.7336C200.551 14.5822 201.393 14.4368 202.333 14.2973L205.441 13.8342L204.123 14.5603C204.123 13.6998 203.914 13.0664 203.505 12.663C203.095 12.2597 202.402 12.0655 201.434 12.0655C200.852 12.0748 200.279 12.2072 199.752 12.4539C199.462 12.5853 199.203 12.7768 198.992 13.0158C198.781 13.2548 198.624 13.5358 198.53 13.8402L195.222 12.7915C195.573 11.6142 196.301 10.5845 197.293 9.86053C198.305 9.10762 199.685 8.73116 201.434 8.73116C202.6 8.71247 203.759 8.91525 204.849 9.32871C205.828 9.70855 206.632 10.4362 207.108 11.3723C207.382 11.8713 207.556 12.4196 207.619 12.9857C207.672 13.5235 207.699 14.1211 207.699 14.7784V23.652H204.508V20.6642L204.966 21.2827C204.373 22.1545 203.588 22.8782 202.671 23.398C201.703 23.8662 200.635 24.0899 199.561 24.0494V24.0494ZM200.341 21.1721C200.928 21.1905 201.511 21.0675 202.041 20.8136C202.454 20.6117 202.828 20.3363 203.143 20.001C203.428 19.7214 203.654 19.3876 203.808 19.0191C203.962 18.6507 204.041 18.2551 204.039 17.8558C204.069 17.3329 204.087 16.8967 204.087 16.5471L205.163 16.816C204.077 16.9953 203.199 17.1447 202.528 17.2642C201.856 17.3837 201.311 17.4932 200.89 17.5928C200.522 17.6785 200.158 17.7863 199.803 17.9155C199.494 18.0311 199.202 18.1868 198.933 18.3786C198.735 18.5229 198.57 18.7084 198.449 18.9224C198.335 19.1615 198.283 19.4261 198.3 19.6907C198.317 19.9554 198.401 20.2114 198.545 20.4342C198.721 20.682 198.966 20.8722 199.25 20.9809C199.597 21.1171 199.968 21.1841 200.341 21.1781V21.1721Z"
            fill="currentColor" />
        <path
            d="M35.7993 24.0493C34.607 24.0544 33.4247 23.8323 32.3156 23.395C31.2173 22.9645 30.2217 22.3079 29.3935 21.4679C28.5133 20.5647 27.8305 19.4882 27.3888 18.3068C26.878 16.9176 26.6298 15.4456 26.6568 13.9656C26.6568 11.8244 27.0671 10.0019 27.8877 8.49806C28.643 7.06376 29.79 5.87332 31.1952 5.06514C32.5974 4.26712 34.186 3.85477 35.7993 3.87004C38.2911 3.87004 40.249 4.44767 41.6732 5.60293C43.0974 6.75819 44.0524 8.39448 44.5385 10.5118L40.8008 11.0496C40.503 9.99955 39.9073 9.05829 39.0858 8.33971C38.2289 7.63972 37.1471 7.27452 36.0413 7.31192C34.9623 7.25388 33.8918 7.53039 32.9759 8.10368C32.1412 8.67412 31.501 9.4863 31.1414 10.4311C30.711 11.5546 30.503 12.7509 30.5289 13.9537C30.5012 15.1479 30.7093 16.3357 31.1414 17.4494C31.5066 18.383 32.1462 19.1841 32.9759 19.7469C33.8928 20.3234 34.9585 20.6184 36.0413 20.5955C36.8189 20.6243 37.5931 20.4772 38.306 20.1652C38.9972 19.8488 39.5898 19.3512 40.021 18.7251C40.5287 17.9685 40.868 17.1116 41.0159 16.2124H37.9505V13.4099H44.906C44.9295 13.6153 44.9424 13.8217 44.9448 14.0284C44.9448 14.3272 44.9448 14.4945 44.9448 14.5393C44.9779 16.2512 44.59 17.9451 43.8154 19.4721C43.0932 20.8738 41.9876 22.0415 40.6275 22.8393C39.1572 23.6719 37.4885 24.0901 35.7993 24.0493V24.0493Z"
            fill="currentColor" />
        <path
            d="M54.1919 24.0495C52.8445 24.0785 51.5148 23.7386 50.3467 23.0665C49.2525 22.4208 48.3604 21.4822 47.7712 20.3566C47.142 19.1334 46.8258 17.7732 46.851 16.3979C46.8213 15.0062 47.1451 13.6297 47.7921 12.3973C48.3905 11.2778 49.2884 10.3468 50.3855 9.70828C51.5605 9.06918 52.8768 8.73437 54.2143 8.73438C55.5519 8.73437 56.8681 9.06918 58.0431 9.70828C59.1414 10.3526 60.0376 11.2913 60.6305 12.4182C61.2435 13.6553 61.5624 15.0172 61.5624 16.3979C61.5624 17.7785 61.2435 19.1405 60.6305 20.3775C60.0323 21.4972 59.1344 22.4282 58.0371 23.0665C56.8682 23.7366 55.539 24.0764 54.1919 24.0495ZM54.1919 20.6345C55.3671 20.6345 56.2435 20.2361 56.8211 19.4394C57.4293 18.5394 57.733 17.4682 57.6876 16.3829C57.6876 15.0922 57.3938 14.0614 56.8062 13.2906C56.2186 12.5198 55.3472 12.1343 54.1919 12.1343C53.4976 12.1051 52.8114 12.293 52.2289 12.6721C51.7076 13.0433 51.3116 13.5643 51.0936 14.166C50.8334 14.8766 50.7077 15.6294 50.7231 16.3859C50.7231 17.6866 51.0169 18.7193 51.6045 19.4842C52.1921 20.2491 53.0546 20.6325 54.1919 20.6345Z"
            fill="currentColor" />
    </g>
    <defs>
        <clipPath id="clip0_815_1994">
            <rect width="207.705" height="30" fill="white" transform="translate(0 0.5)" />
        </clipPath>
    </defs>
</svg>